<svg width="64" height="64" viewBox="0 0 64 64" fill="none" xmlns="http://www.w3.org/2000/svg">
<path d="M16.5071 13.3479C16.6972 12.98 16.7559 12.5582 16.6735 12.1523C17.0587 12.1924 17.4476 12.1267 17.7982 11.9621C18.1489 11.7976 18.448 11.5405 18.6633 11.2185C18.8786 10.8965 19.002 10.5219 19.0202 10.135C19.0384 9.74815 18.9506 9.36362 18.7664 9.0229C18.5823 8.68217 18.3086 8.39815 17.9749 8.20145C17.6413 8.00474 17.2603 7.90279 16.873 7.9066C16.4857 7.9104 16.1068 8.0198 15.777 8.22302C15.4473 8.42624 15.1793 8.71558 15.0018 9.05985C14.7317 9.58337 13.5861 11.0541 13.2649 11.6749C13.155 11.8878 13.0882 12.1202 13.0681 12.3589C13.0481 12.5977 13.0753 12.838 13.1482 13.0662C13.2953 13.5271 13.6195 13.9106 14.0495 14.1325C14.4794 14.3543 14.9799 14.3963 15.4408 14.2492C15.9017 14.102 16.2852 13.7778 16.5071 13.3479Z" fill="#FDEDA5" stroke="#FBDF63" stroke-width="0.64" stroke-miterlimit="10"/>
<path d="M9.77814 8.63994C10.059 8.33573 10.435 8.13619 10.8444 8.07418C10.6753 7.72615 10.6043 7.33858 10.6391 6.95321C10.6739 6.56783 10.8131 6.19924 11.0418 5.88712C11.2705 5.57499 11.58 5.33115 11.937 5.18184C12.2939 5.03254 12.6849 4.98342 13.0677 5.03978C13.4505 5.09614 13.8107 5.25584 14.1095 5.50169C14.4083 5.74754 14.6344 6.07023 14.7634 6.43502C14.8924 6.79981 14.9195 7.19289 14.8418 7.57194C14.764 7.95098 14.5844 8.30165 14.3221 8.58618C13.9215 9.01626 12.9321 10.5958 12.4597 11.1091C12.3006 11.2961 12.1054 11.449 11.8857 11.5587C11.6661 11.6685 11.4265 11.7327 11.1814 11.7476C10.9363 11.7625 10.6908 11.7278 10.4594 11.6456C10.2281 11.5633 10.0157 11.4351 9.8351 11.2688C9.65447 11.1025 9.50928 10.9014 9.40823 10.6776C9.30718 10.4539 9.25235 10.212 9.24703 9.9665C9.24171 9.72102 9.28601 9.477 9.37728 9.24905C9.46854 9.0211 9.60489 8.81392 9.77814 8.63994Z" fill="#FDEDA5" stroke="#FBDF63" stroke-width="0.64" stroke-miterlimit="10"/>
<path d="M12.5506 12.5939L15.6481 8.17178C15.7523 8.02297 15.7162 7.81785 15.5674 7.71361L15.3755 7.57922C15.2267 7.47499 15.0216 7.51112 14.9174 7.65993L11.8198 12.082C11.7156 12.2308 11.7517 12.436 11.9005 12.5402L12.0924 12.6746C12.2412 12.7788 12.4463 12.7427 12.5506 12.5939Z" fill="#CEB4A7" stroke="#BFA586" stroke-width="0.64" stroke-miterlimit="10"/>
<path d="M17.2866 6.93376C17.2866 6.93376 16.8924 6.78144 16.3778 7.07712C16.1218 7.22176 15.6764 7.8016 15.6764 7.8016" stroke="#BFA586" stroke-width="0.64" stroke-miterlimit="10" stroke-linecap="round"/>
<path d="M15.5074 5.68848C15.5074 5.68848 15.7852 6.0072 15.6841 6.58448C15.6341 6.87248 15.2425 7.492 15.2425 7.492" stroke="#BFA586" stroke-width="0.64" stroke-miterlimit="10" stroke-linecap="round"/>
<path d="M57.4556 9.75743C57.3243 9.36473 57.0623 9.029 56.7132 8.80639C57.0095 8.55758 57.2324 8.23267 57.3578 7.86662C57.4832 7.50058 57.5064 7.10726 57.4248 6.72902C57.3433 6.35077 57.1602 6.00192 56.8952 5.72001C56.6301 5.4381 56.2932 5.23381 55.9207 5.12913C55.5482 5.02446 55.1542 5.02335 54.7812 5.12594C54.4081 5.22854 54.0701 5.43093 53.8034 5.71136C53.5368 5.99178 53.3518 6.3396 53.2681 6.71738C53.1845 7.09517 53.2055 7.4886 53.3289 7.85535C53.517 8.41471 53.7769 10.2605 53.9996 10.9273C54.0729 11.1582 54.1915 11.3722 54.3485 11.5568C54.5054 11.7413 54.6976 11.8928 54.9137 12.0022C55.1298 12.1117 55.3656 12.177 55.6072 12.1944C55.8489 12.2118 56.0915 12.1808 56.3211 12.1034C56.5506 12.0259 56.7625 11.9035 56.9442 11.7433C57.1259 11.5831 57.2739 11.3883 57.3795 11.1702C57.4851 10.9522 57.5463 10.7153 57.5593 10.4734C57.5724 10.2315 57.5371 9.9894 57.4556 9.76127V9.75743Z" fill="#B3F2F0" stroke="#81EBEB" stroke-width="0.64" stroke-linejoin="round"/>
<path d="M49.3903 11.3128C49.3662 10.8993 49.4845 10.49 49.7257 10.1531C49.358 10.0324 49.0302 9.81363 48.7777 9.52042C48.5251 9.22721 48.3573 8.87067 48.2923 8.48917C48.2273 8.10767 48.2677 7.71568 48.4089 7.35539C48.5502 6.99511 48.7871 6.68019 49.094 6.44454C49.401 6.20888 49.7664 6.06143 50.151 6.01805C50.5355 5.97467 50.9246 6.037 51.2764 6.19835C51.6282 6.35969 51.9292 6.61393 52.1472 6.93368C52.3652 7.25344 52.4918 7.6266 52.5135 8.01298C52.5468 8.60178 52.9922 10.4117 53.0319 11.1093C53.0502 11.3512 53.0201 11.5943 52.9434 11.8244C52.8666 12.0545 52.7447 12.267 52.5848 12.4494C52.4249 12.6318 52.2303 12.7805 52.0122 12.8868C51.7942 12.9931 51.5571 13.0548 51.3149 13.0683C51.0727 13.0819 50.8302 13.047 50.6017 12.9656C50.3732 12.8843 50.1631 12.7582 49.9839 12.5948C49.8047 12.4313 49.6599 12.2337 49.558 12.0136C49.456 11.7935 49.399 11.5552 49.3903 11.3128Z" fill="#B3F2F0" stroke="#81EBEB" stroke-width="0.64" stroke-linejoin="round"/>
<path d="M54.1587 12.0752L53.1368 6.77369C53.1025 6.5953 52.93 6.47856 52.7516 6.51294L52.5216 6.55728C52.3432 6.59166 52.2264 6.76416 52.2608 6.94255L53.2827 12.244C53.317 12.4224 53.4895 12.5391 53.6679 12.5048L53.8979 12.4604C54.0763 12.426 54.1931 12.2535 54.1587 12.0752Z" fill="#CEB4A7" stroke="#BFA586" stroke-width="0.64" stroke-miterlimit="10"/>
<path d="M53.3903 4.73608C53.3903 4.73608 53.0063 4.91272 52.8616 5.48744C52.79 5.7716 52.8936 6.49608 52.8936 6.49608" stroke="#BFA586" stroke-width="0.64" stroke-miterlimit="10" stroke-linecap="round"/>
<path d="M51.2591 5.14697C51.2591 5.14697 51.6802 5.16873 52.0271 5.64873C52.1986 5.88425 52.3714 6.59721 52.3714 6.59721" stroke="#BFA586" stroke-width="0.64" stroke-miterlimit="10" stroke-linecap="round"/>
<path d="M56.781 48.3802C56.2419 48.4011 55.7261 48.6057 55.3192 48.96C55.1174 48.498 54.7934 48.0998 54.3821 47.8083C53.9708 47.5168 53.4877 47.343 52.985 47.3057C52.4822 47.2684 51.9788 47.3689 51.5289 47.5964C51.0791 47.824 50.6998 48.17 50.432 48.5971C50.1641 49.0242 50.0179 49.5163 50.009 50.0204C50.0001 50.5244 50.1288 51.0214 50.3814 51.4577C50.634 51.894 51.0008 52.2531 51.4424 52.4964C51.8839 52.7397 52.3835 52.858 52.8872 52.8384C53.6552 52.809 56.0565 53.1648 56.9666 53.1302C57.5916 53.0994 58.1791 52.8232 58.6017 52.3617C59.0242 51.9002 59.2476 51.2906 59.2233 50.6653C59.1991 50.04 58.9291 49.4496 58.472 49.0222C58.015 48.5948 57.4078 48.365 56.7823 48.3827L56.781 48.3802Z" fill="#E9E1FF" stroke="#D4C0FF" stroke-width="0.64" stroke-miterlimit="10"/>
<path d="M55.7557 59.0297C55.2302 58.9071 54.7623 58.6086 54.4297 58.1836C54.1435 58.5986 53.7496 58.9277 53.2904 59.1354C52.8311 59.3432 52.3239 59.4217 51.8233 59.3626C51.3227 59.3035 50.8477 59.109 50.4495 58.8C50.0512 58.4911 49.7448 58.0793 49.5632 57.6091C49.3815 57.1389 49.3316 56.6281 49.4187 56.1316C49.5058 55.6351 49.7267 55.1718 50.0576 54.7915C50.3885 54.4113 50.8168 54.1284 51.2964 53.9735C51.7761 53.8186 52.2889 53.7974 52.7797 53.9123C53.5273 54.0876 55.9529 54.1964 56.8399 54.4051C57.1483 54.4718 57.4403 54.5992 57.699 54.78C57.9576 54.9608 58.1776 55.1913 58.3461 55.4581C58.5147 55.7248 58.6284 56.0225 58.6806 56.3337C58.7329 56.6449 58.7226 56.9633 58.6504 57.2705C58.5782 57.5777 58.4456 57.8674 58.2602 58.1228C58.0748 58.3781 57.8405 58.594 57.5707 58.7577C57.301 58.9215 57.0014 59.0299 56.6893 59.0766C56.3773 59.1233 56.059 59.1074 55.7532 59.0297H55.7557Z" fill="#E9E1FF" stroke="#D4C0FF" stroke-width="0.64" stroke-miterlimit="10"/>
<path d="M58.567 53.354L51.3696 52.6609C51.1887 52.6435 51.028 52.776 51.0106 52.9568L50.9624 53.4576C50.945 53.6384 51.0774 53.7991 51.2583 53.8165L58.4557 54.5096C58.6366 54.527 58.7973 54.3945 58.8147 54.2137L58.8629 53.7129C58.8803 53.5321 58.7478 53.3714 58.567 53.354Z" fill="#CEB4A7" stroke="#BFA586" stroke-width="0.64" stroke-miterlimit="10"/>
<path d="M49.0114 51.6108C49.0114 51.6108 49.0908 52.1548 49.7551 52.5491C50.0828 52.7424 51.0274 52.8793 51.0274 52.8793" stroke="#BFA586" stroke-width="0.64" stroke-miterlimit="10" stroke-linecap="round"/>
<path d="M48.74 54.4256C48.74 54.4256 48.9231 53.9059 49.6501 53.6474C50.0085 53.5194 50.9621 53.5654 50.9621 53.5654" stroke="#BFA586" stroke-width="0.64" stroke-miterlimit="10" stroke-linecap="round"/>
<path d="M32.3574 36.5569C30.4156 37.9004 28.4035 39.1395 26.3298 40.2689C23.9158 41.5898 21.133 42.9044 18.6921 43.5214C18.6921 43.5214 16.4559 46.4654 18.4361 51.0516C21.9906 59.2999 32.7196 61.3953 35.6521 52.0833C38.5846 42.7713 32.3574 36.5569 32.3574 36.5569Z" fill="#FFCCF5" stroke="#FFAEEC" stroke-width="0.64" stroke-miterlimit="10"/>
<path d="M18.4322 51.0478C19.3935 49.7678 23.0965 45.1035 27.6956 43.149C28.2895 41.1586 28.8476 39.8363 29.3941 39.1541L30.4373 37.8408C31.6303 37.0728 32.3573 36.5608 32.3573 36.5608C32.3573 36.5608 32.5442 36.7464 32.836 37.101L30.5077 40.0334C28.8015 42.1813 26.7266 53.6078 26.0712 57.8254C26.0661 57.8566 26.0588 57.8874 26.0495 57.9176C25.586 57.7988 25.1321 57.6456 24.6914 57.4593C24.8092 56.7157 25.3724 53.2456 26.1416 49.5451C26.5052 47.8018 26.8563 46.2726 27.1951 44.9576C22.8239 47.309 19.4037 52.1192 19.3589 52.1819C19.2996 52.2677 19.2217 52.339 19.1311 52.3905L19.1157 52.3982C18.8626 51.9614 18.6344 51.5105 18.4322 51.0478Z" fill="#FFAEEC" stroke="#FFAEEC" stroke-width="0.64" stroke-miterlimit="10"/>
<path d="M33.4517 38.4462L33.654 38.1902C33.9036 38.5588 34.166 38.9851 34.4348 39.4702C29.8498 43.9259 33.718 52.5966 34.6153 54.4321C34.3535 54.871 34.0537 55.286 33.7193 55.6724C33.6441 55.6126 33.5818 55.5381 33.5362 55.4536C32.5242 53.4765 31.7619 51.3813 31.2668 49.2161C30.2261 44.5659 30.9801 40.8398 33.4517 38.4462Z" fill="#FFAEEC" stroke="#FFAEEC" stroke-width="0.64" stroke-miterlimit="10"/>
<path d="M9.28405 25.8983C18.1993 24.7207 31.1183 34.386 31.1183 34.386L32.3573 36.562L32.3202 36.5889C30.3893 37.9205 28.3898 39.1497 26.3298 40.2714C23.9157 41.5924 21.133 42.907 18.6921 43.5239C16.0437 44.2356 13.6117 44.3073 12.0604 43.0542C6.84949 38.8481 0.368855 27.0721 9.28405 25.8983Z" fill="#FBDFD9" stroke="#F4AF9F" stroke-width="0.68096" stroke-miterlimit="10"/>
<path d="M8.47509 29.156H8.45077L8.13077 29.0984L8.06549 29.0868L7.79413 29.0382L7.72245 29.0254L7.46773 28.9768L7.38965 28.964L7.17205 28.9256L7.07605 28.9089L6.88149 28.8744L6.80213 28.8641L6.62165 28.8334L6.53589 28.818L6.35925 28.7873L6.29781 28.7771L6.13653 28.7489L6.06613 28.7374L5.93173 28.7092L5.86773 28.6977L5.18677 28.5825C5.14581 28.6875 5.10869 28.795 5.07541 28.9051V28.9128C5.06133 28.9614 5.04725 29.0113 5.03445 29.06C5.03445 29.0676 5.03445 29.0753 5.03445 29.083C5.02165 29.1355 5.00885 29.1892 4.99733 29.243C4.97301 29.3544 4.95381 29.4683 4.93717 29.5822V29.6014V29.6168C4.93077 29.6628 4.92565 29.7089 4.91925 29.7563V29.7908L4.90389 29.9611L5.04597 29.9854H5.06389L5.16885 30.0033H5.19701L5.32501 30.0251H5.35573L5.77557 30.0968H5.79221L6.01365 30.1352L6.09429 30.1492L6.28629 30.1838L6.38229 30.2004L6.58453 30.235L6.69589 30.2555L6.95189 30.3003L7.01973 30.3118L7.37557 30.3758L7.45109 30.3886L7.74165 30.4411L7.89525 30.468L8.13717 30.5128L8.30869 30.5435L8.55317 30.5883L8.72981 30.6203L9.01653 30.6728L9.16885 30.7009L9.58101 30.7764C11.4204 31.1182 13.654 31.5444 16.0079 32.0385C14.9701 32.7373 13.9927 33.5217 13.0857 34.3835C12.6752 34.7777 12.2989 35.1745 11.9567 35.5739C11.792 35.7676 11.6341 35.9617 11.4831 36.1563L11.4677 36.1768C11.4063 36.2561 11.3474 36.3368 11.2885 36.4174L11.2181 36.5134C11.1644 36.5889 11.1106 36.6644 11.0594 36.74L10.9865 36.8475C10.9365 36.923 10.8866 36.9985 10.8393 37.0728C10.8201 37.1022 10.8034 37.1304 10.7855 37.1598C10.6985 37.2993 10.6153 37.4401 10.5359 37.5796C10.5116 37.6232 10.486 37.6667 10.4629 37.7076C10.4284 37.7704 10.3964 37.8356 10.3631 37.8971L10.2812 38.0571C10.2517 38.116 10.2236 38.1761 10.1954 38.235C10.1673 38.2939 10.1404 38.354 10.1148 38.4142C10.0892 38.4744 10.0661 38.523 10.0431 38.5768C10.0073 38.6612 9.97397 38.7457 9.94069 38.8328C9.92149 38.884 9.90229 38.9339 9.88437 38.9851C9.85109 39.0747 9.81909 39.1656 9.78965 39.2552C9.77557 39.3 9.76277 39.3435 9.74869 39.3832C9.72565 39.4574 9.70389 39.5316 9.68341 39.6059C9.67189 39.6507 9.65909 39.6955 9.64757 39.7403C9.62837 39.8171 9.60917 39.8952 9.59253 39.9732C9.58357 40.0116 9.57461 40.0513 9.56693 40.0897C9.54389 40.2011 9.52213 40.3137 9.50421 40.4251C9.50421 40.4251 9.50421 40.4328 9.50421 40.4366C9.61301 40.5646 9.72309 40.6926 9.83317 40.8206C9.94197 40.9486 10.0508 41.0651 10.1596 41.1841L10.1685 41.1944C10.2761 41.3121 10.3849 41.4273 10.4924 41.54L10.5001 41.5476C10.6101 41.6628 10.7202 41.7742 10.8303 41.8843V41.8728C10.8226 41.7716 10.8188 41.6718 10.8162 41.572V41.4836C10.8162 41.3915 10.8162 41.298 10.8162 41.2059C10.8156 41.1948 10.8156 41.1837 10.8162 41.1726C10.8162 41.0715 10.8303 40.9704 10.8418 40.8692C10.8418 40.8411 10.8482 40.8142 10.8521 40.786C10.8636 40.6977 10.8764 40.6094 10.8917 40.5224C10.8917 40.5083 10.8917 40.4929 10.8981 40.4788C10.9161 40.379 10.9378 40.2792 10.9609 40.1806C10.9673 40.1563 10.9724 40.132 10.9788 40.1064C11.0005 40.0206 11.0236 39.9336 11.0492 39.8504L11.0607 39.8056C11.0914 39.707 11.1234 39.6084 11.158 39.5099C11.1657 39.4907 11.1721 39.4702 11.1797 39.4497C11.2117 39.3627 11.245 39.2769 11.2796 39.1937C11.2843 39.1798 11.2899 39.1661 11.2962 39.1528C11.3359 39.0542 11.3794 38.9556 11.4242 38.8584L11.4447 38.8161C11.4865 38.7308 11.5292 38.6425 11.5727 38.5512C11.5727 38.5396 11.5842 38.5281 11.5906 38.5179C11.6405 38.4193 11.6943 38.322 11.7493 38.226L11.7621 38.203C11.8146 38.1121 11.8684 38.0212 11.9247 37.9304L11.9401 37.9048C12.0621 37.7102 12.1901 37.5195 12.3241 37.3326L12.3356 37.3172C12.4713 37.1278 12.6129 36.9431 12.7605 36.763C14.8085 34.235 17.7756 32.539 17.974 32.434C23.2757 33.586 28.79 34.9838 31.5599 36.3099C31.6635 36.3595 31.7777 36.3833 31.8925 36.379C32.0073 36.3748 32.1194 36.3427 32.2191 36.2856L31.2783 34.6382C25.8831 32.4622 14.2517 30.1992 8.47509 29.156Z" fill="#F4AF9F" stroke="#F4AF9F" stroke-width="0.68096" stroke-linejoin="round"/>
<path d="M18.0098 37.9648L17.9919 37.9828L15.7788 40.1664L12.5276 43.3754C12.6005 43.4189 12.6748 43.4586 12.7503 43.4957L12.8092 43.5252C12.886 43.5623 12.9628 43.5981 13.0421 43.6314C13.1228 43.6647 13.2047 43.6954 13.2866 43.7236L13.3493 43.744C13.43 43.7722 13.5132 43.7978 13.5977 43.8208H13.6117L13.7986 43.8682H13.8076L13.9906 43.9079L18.966 38.9952C19.5368 38.4715 20.2406 38.1149 21.0005 37.9643C21.7604 37.8137 22.5471 37.875 23.2745 38.1415H23.2873L27.5113 39.5828C28.0847 39.2551 28.6249 38.9351 29.1215 38.6317L23.7455 36.8C22.7744 36.451 21.7261 36.375 20.7148 36.5804C19.7035 36.7858 18.7679 37.2646 18.0098 37.9648Z" fill="#F4AF9F" stroke="#F4AF9F" stroke-width="0.68096" stroke-linejoin="round"/>
<path d="M34.7676 35.1797C36.91 34.1886 38.9981 33.0841 41.0229 31.8709C43.3884 30.4629 45.933 28.7323 47.7045 26.9429C47.7045 26.9429 51.3781 26.5141 54.3234 30.5435C59.6226 37.796 55.9797 48.1026 46.4693 45.9035C36.9589 43.7045 34.7676 35.1797 34.7676 35.1797Z" fill="#FFCCF5" stroke="#FFAEEC" stroke-width="0.64" stroke-miterlimit="10"/>
<path d="M54.3234 30.5435C52.7285 30.7175 46.8354 31.5419 42.8149 34.5115C40.7989 34.0123 39.3743 33.8254 38.5103 33.9457L36.8463 34.1774C35.5829 34.8174 34.7663 35.1835 34.7663 35.1835C34.7663 35.1835 34.8316 35.4395 34.989 35.8695L38.701 35.3575C41.4172 34.9735 52.3151 38.994 56.2844 40.5735C56.3138 40.5858 56.3442 40.5957 56.3753 40.603C56.5076 40.1414 56.606 39.6709 56.6697 39.195C55.9682 38.9198 52.694 37.6423 49.1177 36.4251C47.4323 35.8525 45.939 35.3789 44.6377 35.0043C48.8834 32.4327 54.7637 31.9323 54.8405 31.922C54.9447 31.9147 55.0459 31.8836 55.1362 31.8311L55.1503 31.8222C54.8993 31.3805 54.6232 30.9536 54.3234 30.5435Z" fill="#FFAEEC" stroke="#FFAEEC" stroke-width="0.64" stroke-miterlimit="10"/>
<path d="M35.8415 37.0792L35.5202 37.1253C35.7109 37.5272 35.9426 37.974 36.2229 38.4476C42.3912 36.7605 47.8952 44.4956 49.0229 46.2005C49.5333 46.1997 50.0426 46.1539 50.5448 46.0636C50.5314 45.9684 50.4988 45.8769 50.4488 45.7948C49.2612 43.9202 47.8453 42.2004 46.2338 40.6748C42.7496 37.4108 39.158 36.1692 35.8415 37.0792Z" fill="#FFAEEC" stroke="#FFAEEC" stroke-width="0.64" stroke-miterlimit="10"/>
<path d="M37.3045 9.89062C31.7634 16.9729 33.5272 33.0087 33.5272 33.0087L34.7676 35.1847L34.8085 35.1655C36.9366 34.1794 39.011 33.0814 41.0229 31.8759C43.3884 30.4679 45.933 28.7373 47.7045 26.9479C49.668 25.0279 50.9634 22.9799 50.6728 21.001C49.7001 14.3719 42.8457 2.80838 37.3045 9.89062Z" fill="#FBDFD9" stroke="#F4AF9F" stroke-width="0.68096" stroke-miterlimit="10"/>
<path d="M40.5225 10.8481L40.5314 10.8251L40.6441 10.5204L40.6671 10.459C40.6991 10.3707 40.7311 10.2836 40.7631 10.203L40.7887 10.1364C40.8181 10.0545 40.8476 9.97517 40.877 9.89709L40.9052 9.82413L40.982 9.61677L41.0165 9.52589C41.0396 9.46189 41.0626 9.39789 41.0857 9.34029L41.1164 9.26093L41.1804 9.08941L41.2111 9.00749L41.2751 8.83981C41.2828 8.81933 41.2892 8.80013 41.2969 8.78093C41.3173 8.72717 41.3365 8.67725 41.3545 8.62733L41.3801 8.56205C41.3967 8.51597 41.4133 8.47373 41.43 8.43405L41.453 8.37389C41.5682 8.06925 41.6527 7.85037 41.6988 7.73389C41.8101 7.75181 41.9215 7.77485 42.0329 7.80173H42.0469L42.1954 7.84141L42.2172 7.84781L42.3759 7.89645C42.4847 7.93229 42.5922 7.97197 42.6997 8.01677H42.7087H42.7177L42.7317 8.02317L42.8597 8.07821L42.893 8.09357C42.9442 8.11661 42.9954 8.14093 43.0466 8.16653C43.0389 8.18829 43.021 8.23437 42.9954 8.30093L42.989 8.31757L42.9506 8.41741L42.9417 8.44301C42.9263 8.48013 42.9109 8.52237 42.8943 8.57101L42.8828 8.60045C42.8405 8.71309 42.7893 8.84621 42.7317 8.99853V9.01389L42.6511 9.22509C42.6421 9.24941 42.6319 9.27501 42.6229 9.30061C42.6012 9.35949 42.5781 9.42093 42.5538 9.48365L42.5193 9.57453L42.4476 9.76653C42.4348 9.80237 42.422 9.83693 42.4079 9.87277C42.3785 9.95085 42.3477 10.0315 42.317 10.1147L42.294 10.1787L42.166 10.5192L42.1391 10.5908C42.1058 10.6804 42.0713 10.7726 42.0367 10.8673L41.9817 11.0132C41.9535 11.0888 41.9253 11.1656 41.8972 11.2449C41.8767 11.2974 41.8562 11.3524 41.837 11.4075L41.75 11.6417L41.6885 11.8094C41.6553 11.899 41.622 11.9912 41.5887 12.0833L41.5337 12.2241L41.3877 12.6171C40.7477 14.3745 39.9797 16.5172 39.2117 18.7931C40.3417 18.2562 41.5144 17.8144 42.7177 17.4721C43.2655 17.3185 43.7984 17.1961 44.3164 17.1048C44.5724 17.0612 44.8198 17.0241 45.0588 16.9934H45.0857L45.3839 16.9614L45.5017 16.9499L45.7781 16.9281L45.9061 16.9204C45.997 16.9204 46.0866 16.9102 46.1762 16.9076H46.2773C46.4425 16.9076 46.605 16.9076 46.7663 16.9076H46.9148C46.9865 16.9076 47.0581 16.9115 47.1298 16.9192L47.3077 16.9294L47.5049 16.946L47.7007 16.9665C47.7596 16.9665 47.8185 16.9793 47.8773 16.9883C47.9682 16.9998 48.0578 17.0139 48.1474 17.0292L48.3074 17.0574C48.4021 17.074 48.4956 17.0932 48.589 17.1137L48.717 17.1444C48.7925 17.1636 48.8681 17.1816 48.9423 17.202L49.0703 17.2392C49.1471 17.2609 49.2239 17.2852 49.2994 17.3096L49.4133 17.3467C49.5221 17.3838 49.6284 17.4222 49.7333 17.4632H49.7436C49.7999 17.6232 49.8549 17.7832 49.9074 17.9419V17.9521C49.9586 18.107 50.0073 18.2632 50.0546 18.4168V18.4296C50.102 18.5819 50.1455 18.7342 50.1826 18.884V18.8955V18.9019C50.2261 19.0542 50.2671 19.2065 50.3106 19.3576H50.3004C50.2172 19.3 50.134 19.2462 50.0444 19.1937L49.9689 19.1476C49.8895 19.1003 49.8089 19.0555 49.7269 19.012L49.6975 18.9966C49.6066 18.9492 49.5145 18.9057 49.4223 18.8686L49.3468 18.8353C49.2636 18.7995 49.1817 18.7662 49.0985 18.7342C49.0844 18.7342 49.0716 18.724 49.0575 18.7188C48.9615 18.6843 48.8655 18.6523 48.7682 18.6216L48.6965 18.5998C48.6108 18.5742 48.5237 18.5499 48.4405 18.5281L48.3957 18.5166C48.2946 18.4923 48.1935 18.4692 48.0911 18.45L48.0284 18.4372C47.9375 18.4206 47.8466 18.4052 47.7545 18.3924L47.7109 18.3848C47.606 18.3707 47.4997 18.3579 47.3922 18.3476H47.3449C47.2476 18.3387 47.1503 18.331 47.0517 18.3259H47.0133C46.9033 18.3259 46.7919 18.3169 46.6805 18.3144H46.6549C46.55 18.3144 46.4437 18.3144 46.3375 18.3144H46.3081C46.0789 18.3144 45.8498 18.3336 45.6207 18.354H45.6002C45.3685 18.3745 45.1381 18.404 44.9077 18.4385C41.6873 18.9236 38.7266 20.6145 38.5308 20.731C36.8284 25.8817 35.2335 31.3435 34.9698 34.4027C34.9597 34.5171 34.9221 34.6274 34.8601 34.7242C34.7982 34.8209 34.7137 34.9012 34.614 34.9582L33.7077 33.3134C34.5295 27.5227 38.4847 16.3572 40.5225 10.8481Z" fill="#F4AF9F" stroke="#F4AF9F" stroke-width="0.68096" stroke-linejoin="round"/>
<path d="M43.2681 23.5353L43.2924 23.5289L46.2978 22.7315L50.7138 21.5603C50.7138 21.6435 50.7138 21.728 50.7036 21.8163C50.7036 21.8381 50.7036 21.8598 50.7036 21.8816C50.6972 21.9673 50.6882 22.0518 50.6767 22.1376C50.6639 22.2233 50.6486 22.3091 50.6319 22.3936C50.6319 22.4141 50.6229 22.4358 50.6178 22.4563C50.5999 22.5408 50.5807 22.6253 50.5577 22.7123V22.7187C50.541 22.7814 50.5231 22.8467 50.5039 22.9043C50.5047 22.9072 50.5047 22.9103 50.5039 22.9133C50.486 22.9721 50.4655 23.031 50.445 23.0912L43.6854 24.8832C42.94 25.1078 42.2712 25.534 41.7528 26.1147C41.2344 26.6954 40.8866 27.4081 40.7478 28.1741C40.7478 28.1741 40.7478 28.1843 40.7478 28.1881L39.8415 32.5632C39.2681 32.8909 38.7177 33.1929 38.2057 33.4681L39.3577 27.9065C39.546 26.8894 40.0104 25.9437 40.7001 25.1728C41.3898 24.4018 42.2781 23.8354 43.2681 23.5353Z" fill="#F4AF9F" stroke="#F4AF9F" stroke-width="0.68096" stroke-linejoin="round"/>
<path d="M34.4207 34.2696C32.4649 30.8456 30.2863 28.3995 29.5106 28.7387L29.4965 28.7502C29.4908 28.7522 29.4852 28.7548 29.4799 28.7579C28.7925 29.2545 29.7935 32.3726 31.7493 35.7979C33.7052 39.2232 38.8892 46.9339 39.7506 46.7393C39.7556 46.7359 39.7603 46.732 39.7647 46.7278C39.7711 46.727 39.7772 46.7248 39.7826 46.7214C40.3842 46.0737 36.3765 37.6961 34.4207 34.2696Z" fill="#FDEDA5" stroke="#FBDF63" stroke-width="0.68096" stroke-miterlimit="10"/>
<path d="M30.3145 32.1242C31.3869 32.1242 32.2562 31.2549 32.2562 30.1825C32.2562 29.1101 31.3869 28.2407 30.3145 28.2407C29.2421 28.2407 28.3727 29.1101 28.3727 30.1825C28.3727 31.2549 29.2421 32.1242 30.3145 32.1242Z" fill="#FDEDA5" stroke="#FBDF63" stroke-width="0.68096" stroke-miterlimit="10"/>
<path d="M20.6927 22.1057C20.6927 22.1057 21.7909 21.7217 22.4015 22.3617C23.0121 23.0017 28.2741 29.1124 28.2741 29.1124" stroke="#FBDF63" stroke-width="0.68096" stroke-miterlimit="10" stroke-linecap="round"/>
<path d="M28.0591 17.897C28.0591 17.897 27.1746 18.6496 27.4127 19.4983C27.6508 20.3469 30.2517 27.9872 30.2517 27.9872" stroke="#FBDF63" stroke-width="0.68096" stroke-miterlimit="10" stroke-linecap="round"/>
</svg>
