<svg width="64" height="64" viewBox="0 0 64 64" fill="none" xmlns="http://www.w3.org/2000/svg">
<path d="M53.3812 54.2644C56.1748 50.0013 57.6592 45.0137 57.6513 39.9168C57.6513 25.4324 45.9098 13.6909 31.4241 13.6909C16.9383 13.6909 5.19943 25.4324 5.19943 39.9168C5.19145 45.0137 6.67587 50.0013 9.46951 54.2644H53.3812Z" fill="#FDEDA5" stroke="#FBDF63" stroke-width="0.68096" stroke-miterlimit="10"/>
<path d="M58.6318 16.8524C58.6142 16.3184 58.4444 15.8004 58.1423 15.3597C57.8402 14.9189 57.4184 14.5737 56.9266 14.3646C56.4349 14.1556 55.8936 14.0915 55.3666 14.1798C54.8396 14.2682 54.3488 14.5053 53.9521 14.8633H53.4964C53.498 14.4354 53.4014 14.0129 53.2142 13.6281C53.0269 13.2433 52.754 12.9066 52.4163 12.6438C52.0786 12.381 51.6851 12.1992 51.2661 12.1122C50.8472 12.0252 50.4138 12.0354 49.9994 12.142C50.0651 11.7075 50.0403 11.2641 49.9266 10.8396C49.813 10.4152 49.6128 10.0187 49.3388 9.6752C49.0647 9.33167 48.7227 9.04844 48.3341 8.84327C47.9455 8.6381 47.5187 8.5154 47.0804 8.48288C46.6422 8.45035 46.202 8.50869 45.7873 8.65424C45.3727 8.79979 44.9926 9.02942 44.6708 9.32872C44.349 9.62803 44.0926 9.99057 43.9175 10.3936C43.7424 10.7967 43.6524 11.2316 43.6532 11.671C43.6537 11.8951 43.6773 12.1186 43.7236 12.3379C43.5328 12.3065 43.3397 12.2907 43.1463 12.2905C42.4152 12.2914 41.7014 12.5133 41.0988 12.9273C40.4962 13.3412 40.0328 13.9278 39.7697 14.6099C39.3846 14.4318 38.9614 14.3517 38.5379 14.3766C38.1143 14.4014 37.7035 14.5306 37.3419 14.7525C36.9803 14.9744 36.6791 15.2822 36.4651 15.6485C36.2511 16.0149 36.1309 16.4285 36.1153 16.8524H58.6318Z" fill="#B3F2F0" stroke="#81EBEB" stroke-width="0.64" stroke-linejoin="round"/>
<path d="M26.2298 24.8385C26.2119 24.3048 26.0418 23.7873 25.7397 23.347C25.4376 22.9066 25.0159 22.5617 24.5245 22.3529C24.033 22.1441 23.492 22.08 22.9653 22.1682C22.4387 22.2563 21.9481 22.4931 21.5514 22.8507H21.0958C21.0968 22.4812 21.0249 22.1152 20.8842 21.7736C20.7435 21.432 20.5368 21.1215 20.2759 20.8599C20.0151 20.5983 19.7051 20.3908 19.3639 20.2492C19.0227 20.1076 18.6569 20.0347 18.2874 20.0347C18.0555 20.0351 17.8246 20.0648 17.6001 20.123C17.6723 19.6595 17.6415 19.1857 17.5098 18.7354C17.3781 18.2852 17.1488 17.8695 16.8382 17.5179C16.5276 17.1663 16.1433 16.8875 15.7127 16.7014C15.2821 16.5152 14.8157 16.4262 14.3468 16.4407C13.8779 16.4553 13.418 16.573 12.9998 16.7855C12.5815 16.998 12.2153 17.3001 11.927 17.6702C11.6388 18.0404 11.4357 18.4695 11.3322 18.9271C11.2287 19.3846 11.2273 19.8594 11.3281 20.3175C10.5064 20.185 9.66412 20.3392 8.94272 20.7543C8.22132 21.1695 7.66474 21.8202 7.36649 22.5972C7.02862 22.4395 6.6603 22.3578 6.28745 22.3579C5.62071 22.3581 4.97997 22.6166 4.49977 23.0791C4.01957 23.5416 3.73725 24.1722 3.71209 24.8385H26.2298Z" fill="#B3F2F0" stroke="#81EBEB" stroke-width="0.64" stroke-linejoin="round"/>
<path d="M42.2811 5.50391H23.8491V58.5778H42.2811V5.50391Z" fill="#FBDFD9" stroke="#F4AF9F" stroke-width="0.68096" stroke-linejoin="round"/>
<path d="M28.2945 9.2634C28.2945 8.83005 27.9432 8.47876 27.5099 8.47876C27.0765 8.47876 26.7252 8.83005 26.7252 9.2634V13.184C26.7252 13.6174 27.0765 13.9687 27.5099 13.9687C27.9432 13.9687 28.2945 13.6174 28.2945 13.184V9.2634Z" fill="#DAE1EA" stroke="#B9CFDF" stroke-width="0.64" stroke-miterlimit="10"/>
<path d="M33.8497 9.2634C33.8497 8.83005 33.4984 8.47876 33.065 8.47876C32.6317 8.47876 32.2804 8.83005 32.2804 9.2634V13.184C32.2804 13.6174 32.6317 13.9687 33.065 13.9687C33.4984 13.9687 33.8497 13.6174 33.8497 13.184V9.2634Z" fill="#DAE1EA" stroke="#B9CFDF" stroke-width="0.64" stroke-miterlimit="10"/>
<path d="M39.4062 9.2634C39.4062 8.83005 39.0549 8.47876 38.6215 8.47876C38.1882 8.47876 37.8369 8.83005 37.8369 9.2634V13.184C37.8369 13.6174 38.1882 13.9687 38.6215 13.9687C39.0549 13.9687 39.4062 13.6174 39.4062 13.184V9.2634Z" fill="#DAE1EA" stroke="#B9CFDF" stroke-width="0.64" stroke-miterlimit="10"/>
<path d="M28.2945 18.6919C28.2945 18.2585 27.9432 17.9072 27.5099 17.9072C27.0765 17.9072 26.7252 18.2585 26.7252 18.6919V22.6125C26.7252 23.0459 27.0765 23.3971 27.5099 23.3971C27.9432 23.3971 28.2945 23.0459 28.2945 22.6125V18.6919Z" fill="#DAE1EA" stroke="#B9CFDF" stroke-width="0.64" stroke-miterlimit="10"/>
<path d="M33.8497 18.6919C33.8497 18.2585 33.4984 17.9072 33.065 17.9072C32.6317 17.9072 32.2804 18.2585 32.2804 18.6919V22.6125C32.2804 23.0459 32.6317 23.3971 33.065 23.3971C33.4984 23.3971 33.8497 23.0459 33.8497 22.6125V18.6919Z" fill="#DAE1EA" stroke="#B9CFDF" stroke-width="0.64" stroke-miterlimit="10"/>
<path d="M39.4062 18.6919C39.4062 18.2585 39.0549 17.9072 38.6215 17.9072C38.1882 17.9072 37.8369 18.2585 37.8369 18.6919V22.6125C37.8369 23.0459 38.1882 23.3971 38.6215 23.3971C39.0549 23.3971 39.4062 23.0459 39.4062 22.6125V18.6919Z" fill="#FDEDA5" stroke="#FBDF63" stroke-width="0.68096" stroke-miterlimit="10"/>
<path d="M28.2945 28.1191C28.2945 27.6858 27.9432 27.3345 27.5099 27.3345C27.0765 27.3345 26.7252 27.6858 26.7252 28.1191V32.0398C26.7252 32.4731 27.0765 32.8244 27.5099 32.8244C27.9432 32.8244 28.2945 32.4731 28.2945 32.0398V28.1191Z" fill="#DAE1EA" stroke="#B9CFDF" stroke-width="0.64" stroke-miterlimit="10"/>
<path d="M33.8497 28.1191C33.8497 27.6858 33.4984 27.3345 33.065 27.3345C32.6317 27.3345 32.2804 27.6858 32.2804 28.1191V32.0398C32.2804 32.4731 32.6317 32.8244 33.065 32.8244C33.4984 32.8244 33.8497 32.4731 33.8497 32.0398V28.1191Z" fill="#DAE1EA" stroke="#B9CFDF" stroke-width="0.64" stroke-miterlimit="10"/>
<path d="M39.4062 28.1191C39.4062 27.6858 39.0549 27.3345 38.6215 27.3345C38.1882 27.3345 37.8369 27.6858 37.8369 28.1191V32.0398C37.8369 32.4731 38.1882 32.8244 38.6215 32.8244C39.0549 32.8244 39.4062 32.4731 39.4062 32.0398V28.1191Z" fill="#DAE1EA" stroke="#B9CFDF" stroke-width="0.64" stroke-miterlimit="10"/>
<path d="M28.2945 37.5476C28.2945 37.1142 27.9432 36.7629 27.5099 36.7629C27.0765 36.7629 26.7252 37.1142 26.7252 37.5476V41.4682C26.7252 41.9016 27.0765 42.2529 27.5099 42.2529C27.9432 42.2529 28.2945 41.9016 28.2945 41.4682V37.5476Z" fill="#DAE1EA" stroke="#B9CFDF" stroke-width="0.64" stroke-miterlimit="10"/>
<path d="M33.8497 37.5476C33.8497 37.1142 33.4984 36.7629 33.065 36.7629C32.6317 36.7629 32.2804 37.1142 32.2804 37.5476V41.4682C32.2804 41.9016 32.6317 42.2529 33.065 42.2529C33.4984 42.2529 33.8497 41.9016 33.8497 41.4682V37.5476Z" fill="#FDEDA5" stroke="#FBDF63" stroke-width="0.68096" stroke-miterlimit="10"/>
<path d="M39.4062 37.5476C39.4062 37.1142 39.0549 36.7629 38.6215 36.7629C38.1882 36.7629 37.8369 37.1142 37.8369 37.5476V41.4682C37.8369 41.9016 38.1882 42.2529 38.6215 42.2529C39.0549 42.2529 39.4062 41.9016 39.4062 41.4682V37.5476Z" fill="#DAE1EA" stroke="#B9CFDF" stroke-width="0.64" stroke-miterlimit="10"/>
<path d="M28.2945 46.976C28.2945 46.5427 27.9432 46.1914 27.5099 46.1914C27.0765 46.1914 26.7252 46.5427 26.7252 46.976V50.8967C26.7252 51.33 27.0765 51.6813 27.5099 51.6813C27.9432 51.6813 28.2945 51.33 28.2945 50.8967V46.976Z" fill="#DAE1EA" stroke="#B9CFDF" stroke-width="0.64" stroke-miterlimit="10"/>
<path d="M33.8497 46.976C33.8497 46.5427 33.4984 46.1914 33.065 46.1914C32.6317 46.1914 32.2804 46.5427 32.2804 46.976V50.8967C32.2804 51.33 32.6317 51.6813 33.065 51.6813C33.4984 51.6813 33.8497 51.33 33.8497 50.8967V46.976Z" fill="#DAE1EA" stroke="#B9CFDF" stroke-width="0.64" stroke-miterlimit="10"/>
<path d="M39.4062 46.976C39.4062 46.5427 39.0549 46.1914 38.6215 46.1914C38.1882 46.1914 37.8369 46.5427 37.8369 46.976V50.8967C37.8369 51.33 38.1882 51.6813 38.6215 51.6813C39.0549 51.6813 39.4062 51.33 39.4062 50.8967V46.976Z" fill="#DAE1EA" stroke="#B9CFDF" stroke-width="0.64" stroke-miterlimit="10"/>
<path d="M13.1111 40.8H3.71209V58.578H13.1111V40.8Z" fill="#E9E1FF" stroke="#D4C0FF" stroke-width="0.64" stroke-miterlimit="10"/>
<path d="M8.15368 43.561C8.15368 43.1277 7.80238 42.7764 7.36904 42.7764C6.93569 42.7764 6.5844 43.1277 6.5844 43.561V47.4816C6.5844 47.915 6.93569 48.2663 7.36904 48.2663C7.80238 48.2663 8.15368 47.915 8.15368 47.4816V43.561Z" fill="#DAE1EA" stroke="#B9CFDF" stroke-width="0.64" stroke-miterlimit="10"/>
<path d="M8.15368 51.6006C8.15368 51.1672 7.80238 50.8159 7.36904 50.8159C6.93569 50.8159 6.5844 51.1672 6.5844 51.6006V55.5212C6.5844 55.9545 6.93569 56.3058 7.36904 56.3058C7.80238 56.3058 8.15368 55.9545 8.15368 55.5212V51.6006Z" fill="#FDEDA5" stroke="#FBDF63" stroke-width="0.68096" stroke-miterlimit="10"/>
<path d="M29.7588 21.6155H11.4433V58.578H29.7588V21.6155Z" fill="#DAE1EA" stroke="#B9CFDF" stroke-width="0.64" stroke-miterlimit="10"/>
<path d="M29.7588 26.3386H11.4433V27.6135H29.7588V26.3386Z" fill="#B9CFDF" stroke="#B9CFDF" stroke-width="0.64" stroke-miterlimit="10"/>
<path d="M29.7588 30.5166H11.4433V31.7915H29.7588V30.5166Z" fill="#B9CFDF" stroke="#B9CFDF" stroke-width="0.64" stroke-miterlimit="10"/>
<path d="M29.7588 34.6931H11.4433V35.968H29.7588V34.6931Z" fill="#B9CFDF" stroke="#B9CFDF" stroke-width="0.64" stroke-miterlimit="10"/>
<path d="M29.7588 38.8711H11.4433V40.146H29.7588V38.8711Z" fill="#B9CFDF" stroke="#B9CFDF" stroke-width="0.64" stroke-miterlimit="10"/>
<path d="M29.7588 43.0488H11.4433V44.3237H29.7588V43.0488Z" fill="#B9CFDF" stroke="#B9CFDF" stroke-width="0.64" stroke-miterlimit="10"/>
<path d="M29.7588 47.2268H11.4433V48.5017H29.7588V47.2268Z" fill="#B9CFDF" stroke="#B9CFDF" stroke-width="0.64" stroke-miterlimit="10"/>
<path d="M29.7588 51.4048H11.4433V52.6797H29.7588V51.4048Z" fill="#B9CFDF" stroke="#B9CFDF" stroke-width="0.64" stroke-miterlimit="10"/>
<path d="M52.3918 33.9775H39.1617V58.5779H52.3918V33.9775Z" fill="#E9E1FF" stroke="#D4C0FF" stroke-width="0.64" stroke-miterlimit="10"/>
<path d="M49.8445 36.7629H41.7076C41.3555 36.7629 41.0701 37.0483 41.0701 37.4004C41.0701 37.7524 41.3555 38.0378 41.7076 38.0378H49.8445C50.1966 38.0378 50.482 37.7524 50.482 37.4004C50.482 37.0483 50.1966 36.7629 49.8445 36.7629Z" fill="#D4C0FF" stroke="#D4C0FF" stroke-width="0.64" stroke-miterlimit="10"/>
<path d="M49.8445 40.1357H41.7076C41.3555 40.1357 41.0701 40.4211 41.0701 40.7732C41.0701 41.1252 41.3555 41.4106 41.7076 41.4106H49.8445C50.1966 41.4106 50.482 41.1252 50.482 40.7732C50.482 40.4211 50.1966 40.1357 49.8445 40.1357Z" fill="#D4C0FF" stroke="#D4C0FF" stroke-width="0.64" stroke-miterlimit="10"/>
<path d="M49.8445 43.5085H41.7076C41.3555 43.5085 41.0701 43.7939 41.0701 44.146C41.0701 44.498 41.3555 44.7834 41.7076 44.7834H49.8445C50.1966 44.7834 50.482 44.498 50.482 44.146C50.482 43.7939 50.1966 43.5085 49.8445 43.5085Z" fill="#D4C0FF" stroke="#D4C0FF" stroke-width="0.64" stroke-miterlimit="10"/>
<path d="M49.8445 46.8813H41.7076C41.3555 46.8813 41.0701 47.1667 41.0701 47.5188C41.0701 47.8708 41.3555 48.1562 41.7076 48.1562H49.8445C50.1966 48.1562 50.482 47.8708 50.482 47.5188C50.482 47.1667 50.1966 46.8813 49.8445 46.8813Z" fill="#D4C0FF" stroke="#D4C0FF" stroke-width="0.64" stroke-miterlimit="10"/>
<path d="M49.8445 50.2542H41.7076C41.3555 50.2542 41.0701 50.5395 41.0701 50.8916C41.0701 51.2436 41.3555 51.529 41.7076 51.529H49.8445C50.1966 51.529 50.482 51.2436 50.482 50.8916C50.482 50.5395 50.1966 50.2542 49.8445 50.2542Z" fill="#D4C0FF" stroke="#D4C0FF" stroke-width="0.64" stroke-miterlimit="10"/>
<path d="M49.8445 53.627H41.7076C41.3555 53.627 41.0701 53.9123 41.0701 54.2644C41.0701 54.6164 41.3555 54.9018 41.7076 54.9018H49.8445C50.1966 54.9018 50.482 54.6164 50.482 54.2644C50.482 53.9123 50.1966 53.627 49.8445 53.627Z" fill="#D4C0FF" stroke="#D4C0FF" stroke-width="0.64" stroke-miterlimit="10"/>
<path d="M60.2497 44.3237H52.3918V58.5778H60.2497V44.3237Z" fill="#DAE1EA" stroke="#B9CFDF" stroke-width="0.64" stroke-miterlimit="10"/>
<path d="M57.106 46.976C57.106 46.5427 56.7547 46.1914 56.3214 46.1914C55.888 46.1914 55.5367 46.5427 55.5367 46.976V50.8967C55.5367 51.33 55.888 51.6813 56.3214 51.6813C56.7547 51.6813 57.106 51.33 57.106 50.8967V46.976Z" fill="#FDEDA5" stroke="#FBDF63" stroke-width="0.68096" stroke-miterlimit="10"/>
</svg>
