<svg width="64" height="64" viewBox="0 0 64 64" fill="none" xmlns="http://www.w3.org/2000/svg">
<path d="M6.51115 11.7323V48.7589C6.51115 49.392 6.63588 50.019 6.87821 50.6039C7.12055 51.1888 7.47573 51.7203 7.92349 52.1679C8.37125 52.6156 8.90281 52.9706 9.4878 53.2128C10.0728 53.455 10.6998 53.5795 11.3329 53.5794H52.9329C53.5661 53.5795 54.193 53.455 54.778 53.2128C55.363 52.9706 55.8946 52.6156 56.3423 52.1679C56.7901 51.7203 57.1453 51.1888 57.3876 50.6039C57.6299 50.019 57.7547 49.392 57.7547 48.7589V11.7323C57.7547 11.0992 57.6299 10.4723 57.3876 9.88733C57.1453 9.3024 56.7901 8.77094 56.3423 8.3233C55.8946 7.87566 55.363 7.52061 54.778 7.27844C54.193 7.03626 53.5661 6.9117 52.9329 6.91187H11.3329C10.6998 6.9117 10.0728 7.03626 9.4878 7.27844C8.90281 7.52061 8.37125 7.87566 7.92349 8.3233C7.47573 8.77094 7.12055 9.3024 6.87821 9.88733C6.63588 10.4723 6.51115 11.0992 6.51115 11.7323Z" fill="#E9E1FF" stroke="#D4C0FF" stroke-width="0.64" stroke-miterlimit="10"/>
<path d="M6.51115 11.7323V16.7039H57.7547V11.7323C57.7547 11.0992 57.6299 10.4723 57.3876 9.88733C57.1453 9.3024 56.7901 8.77094 56.3423 8.3233C55.8946 7.87566 55.363 7.52061 54.778 7.27844C54.193 7.03626 53.5661 6.9117 52.9329 6.91187H11.3329C10.6998 6.9117 10.0728 7.03626 9.4878 7.27844C8.90281 7.52061 8.37125 7.87566 7.92349 8.3233C7.47573 8.77094 7.12055 9.3024 6.87821 9.88733C6.63588 10.4723 6.51115 11.0992 6.51115 11.7323Z" fill="#B3F2F0" stroke="#81EBEB" stroke-width="0.64" stroke-linejoin="round"/>
<path d="M12.1624 12.7372C12.677 12.7372 13.0942 12.32 13.0942 11.8054C13.0942 11.2907 12.677 10.8735 12.1624 10.8735C11.6477 10.8735 11.2305 11.2907 11.2305 11.8054C11.2305 12.32 11.6477 12.7372 12.1624 12.7372Z" fill="#FBDFD9" stroke="#F4AF9F" stroke-width="0.68096" stroke-miterlimit="10"/>
<path d="M17.3118 12.7372C17.8264 12.7372 18.2436 12.32 18.2436 11.8054C18.2436 11.2907 17.8264 10.8735 17.3118 10.8735C16.7972 10.8735 16.38 11.2907 16.38 11.8054C16.38 12.32 16.7972 12.7372 17.3118 12.7372Z" fill="#87FFD6" stroke="#00FAB4" stroke-width="0.68096" stroke-miterlimit="10"/>
<path d="M22.4612 12.7372C22.9759 12.7372 23.3931 12.32 23.3931 11.8054C23.3931 11.2907 22.9759 10.8735 22.4612 10.8735C21.9466 10.8735 21.5294 11.2907 21.5294 11.8054C21.5294 12.32 21.9466 12.7372 22.4612 12.7372Z" fill="#FDEDA5" stroke="#FBDF63" stroke-width="0.68096" stroke-miterlimit="10"/>
<path d="M41.5691 31.3394H51.6785C52.2441 31.3394 52.7025 30.8809 52.7025 30.3154V21.9058C52.7025 21.3402 52.2441 20.8818 51.6785 20.8818H41.5691C41.0035 20.8818 40.5451 21.3402 40.5451 21.9058V30.3154C40.5451 30.8809 41.0035 31.3394 41.5691 31.3394Z" fill="#D4C0FF" stroke="#D4C0FF" stroke-width="0.64" stroke-miterlimit="10"/>
<path d="M10.5214 36.1868H34.4023C34.9679 36.1868 35.4263 35.7283 35.4263 35.1628V21.9058C35.4263 21.3403 34.9679 20.8818 34.4023 20.8818L10.5214 20.8818C9.95584 20.8818 9.49738 21.3403 9.49738 21.9058V35.1628C9.49738 35.7283 9.95584 36.1868 10.5214 36.1868Z" fill="#D4C0FF" stroke="#D4C0FF" stroke-width="0.64" stroke-miterlimit="10"/>
<path d="M41.5691 49.4451H51.6785C52.2441 49.4451 52.7025 48.9866 52.7025 48.4211V40.0115C52.7025 39.4459 52.2441 38.9875 51.6785 38.9875H41.5691C41.0035 38.9875 40.5451 39.4459 40.5451 40.0115V48.4211C40.5451 48.9866 41.0035 49.4451 41.5691 49.4451Z" fill="#D4C0FF" stroke="#D4C0FF" stroke-width="0.64" stroke-miterlimit="10"/>
<path d="M41.5691 36.1868H51.6785C52.2441 36.1868 52.7025 35.7283 52.7025 35.1628C52.7025 34.5972 52.2441 34.1388 51.6785 34.1388H41.5691C41.0035 34.1388 40.5451 34.5972 40.5451 35.1628C40.5451 35.7283 41.0035 36.1868 41.5691 36.1868Z" fill="#D4C0FF" stroke="#D4C0FF" stroke-width="0.64" stroke-miterlimit="10"/>
<path d="M20.6308 47.397H10.5214C9.95586 47.397 9.4974 47.8554 9.4974 48.421C9.4974 48.9865 9.95586 49.445 10.5214 49.445H20.6308C21.1964 49.445 21.6548 48.9865 21.6548 48.421C21.6548 47.8554 21.1964 47.397 20.6308 47.397Z" fill="#D4C0FF" stroke="#D4C0FF" stroke-width="0.64" stroke-miterlimit="10"/>
<path d="M34.4024 47.397H30.3717C29.8061 47.397 29.3477 47.8554 29.3477 48.421C29.3477 48.9865 29.8061 49.445 30.3717 49.445H34.4024C34.9679 49.445 35.4264 48.9865 35.4264 48.421C35.4264 47.8554 34.9679 47.397 34.4024 47.397Z" fill="#D4C0FF" stroke="#D4C0FF" stroke-width="0.64" stroke-miterlimit="10"/>
<path d="M14.5521 42.9951H10.5214C9.95586 42.9951 9.4974 43.4536 9.4974 44.0191C9.4974 44.5847 9.95586 45.0431 10.5214 45.0431H14.5521C15.1177 45.0431 15.5761 44.5847 15.5761 44.0191C15.5761 43.4536 15.1177 42.9951 14.5521 42.9951Z" fill="#D4C0FF" stroke="#D4C0FF" stroke-width="0.64" stroke-miterlimit="10"/>
<path d="M23.4532 42.9951H19.4225C18.857 42.9951 18.3985 43.4536 18.3985 44.0191C18.3985 44.5847 18.857 45.0431 19.4225 45.0431H23.4532C24.0188 45.0431 24.4772 44.5847 24.4772 44.0191C24.4772 43.4536 24.0188 42.9951 23.4532 42.9951Z" fill="#D4C0FF" stroke="#D4C0FF" stroke-width="0.64" stroke-miterlimit="10"/>
<path d="M26.5252 48.421C26.5252 47.8554 26.0668 47.397 25.5012 47.397C24.9357 47.397 24.4772 47.8554 24.4772 48.421C24.4772 48.9865 24.9357 49.445 25.5012 49.445C26.0668 49.445 26.5252 48.9865 26.5252 48.421Z" fill="#D4C0FF" stroke="#D4C0FF" stroke-width="0.64" stroke-miterlimit="10"/>
<path d="M31.114 45.6819C31.114 45.6819 37.0955 44.7078 40.1841 47.7964C41.9646 49.5769 42.3947 52.3174 42.4408 54.3244C42.4511 54.7249 42.6175 55.1054 42.9044 55.385C43.1914 55.6645 43.5762 55.8209 43.9768 55.8207H44.4632C44.6216 55.8211 44.7734 55.8842 44.8855 55.9962C44.9975 56.1082 45.0606 56.2601 45.0609 56.4185C45.0606 56.5769 44.9975 56.7288 44.8855 56.8408C44.7734 56.9528 44.6216 57.0159 44.4632 57.0163H40.6116V57.0099C38.6084 57.0675 35.2804 56.8076 33.2286 54.7558C30.14 51.6646 31.114 45.6819 31.114 45.6819Z" fill="#FDEDA5" stroke="#FBDF63" stroke-width="0.68096" stroke-miterlimit="10"/>
<path d="M17.0507 38.1721C20.6564 41.7779 24.2686 44.7219 27.2536 46.6201C28.7256 47.5545 30.044 48.2329 31.1345 48.6092L33.9992 45.7446C33.6228 44.6553 32.9444 43.3356 32.01 41.8649C30.1156 38.8799 27.1716 35.2678 23.562 31.662C16.0254 24.1254 8.45803 19.4739 6.65835 21.2735C4.85867 23.0732 9.51915 30.6355 17.0507 38.1721Z" fill="#FBDFD9" stroke="#F4AF9F" stroke-width="0.68096" stroke-miterlimit="10"/>
<path d="M27.2536 46.6148C28.7256 47.5492 30.044 48.2276 31.1345 48.6039L33.9992 45.7393C33.6228 44.65 32.9444 43.3303 32.01 41.8596L27.2536 46.6148Z" fill="#B3F2F0" stroke="#81EBEB" stroke-width="0.64" stroke-linejoin="round"/>
<path d="M17.0507 38.1721C20.6564 41.7779 24.2686 44.7219 27.2536 46.6201C28.7256 47.5545 30.044 48.2329 31.1345 48.6092L33.9992 45.7446C33.6228 44.6553 32.9444 43.3356 32.01 41.8649C30.1156 38.8799 27.1716 35.2678 23.562 31.662C16.0254 24.1254 8.45803 19.4739 6.65835 21.2735C4.85867 23.0732 9.51915 30.6355 17.0507 38.1721Z" stroke="#F4AF9F" stroke-width="0.68096" stroke-miterlimit="10"/>
</svg>
