<svg width="64" height="64" viewBox="0 0 64 64" fill="none" xmlns="http://www.w3.org/2000/svg">
<path d="M34.2567 40.7581H29.6026V49.0691H34.2567V40.7581Z" fill="#FFE8C8"/>
<path d="M33.9367 41.0782V48.7493H29.9226V41.0782H33.9367ZM34.5767 40.4382H29.2826V49.3893H34.5767V40.4382Z" fill="#FDD9B4"/>
<path d="M31.9744 40.4382H29.3274V49.3893H31.9744V40.4382Z" fill="#FDD9B4"/>
<path d="M33.6896 4.43815L40.0679 17.3661L54.3296 19.4385C54.6951 19.4915 55.0384 19.6458 55.3207 19.8838C55.603 20.1218 55.8131 20.434 55.9273 20.7852C56.0414 21.1364 56.055 21.5125 55.9665 21.871C55.878 22.2295 55.691 22.5561 55.4266 22.8138L45.106 32.8733L47.538 47.0813C47.6001 47.4452 47.5593 47.8191 47.4201 48.161C47.2809 48.5028 47.0489 48.7989 46.7502 49.0158C46.4516 49.2327 46.0982 49.3618 45.7301 49.3884C45.3619 49.415 44.9937 49.3382 44.6669 49.1665L31.9104 42.4516L19.154 49.1575C18.8272 49.3301 18.4587 49.4076 18.0901 49.3814C17.7215 49.3552 17.3677 49.2262 17.0686 49.0092C16.7696 48.7921 16.5374 48.4956 16.3983 48.1533C16.2592 47.811 16.2188 47.4365 16.2816 47.0724L18.7136 32.8644L8.3994 22.8087C8.13496 22.5509 7.94796 22.2242 7.85954 21.8656C7.77113 21.507 7.78483 21.1308 7.8991 20.7796C8.01338 20.4284 8.22366 20.1161 8.50616 19.8782C8.78866 19.6403 9.13211 19.4862 9.49764 19.4333L23.7594 17.361L30.1376 4.43303C30.3009 4.10096 30.554 3.82136 30.8682 3.626C31.1825 3.43063 31.5452 3.32735 31.9152 3.32788C32.2853 3.32842 32.6477 3.43275 32.9614 3.62901C33.275 3.82528 33.5274 4.10562 33.6896 4.43815Z" fill="#D6FFFF"/>
<path d="M40.0628 17.3611L33.6896 4.43818C33.5282 4.10448 33.2753 3.82356 32.9602 3.6282C32.6452 3.43284 32.2811 3.33108 31.9104 3.33482V27.802L40.0628 17.3611Z" fill="#D4F1FF"/>
<path d="M45.1008 32.8681L55.4215 22.8086C55.6851 22.5559 55.8727 22.2345 55.9632 21.8807C56.0537 21.5269 56.0434 21.1549 55.9335 20.8066L31.9104 27.8018L45.1008 32.8681Z" fill="#D4F1FF"/>
<path d="M46.7559 49.0026L31.9079 27.802V42.4516L44.6644 49.1575C44.9917 49.3331 45.3622 49.4118 45.7327 49.3844C46.1031 49.3569 46.458 49.2245 46.7559 49.0026Z" fill="#D4F1FF"/>
<path d="M31.9104 27.802L18.7264 32.8682L16.2944 47.0762C16.2294 47.4389 16.2683 47.8125 16.4064 48.154C16.5446 48.4955 16.7764 48.791 17.0752 49.0065L31.9104 27.802Z" fill="#D4F1FF"/>
<path d="M7.89124 20.8068L31.9104 27.802L23.7581 17.3611L9.49764 19.4334C9.12645 19.4844 8.77773 19.641 8.49295 19.8845C8.20817 20.1279 7.99932 20.4481 7.89124 20.8068Z" fill="#D4F1FF"/>
<path d="M33.6896 4.43815L40.0679 17.3661L54.3296 19.4385C54.6951 19.4915 55.0384 19.6458 55.3207 19.8838C55.603 20.1218 55.8131 20.434 55.9273 20.7852C56.0414 21.1364 56.055 21.5125 55.9665 21.871C55.878 22.2295 55.691 22.5561 55.4266 22.8138L45.106 32.8733L47.538 47.0813C47.6001 47.4452 47.5593 47.8191 47.4201 48.161C47.2809 48.5028 47.0489 48.7989 46.7502 49.0158C46.4516 49.2327 46.0982 49.3618 45.7301 49.3884C45.3619 49.415 44.9937 49.3382 44.6669 49.1665L31.9104 42.4516L19.154 49.1575C18.8272 49.3301 18.4587 49.4076 18.0901 49.3814C17.7215 49.3552 17.3677 49.2263 17.0686 49.0092C16.7696 48.7921 16.5374 48.4956 16.3983 48.1533C16.2592 47.811 16.2188 47.4365 16.2816 47.0724L18.7136 32.8644L8.3994 22.8087C8.13496 22.5509 7.94796 22.2242 7.85954 21.8656C7.77113 21.507 7.78483 21.1308 7.8991 20.7796C8.01338 20.4284 8.22366 20.1161 8.50616 19.8782C8.78866 19.6403 9.13211 19.4862 9.49764 19.4333L23.7594 17.361L30.1376 4.43303C30.3009 4.10096 30.554 3.82136 30.8682 3.626C31.1825 3.43063 31.5452 3.32735 31.9152 3.32788C32.2853 3.32842 32.6477 3.43275 32.9614 3.62901C33.275 3.82528 33.5274 4.10562 33.6896 4.43815Z" stroke="#D4F1FF" stroke-width="0.64" stroke-miterlimit="10"/>
<path d="M18.5673 8.64563C18.1764 8.1135 17.4281 7.99901 16.896 8.38989C16.3639 8.78078 16.2494 9.52903 16.6402 10.0612L20.3715 15.1407C20.7624 15.6728 21.5107 15.7873 22.0428 15.3964C22.5749 15.0056 22.6894 14.2573 22.2985 13.7252L18.5673 8.64563Z" fill="#D6FFFF" stroke="#D4F1FF" stroke-width="0.64" stroke-miterlimit="10"/>
<path d="M8.5755 35.3313C7.94862 35.5386 7.6085 36.2149 7.81582 36.8417C8.02314 37.4686 8.69939 37.8087 9.32626 37.6014L15.3102 35.6224C15.9371 35.4151 16.2772 34.7388 16.0699 34.112C15.8626 33.4851 15.1863 33.145 14.5595 33.3523L8.5755 35.3313Z" fill="#D6FFFF" stroke="#D4F1FF" stroke-width="0.64" stroke-miterlimit="10"/>
<path d="M54.6373 37.3658C55.2663 37.5665 55.9389 37.2194 56.1397 36.5903C56.3404 35.9613 55.9932 35.2887 55.3642 35.0879L49.3599 33.1717C48.7309 32.971 48.0582 33.3181 47.8575 33.9472C47.6567 34.5762 48.0039 35.2488 48.6329 35.4496L54.6373 37.3658Z" fill="#D6FFFF" stroke="#D4F1FF" stroke-width="0.64" stroke-miterlimit="10"/>
<path d="M47.0351 9.90349C47.4204 9.36729 47.2981 8.62028 46.7619 8.23499C46.2257 7.8497 45.4787 7.97202 45.0934 8.50822L41.4155 13.6266C41.0302 14.1627 41.1525 14.9098 41.6887 15.295C42.2249 15.6803 42.9719 15.558 43.3572 15.0218L47.0351 9.90349Z" fill="#D6FFFF" stroke="#D4F1FF" stroke-width="0.64" stroke-miterlimit="10"/>
<path d="M49.62 6.22453C50.0053 5.68834 49.883 4.94133 49.3468 4.55603C48.8106 4.17074 48.0636 4.29307 47.6783 4.82926C47.293 5.36545 47.4153 6.11246 47.9515 6.49776C48.4877 6.88305 49.2347 6.76072 49.62 6.22453Z" fill="#D6FFFF" stroke="#D4F1FF" stroke-width="0.64" stroke-miterlimit="10"/>
<path d="M15.8229 6.30559C16.2082 5.76939 16.0859 5.02238 15.5497 4.63709C15.0135 4.2518 14.2665 4.37412 13.8812 4.91032C13.4959 5.44651 13.6182 6.19352 14.1544 6.57881C14.6906 6.96411 15.4376 6.84178 15.8229 6.30559Z" fill="#D6FFFF" stroke="#D4F1FF" stroke-width="0.64" stroke-miterlimit="10"/>
<path d="M5.58338 38.6003C5.96868 38.0641 5.84635 37.3171 5.31016 36.9318C4.77396 36.5465 4.02695 36.6688 3.64166 37.205C3.25637 37.7412 3.37869 38.4882 3.91489 38.8735C4.45108 39.2588 5.19809 39.1365 5.58338 38.6003Z" fill="#D6FFFF" stroke="#D4F1FF" stroke-width="0.64" stroke-miterlimit="10"/>
<path d="M60.3896 38.3346C60.7749 37.7984 60.6526 37.0514 60.1164 36.6661C59.5802 36.2808 58.8332 36.4032 58.4479 36.9394C58.0626 37.4756 58.1849 38.2226 58.7211 38.6079C59.2573 38.9932 60.0043 38.8708 60.3896 38.3346Z" fill="#D6FFFF" stroke="#D4F1FF" stroke-width="0.64" stroke-miterlimit="10"/>
<path d="M20.3136 60.2718V52.7621C20.3136 51.4848 20.8207 50.2598 21.7233 49.3562C22.626 48.4526 23.8505 47.9442 25.1277 47.9429H38.6957C39.9721 47.9442 41.1958 48.4519 42.0983 49.3544C43.0008 50.2569 43.5084 51.4806 43.5098 52.7569V60.2667L20.3136 60.2718Z" fill="#FFE8C8"/>
<path d="M38.6932 48.2679C39.8846 48.2693 41.0269 48.7432 41.8695 49.5857C42.712 50.4282 43.1859 51.5705 43.1872 52.762V59.9518H20.6336V52.762C20.635 51.5705 21.1089 50.4282 21.9514 49.5857C22.7939 48.7432 23.9362 48.2693 25.1277 48.2679H38.6957H38.6932ZM38.6957 47.6279H25.1277C23.7661 47.6279 22.4602 48.1688 21.4974 49.1317C20.5345 50.0945 19.9936 51.4004 19.9936 52.762V60.5918H43.8272V52.762C43.8272 51.4004 43.2863 50.0945 42.3235 49.1317C41.3607 48.1688 40.0548 47.6279 38.6932 47.6279H38.6957Z" fill="#FDD9B4"/>
<path d="M19.4496 60.3038C19.211 60.3038 18.9821 60.209 18.8134 60.0403C18.6446 59.8715 18.5498 59.6426 18.5498 59.404C18.5498 59.1653 18.6446 58.9365 18.8134 58.7677C18.9821 58.599 19.211 58.5042 19.4496 58.5042H44.3712C44.6099 58.5042 44.8388 58.599 45.0075 58.7677C45.1763 58.9365 45.2711 59.1653 45.2711 59.404C45.2711 59.6426 45.1763 59.8715 45.0075 60.0403C44.8388 60.209 44.6099 60.3038 44.3712 60.3038H19.4496Z" fill="#DAE1EA"/>
<path d="M44.3712 58.8229C44.525 58.8229 44.6725 58.884 44.7812 58.9927C44.89 59.1014 44.9511 59.2489 44.9511 59.4027C44.9511 59.5565 44.89 59.704 44.7812 59.8127C44.6725 59.9215 44.525 59.9825 44.3712 59.9825H19.4496C19.2959 59.9825 19.1484 59.9215 19.0396 59.8127C18.9309 59.704 18.8698 59.5565 18.8698 59.4027C18.8698 59.2489 18.9309 59.1014 19.0396 58.9927C19.1484 58.884 19.2959 58.8229 19.4496 58.8229H44.3712ZM44.3712 58.1829H19.4496C19.2894 58.1829 19.1308 58.2144 18.9828 58.2757C18.8348 58.337 18.7004 58.4269 18.5871 58.5401C18.4738 58.6534 18.384 58.7879 18.3227 58.9359C18.2613 59.0839 18.2298 59.2425 18.2298 59.4027C18.2298 59.5629 18.2613 59.7215 18.3227 59.8695C18.384 60.0175 18.4738 60.152 18.5871 60.2653C18.7004 60.3785 18.8348 60.4684 18.9828 60.5297C19.1308 60.591 19.2894 60.6225 19.4496 60.6225H44.3712C44.6948 60.6225 45.005 60.494 45.2338 60.2653C45.4626 60.0365 45.5911 59.7262 45.5911 59.4027C45.5912 59.2425 45.5598 59.0838 45.4986 58.9357C45.4373 58.7876 45.3475 58.6531 45.2342 58.5398C45.1209 58.4265 44.9863 58.3366 44.8382 58.2754C44.6902 58.2141 44.5315 58.1827 44.3712 58.1829Z" fill="#B9CFDF"/>
<path d="M25.6679 55.8058C25.2346 55.8053 24.8148 55.6545 24.4803 55.379C24.1458 55.1036 23.9172 54.7206 23.8336 54.2954C23.8107 54.1769 23.7992 54.0564 23.7991 53.9357V52.8247C23.7994 52.329 23.9964 51.8537 24.3467 51.5031C24.6971 51.1526 25.1722 50.9553 25.6679 50.9546H38.1517C38.5318 50.9556 38.9027 51.0721 39.2151 51.2886C39.5276 51.505 39.7669 51.8113 39.9015 52.1668C39.9817 52.3777 40.0225 52.6016 40.0218 52.8272V53.9383C40.0211 54.434 39.8239 54.9093 39.4733 55.2599C39.1228 55.6104 38.6475 55.8077 38.1517 55.8084L25.6679 55.8058Z" fill="#DAE1EA"/>
<path d="M38.1517 51.2709C38.4665 51.2715 38.7736 51.3677 39.0326 51.5467C39.2915 51.7256 39.49 51.9789 39.602 52.2731C39.6683 52.4481 39.7022 52.6338 39.7018 52.8209V53.932C39.7011 54.3429 39.5376 54.7368 39.247 55.0273C38.9565 55.3179 38.5626 55.4814 38.1517 55.4821H25.6679C25.2573 55.4807 24.864 55.3169 24.5738 55.0265C24.2836 54.736 24.1201 54.3426 24.1191 53.932V52.8209C24.1194 52.4102 24.2827 52.0163 24.573 51.7257C24.8634 51.4351 25.2571 51.2715 25.6679 51.2709H38.1517ZM38.1517 50.6309H25.6679C25.0873 50.6312 24.5305 50.8621 24.1201 51.2728C23.7096 51.6835 23.4791 52.2403 23.4791 52.8209V53.932C23.4791 54.5126 23.7096 55.0695 24.1201 55.4802C24.5305 55.8908 25.0873 56.1217 25.6679 56.1221H38.1517C38.4393 56.1226 38.7242 56.0664 38.9901 55.9568C39.256 55.8472 39.4977 55.6863 39.7015 55.4833C39.9052 55.2803 40.0669 55.0392 40.1775 54.7736C40.288 54.5081 40.3451 54.2234 40.3456 53.9358V52.8248C40.3463 52.5365 40.29 52.2509 40.18 51.9844C40.07 51.7179 39.9084 51.4758 39.7046 51.2719C39.5007 51.0681 39.2586 50.9065 38.9921 50.7965C38.7256 50.6865 38.44 50.6302 38.1517 50.6309Z" fill="#B9CFDF"/>
<path d="M39.7863 52.1245L28.4621 55.9721H26.0621C25.5829 55.9721 25.1185 55.8054 24.7487 55.5007C24.3788 55.196 24.1263 54.7721 24.0346 54.3017L34.3783 50.7869H37.8509C38.2712 50.7866 38.6816 50.9145 39.0274 51.1535C39.3732 51.3925 39.6379 51.7312 39.7863 52.1245Z" fill="white"/>
<path d="M38.1517 51.2709C38.4665 51.2715 38.7736 51.3677 39.0326 51.5467C39.2915 51.7256 39.49 51.9789 39.602 52.2731C39.6683 52.4481 39.7022 52.6338 39.7018 52.8209V53.932C39.7011 54.3429 39.5376 54.7368 39.247 55.0273C38.9565 55.3179 38.5626 55.4814 38.1517 55.4821H25.6679C25.2573 55.4807 24.864 55.3169 24.5738 55.0265C24.2836 54.736 24.1201 54.3426 24.1191 53.932V52.8209C24.1194 52.4102 24.2827 52.0163 24.573 51.7257C24.8634 51.4351 25.2571 51.2715 25.6679 51.2709H38.1517ZM38.1517 50.6309H25.6679C25.0873 50.6312 24.5305 50.8621 24.1201 51.2728C23.7096 51.6835 23.4791 52.2403 23.4791 52.8209V53.932C23.4791 54.5126 23.7096 55.0695 24.1201 55.4802C24.5305 55.8908 25.0873 56.1217 25.6679 56.1221H38.1517C38.4393 56.1226 38.7242 56.0664 38.9901 55.9568C39.256 55.8472 39.4977 55.6863 39.7015 55.4833C39.9052 55.2803 40.0669 55.0392 40.1775 54.7736C40.288 54.5081 40.3451 54.2234 40.3456 53.9358V52.8248C40.3463 52.5365 40.29 52.2509 40.18 51.9844C40.07 51.7179 39.9084 51.4758 39.7046 51.2719C39.5007 51.0681 39.2586 50.9065 38.9921 50.7965C38.7256 50.6865 38.44 50.6302 38.1517 50.6309Z" fill="#B9CFDF"/>
</svg>
