<svg width="64" height="64" viewBox="0 0 64 64" fill="none" xmlns="http://www.w3.org/2000/svg">
<path d="M5.37604 56.3854H27.817L29.8215 58.4449H32.0436V53.8369C32.0436 51.1898 29.1354 50.1441 26.0634 49.8164C23.5034 49.5438 20.1754 50.8954 16.2586 51.4804C12.3418 52.0654 10.0826 51.9706 10.0826 51.9706L8.02308 56.3854" fill="#FFE8C8"/>
<path d="M5.37604 56.3854H27.817L29.8215 58.4449H32.0436V53.8369C32.0436 51.1898 29.1354 50.1441 26.0634 49.8164C23.5034 49.5438 20.1754 50.8954 16.2586 51.4804C12.3418 52.0654 10.0826 51.9706 10.0826 51.9706L8.02308 56.3854" stroke="#FDD9B4" stroke-width="0.64" stroke-linecap="round" stroke-linejoin="round"/>
<path d="M58.7111 56.3854H36.2701L34.2656 58.4449H32.0435V53.8369C32.0435 51.1898 34.9517 50.1441 38.0237 49.8164C40.5837 49.5438 43.9117 50.8954 47.8285 51.4804C51.7453 52.0654 54.0045 51.9706 54.0045 51.9706L56.064 56.3828" fill="#FFE8C8"/>
<path d="M58.7111 56.3854H36.2701L34.2656 58.4449H32.0435V53.8369C32.0435 51.1898 34.9517 50.1441 38.0237 49.8164C40.5837 49.5438 43.9117 50.8954 47.8285 51.4804C51.7453 52.0654 54.0045 51.9706 54.0045 51.9706L56.064 56.3828" stroke="#FDD9B4" stroke-width="0.64" stroke-linecap="round" stroke-linejoin="round"/>
<path d="M45.3338 18.08L32.0435 17.9636V16.6132C32.0435 16.5888 32.0435 16.5645 32.0435 16.5389C31.4375 16.9658 30.7485 17.2606 30.0212 17.4043C29.2939 17.548 28.5446 17.5373 27.8217 17.373C27.0988 17.2087 26.4185 16.8944 25.8248 16.4505C25.2311 16.0065 24.7372 15.4429 24.3752 14.796C24.0132 14.149 23.7911 13.4333 23.7232 12.6951C23.6554 11.9569 23.7433 11.2126 23.9814 10.5106C24.2195 9.80849 24.6023 9.16425 25.1052 8.61955C25.608 8.07485 26.2197 7.64182 26.9005 7.34852C25.2489 6.32032 23.3525 5.75219 21.4077 5.70296C19.4628 5.65373 17.5401 6.12517 15.8386 7.06849C14.1371 8.01181 12.7186 9.39273 11.73 11.0683C10.7414 12.7439 10.2186 14.6532 10.2156 16.5987C10.2127 18.5442 10.7297 20.4552 11.7132 22.1337C12.6968 23.8123 14.111 25.1975 15.8097 26.146C17.5083 27.0945 19.4295 27.5718 21.3745 27.5284C23.3196 27.4851 25.2176 26.9227 26.8724 25.8996H39.3895C40.193 25.8996 40.9636 26.2188 41.5318 26.787C42.1 27.3551 42.4192 28.1258 42.4192 28.9293C42.4192 29.7329 42.1 30.5035 41.5318 31.0717C40.9636 31.6399 40.193 31.9591 39.3895 31.9591L36.0794 32.0231H20.1882C17.1789 32.018 14.6381 34.4756 14.656 37.4874C14.6652 38.9232 15.2419 40.297 16.2604 41.309C17.2789 42.321 18.6564 42.889 20.0922 42.889H20.1447C20.9226 42.8823 21.6734 42.6023 22.2656 42.098C23.1444 41.3652 24.216 40.9016 25.3517 40.7629C25.7381 40.7158 26.1282 40.7059 26.5165 40.7335C27.3898 40.798 28.2381 41.054 29.0013 41.4833C29.7645 41.9126 30.4238 42.5046 30.9324 43.2174C31.441 43.9301 31.7864 44.7462 31.9442 45.6075C32.1019 46.4688 32.0681 47.3542 31.8451 48.201C33.1716 47.9601 34.3715 47.2616 35.236 46.2271C36.1004 45.1926 36.5747 43.8877 36.576 42.5396C36.576 39.2768 38.2746 36.3623 43.8925 36.3623C44.0947 36.3623 44.2957 36.3559 44.4941 36.3418C46.7508 36.1927 48.8734 35.2174 50.4565 33.6023C52.0396 31.9872 52.9722 29.8454 53.0761 27.5862C53.1799 25.327 52.4478 23.1087 51.0196 21.3551C49.5914 19.6015 47.5673 18.4356 45.3338 18.08Z" fill="#FFFFD6" stroke="#FFF0CF" stroke-width="0.64" stroke-miterlimit="10"/>
<path d="M40.6221 10.5588H36.1114V18.002H40.6221V10.5588Z" fill="#EEF0F5" stroke="#DAE1EA" stroke-width="0.64" stroke-miterlimit="10"/>
<path d="M38.4256 5.50391L33.2992 10.5586H43.4343L38.4256 5.50391Z" fill="#FBDFD9" stroke="#F4AF9F" stroke-width="0.68096" stroke-linejoin="round"/>
<path d="M34.2656 27.6594H25.5732V31.9538H34.2656V27.6594Z" fill="#EEF0F5" stroke="#DAE1EA" stroke-width="0.64" stroke-miterlimit="10"/>
<path d="M23.4164 21.4502H36.4224V25.655C36.4224 26.1866 36.2112 26.6965 35.8353 27.0724C35.4594 27.4483 34.9496 27.6595 34.418 27.6595H25.4208C24.8892 27.6595 24.3794 27.4483 24.0034 27.0724C23.6275 26.6965 23.4164 26.1866 23.4164 25.655V21.4502Z" fill="#EEF0F5" stroke="#DAE1EA" stroke-width="0.64" stroke-miterlimit="10"/>
<path d="M29.92 12.9087L21.2583 21.4501H38.3834L29.92 12.9087Z" fill="#FBDFD9" stroke="#F4AF9F" stroke-width="0.68096" stroke-linejoin="round"/>
<path d="M27.6813 24.8755C27.885 24.8755 28.0803 24.9564 28.2244 25.1004C28.3684 25.2445 28.4493 25.4398 28.4493 25.6435V27.6531H26.9133V25.6435C26.9133 25.4398 26.9942 25.2445 27.1382 25.1004C27.2823 24.9564 27.4776 24.8755 27.6813 24.8755Z" fill="#EEF0F5" stroke="#DAE1EA" stroke-width="0.64" stroke-miterlimit="10"/>
<path d="M32.1063 24.8755C32.3099 24.8755 32.5053 24.9564 32.6493 25.1004C32.7933 25.2445 32.8743 25.4398 32.8743 25.6435V27.6531H31.3383V25.6435C31.3383 25.4398 31.4192 25.2445 31.5632 25.1004C31.7072 24.9564 31.9026 24.8755 32.1063 24.8755Z" fill="#EEF0F5" stroke="#DAE1EA" stroke-width="0.64" stroke-miterlimit="10"/>
<path d="M55.5738 21.1393C57.3065 21.1393 58.7111 19.7347 58.7111 18.002C58.7111 16.2694 57.3065 14.8647 55.5738 14.8647C53.8411 14.8647 52.4365 16.2694 52.4365 18.002C52.4365 19.7347 53.8411 21.1393 55.5738 21.1393Z" fill="#FDEDA5" stroke="#FBDF63" stroke-width="0.68096" stroke-miterlimit="10"/>
<path d="M8.51332 24.8805C10.246 24.8805 11.6506 23.4759 11.6506 21.7432C11.6506 20.0106 10.246 18.606 8.51332 18.606C6.78065 18.606 5.37604 20.0106 5.37604 21.7432C5.37604 23.4759 6.78065 24.8805 8.51332 24.8805Z" fill="#FFCCF5" stroke="#FFAEEC" stroke-width="0.64" stroke-miterlimit="10"/>
<path d="M41.7984 37.9071C42.4481 37.9071 42.9747 37.3804 42.9747 36.7308C42.9747 36.0811 42.4481 35.5544 41.7984 35.5544C41.1488 35.5544 40.6221 36.0811 40.6221 36.7308C40.6221 37.3804 41.1488 37.9071 41.7984 37.9071Z" fill="#87FFD6" stroke="#00FAB4" stroke-width="0.68096" stroke-miterlimit="10"/>
<path d="M17.5335 10.5587C18.1831 10.5587 18.7098 10.032 18.7098 9.38237C18.7098 8.73271 18.1831 8.20605 17.5335 8.20605C16.8838 8.20605 16.3571 8.73271 16.3571 9.38237C16.3571 10.032 16.8838 10.5587 17.5335 10.5587Z" fill="#B3F2F0" stroke="#81EBEB" stroke-width="0.64" stroke-linejoin="round"/>
<path d="M12.8794 45.1136C13.5291 45.1136 14.0557 44.587 14.0557 43.9373C14.0557 43.2876 13.5291 42.761 12.8794 42.761C12.2297 42.761 11.7031 43.2876 11.7031 43.9373C11.7031 44.587 12.2297 45.1136 12.8794 45.1136Z" fill="#FFCCF5" stroke="#FFAEEC" stroke-width="0.64" stroke-miterlimit="10"/>
<path d="M18.8314 32.2804H17.1904V30.6356C17.1967 30.5224 17.1798 30.4092 17.1409 30.3028C17.1019 30.1964 17.0416 30.099 16.9637 30.0167C16.8859 29.9344 16.792 29.8688 16.6879 29.824C16.5839 29.7792 16.4717 29.7561 16.3584 29.7561C16.2451 29.7561 16.133 29.7792 16.0289 29.824C15.9248 29.8688 15.831 29.9344 15.7531 30.0167C15.6752 30.099 15.615 30.1964 15.576 30.3028C15.537 30.4092 15.5201 30.5224 15.5264 30.6356V32.2765H13.888C13.7749 32.2702 13.6616 32.2871 13.5552 32.3261C13.4488 32.365 13.3515 32.4253 13.2692 32.5032C13.1869 32.5811 13.1213 32.6749 13.0765 32.779C13.0317 32.8831 13.0086 32.9952 13.0086 33.1085C13.0086 33.2218 13.0317 33.334 13.0765 33.438C13.1213 33.5421 13.1869 33.636 13.2692 33.7138C13.3515 33.7917 13.4488 33.852 13.5552 33.891C13.6616 33.9299 13.7749 33.9468 13.888 33.9405H15.5239V35.5815C15.5176 35.6946 15.5345 35.8078 15.5734 35.9142C15.6124 36.0207 15.6727 36.118 15.7505 36.2003C15.8284 36.2826 15.9223 36.3482 16.0263 36.393C16.1304 36.4378 16.2425 36.4609 16.3559 36.4609C16.4692 36.4609 16.5813 36.4378 16.6854 36.393C16.7895 36.3482 16.8833 36.2826 16.9612 36.2003C17.0391 36.118 17.0993 36.0207 17.1383 35.9142C17.1773 35.8078 17.1941 35.6946 17.1879 35.5815V33.9469H18.8288C19.0415 33.9351 19.2416 33.8423 19.388 33.6876C19.5344 33.5328 19.6159 33.3279 19.6159 33.1149C19.6159 32.9019 19.5344 32.697 19.388 32.5422C19.2416 32.3875 19.0415 32.2947 18.8288 32.2829L18.8314 32.2804Z" fill="#87FFD6" stroke="#00FAB4" stroke-width="0.68096" stroke-miterlimit="10"/>
<path d="M55.5648 39.7965H53.9239V38.1555C53.9121 37.9428 53.8193 37.7428 53.6645 37.5964C53.5098 37.45 53.3049 37.3684 53.0919 37.3684C52.8788 37.3684 52.6739 37.45 52.5192 37.5964C52.3645 37.7428 52.2717 37.9428 52.2599 38.1555V39.7965H50.6163C50.4037 39.8083 50.2036 39.9011 50.0572 40.0558C49.9108 40.2106 49.8292 40.4155 49.8292 40.6285C49.8292 40.8415 49.9108 41.0464 50.0572 41.2011C50.2036 41.3559 50.4037 41.4487 50.6163 41.4605H52.2573V43.1014C52.251 43.2146 52.2679 43.3278 52.3069 43.4342C52.3458 43.5406 52.4061 43.638 52.484 43.7203C52.5618 43.8026 52.6557 43.8682 52.7598 43.913C52.8639 43.9578 52.976 43.9809 53.0893 43.9809C53.2026 43.9809 53.3147 43.9578 53.4188 43.913C53.5229 43.8682 53.6167 43.8026 53.6946 43.7203C53.7725 43.638 53.8328 43.5406 53.8717 43.4342C53.9107 43.3278 53.9276 43.2146 53.9213 43.1014V41.463H55.5648C55.7775 41.4512 55.9776 41.3584 56.124 41.2037C56.2704 41.049 56.3519 40.844 56.3519 40.631C56.3519 40.418 56.2704 40.2131 56.124 40.0584C55.9776 39.9036 55.7775 39.8108 55.5648 39.799V39.7965Z" fill="#FFCCF5" stroke="#FFAEEC" stroke-width="0.64" stroke-miterlimit="10"/>
<path d="M52.361 8.17151H50.7213V6.53055C50.721 6.30943 50.6329 6.09748 50.4764 5.94125C50.3199 5.78502 50.1079 5.69727 49.8867 5.69727C49.6659 5.6976 49.4541 5.7855 49.2979 5.9417C49.1417 6.0979 49.0538 6.30965 49.0535 6.53055V8.17151H47.4125C47.1998 8.18331 46.9997 8.27611 46.8534 8.43084C46.707 8.58558 46.6254 8.7905 46.6254 9.00351C46.6254 9.21651 46.707 9.42143 46.8534 9.57617C46.9997 9.7309 47.1998 9.8237 47.4125 9.83551H49.0535V11.479C49.0535 11.7 49.1413 11.912 49.2975 12.0682C49.4538 12.2245 49.6657 12.3123 49.8867 12.3123C49.9963 12.3125 50.1048 12.291 50.206 12.2492C50.3073 12.2074 50.3993 12.1461 50.4768 12.0687C50.5543 11.9913 50.6158 11.8994 50.6578 11.7982C50.6997 11.697 50.7213 11.5886 50.7213 11.479V9.83807H52.361C52.4741 9.84434 52.5874 9.82748 52.6938 9.7885C52.8002 9.74953 52.8975 9.68926 52.9798 9.61139C53.0621 9.53351 53.1277 9.43967 53.1725 9.33559C53.2173 9.23151 53.2404 9.11938 53.2404 9.00607C53.2404 8.89275 53.2173 8.78062 53.1725 8.67654C53.1277 8.57247 53.0621 8.47862 52.9798 8.40074C52.8975 8.32287 52.8002 8.2626 52.6938 8.22363C52.5874 8.18465 52.4741 8.16779 52.361 8.17407V8.17151Z" fill="#B3F2F0" stroke="#81EBEB" stroke-width="0.64" stroke-linejoin="round"/>
</svg>
