<svg width="64" height="64" viewBox="0 0 64 64" fill="none" xmlns="http://www.w3.org/2000/svg">
<path d="M38.7251 14.9168C41.9607 14.9168 44.5836 12.2939 44.5836 9.05827C44.5836 5.82267 41.9607 3.19971 38.7251 3.19971C35.4895 3.19971 32.8665 5.82267 32.8665 9.05827C32.8665 12.2939 35.4895 14.9168 38.7251 14.9168Z" fill="#CEB4A7" stroke="#BFA586" stroke-width="0.64" stroke-miterlimit="10"/>
<path d="M38.7251 11.5836C40.1198 11.5836 41.2505 10.4529 41.2505 9.05815C41.2505 7.66339 40.1198 6.53271 38.7251 6.53271C37.3303 6.53271 36.1996 7.66339 36.1996 9.05815C36.1996 10.4529 37.3303 11.5836 38.7251 11.5836Z" fill="#FBDFD9" stroke="#F4AF9F" stroke-width="0.64" stroke-miterlimit="10"/>
<path d="M10.5369 14.9168C13.7725 14.9168 16.3955 12.2939 16.3955 9.05827C16.3955 5.82267 13.7725 3.19971 10.5369 3.19971C7.30134 3.19971 4.67838 5.82267 4.67838 9.05827C4.67838 12.2939 7.30134 14.9168 10.5369 14.9168Z" fill="#CEB4A7" stroke="#BFA586" stroke-width="0.64" stroke-miterlimit="10"/>
<path d="M10.5369 11.5836C11.9317 11.5836 13.0624 10.4529 13.0624 9.05815C13.0624 7.66339 11.9317 6.53271 10.5369 6.53271C9.14215 6.53271 8.01147 7.66339 8.01147 9.05815C8.01147 10.4529 9.14215 11.5836 10.5369 11.5836Z" fill="#FBDFD9" stroke="#F4AF9F" stroke-width="0.64" stroke-miterlimit="10"/>
<path d="M45.422 22.9065C45.422 12.5385 37.7152 4.67934 25.7689 5.78526C24.5581 5.89557 23.3394 5.88871 22.1299 5.76478C10.8556 4.6307 3.83997 12.5667 3.83997 22.9065C3.83997 33.7865 11.7952 42.6185 24.631 42.6185C38.3718 42.6121 45.422 33.7904 45.422 22.9065Z" fill="#CEB4A7" stroke="#BFA586" stroke-width="0.64" stroke-miterlimit="10"/>
<path d="M31.6454 26.1001C31.6454 29.9747 31.6454 34.6556 24.631 34.6582C18.0262 34.6582 17.6166 29.9747 17.6166 26.1001C17.6166 23.9983 17.92 21.5459 19.1155 19.7411C20.1228 18.2217 21.7638 17.1619 24.3904 17.1567C27.2985 17.1567 29.0675 18.2255 30.1273 19.7654C31.3728 21.5676 31.6454 24.0099 31.6454 26.1001Z" fill="#FDD9B4" stroke="#BFA586" stroke-width="0.64" stroke-miterlimit="10"/>
<path d="M24.6643 21.4243C24.6643 21.4243 24.128 27.7949 26.1107 30.1437C27.0515 31.2534 28.7872 31.5171 28.7872 31.5171" stroke="#BFA586" stroke-width="0.64" stroke-miterlimit="10" stroke-linecap="round"/>
<path d="M24.5977 21.4243C24.5977 21.4243 25.1379 27.7949 23.1513 30.1386C22.2118 31.2483 20.4761 31.512 20.4761 31.512" stroke="#BFA586" stroke-width="0.64" stroke-miterlimit="10" stroke-linecap="round"/>
<path d="M30.144 19.7654C29.0547 21.0262 27.0016 21.8761 24.6477 21.8761C22.2937 21.8761 20.215 21.0147 19.1309 19.7411C20.1395 18.2217 21.7792 17.1619 24.407 17.1568C27.3075 17.1516 29.0765 18.2256 30.144 19.7654Z" fill="#AF6C46" stroke="#BFA586" stroke-width="0.64" stroke-miterlimit="10"/>
<path d="M33.216 15.11C34.0827 15.11 34.7853 14.4074 34.7853 13.5407C34.7853 12.674 34.0827 11.9714 33.216 11.9714C32.3493 11.9714 31.6467 12.674 31.6467 13.5407C31.6467 14.4074 32.3493 15.11 33.216 15.11Z" fill="#AF6C46" stroke="#BFA586" stroke-width="0.64" stroke-miterlimit="10"/>
<path d="M16.0473 15.11C16.914 15.11 17.6166 14.4074 17.6166 13.5407C17.6166 12.674 16.914 11.9714 16.0473 11.9714C15.1806 11.9714 14.4781 12.674 14.4781 13.5407C14.4781 14.4074 15.1806 15.11 16.0473 15.11Z" fill="#AF6C46" stroke="#BFA586" stroke-width="0.64" stroke-miterlimit="10"/>
<path d="M14.8708 56.7183L26.018 45.5711L30.2249 49.778L22.3885 57.6143C21.5104 58.4924 20.3195 58.9857 19.0777 58.9857C17.8359 58.9857 16.6449 58.4924 15.7668 57.6143L14.8708 56.7183Z" fill="#FBDFD9" stroke="#F4AF9F" stroke-width="0.68096" stroke-miterlimit="10"/>
<path d="M54.1209 27.7168H60.0371L54.2348 21.9146L54.1209 27.7168Z" fill="#CEB4A7" stroke="#BFA586" stroke-width="0.64" stroke-linecap="round" stroke-linejoin="round"/>
<path d="M59.7529 49.564H23.7926" stroke="#BFA586" stroke-width="0.64" stroke-miterlimit="10" stroke-linecap="round"/>
<path d="M44.9216 49.564L50.3667 54.7236" stroke="#BFA586" stroke-width="0.64" stroke-miterlimit="10"/>
<path d="M53.1673 54.4971C54.6445 56.0331 53.9648 58.634 53.9648 58.634C53.9648 58.634 51.5993 59.3598 49.8611 57.6766C48.2137 56.0791 48.8269 53.2913 48.8269 53.2913C48.8269 53.2913 51.6275 52.8958 53.1673 54.4971Z" fill="#87FFD6" stroke="#00FAB4" stroke-width="0.68096" stroke-miterlimit="10"/>
<path d="M56.4121 28.1892C56.8768 27.2227 57.1156 26.1633 57.1104 25.0909C57.1052 24.0186 56.8562 22.9615 56.3821 21.9996C55.9081 21.0377 55.2215 20.1962 54.3742 19.5388C53.527 18.8815 52.5413 18.4254 51.4918 18.2052L51.4688 18.1821C51.179 17.8771 50.831 17.6333 50.4453 17.4651C50.0596 17.297 49.6441 17.208 49.2233 17.2033C48.8026 17.1987 48.3852 17.2785 47.9959 17.438C47.6066 17.5976 47.2532 17.8337 46.9568 18.1322L24.3328 40.7537C24.033 41.0546 23.797 41.4129 23.6387 41.807C23.4804 42.2012 23.4032 42.6232 23.4115 43.0479C23.4199 43.4726 23.5137 43.8912 23.6874 44.2788C23.8611 44.6665 24.111 45.0151 24.4224 45.3041C24.9458 45.7926 25.4958 46.252 26.0697 46.6801C29.1341 48.9554 32.808 50.264 36.6208 50.4384C40.4335 50.6127 44.2115 49.6449 47.4708 47.6588C50.7301 45.6727 53.3222 42.7588 54.9152 39.2904C56.5082 35.822 57.0294 31.957 56.4121 28.1905V28.1892Z" fill="#FDEDA5" stroke="#FBDF63" stroke-width="0.68096" stroke-miterlimit="10"/>
<path d="M42.2643 35.6874C42.2644 38.7254 41.4235 41.7041 39.8347 44.2936C38.246 46.883 35.9714 48.9821 33.263 50.3583C30.5546 51.7345 27.5181 52.3341 24.4899 52.0906C21.4617 51.8472 18.5599 50.7702 16.1062 48.979L17.8009 47.2842L22.222 42.8631L39.104 25.9863C41.1645 28.8005 42.2718 32.1996 42.2643 35.6874Z" fill="#B3F2F0" stroke="#81EBEB" stroke-width="0.64" stroke-linejoin="round"/>
<path d="M37.2262 31.0948C37.2245 33.5069 36.693 35.8893 35.6692 38.0733C34.6454 40.2574 33.1542 42.1899 31.3013 43.7342C29.4483 45.2786 27.2787 46.397 24.9458 47.0104C22.613 47.6238 20.1739 47.7173 17.8009 47.2842L22.2221 42.8631L36.9587 28.1265C37.1369 29.1059 37.2264 30.0993 37.2262 31.0948Z" fill="#B3F2F0" stroke="#81EBEB" stroke-width="0.64" stroke-linejoin="round"/>
<path d="M51.0976 26.6378C51.4574 26.6378 51.7491 26.3461 51.7491 25.9862C51.7491 25.6264 51.4574 25.3347 51.0976 25.3347C50.7377 25.3347 50.446 25.6264 50.446 25.9862C50.446 26.3461 50.7377 26.6378 51.0976 26.6378Z" fill="#CEB4A7" stroke="#BFA586" stroke-width="0.64" stroke-linecap="round" stroke-linejoin="round"/>
</svg>
