<svg width="64" height="64" viewBox="0 0 64 64" fill="none" xmlns="http://www.w3.org/2000/svg">
<path d="M25.834 38.8277C27.0525 41.0344 27.5594 44.4764 26.241 45.2047C24.9226 45.933 22.273 43.6687 21.0596 41.4658C19.8461 39.2629 20.5092 37.9432 21.8276 37.2149C23.146 36.4866 24.6193 36.6171 25.834 38.8277Z" fill="#FBDFD9" stroke="#F4AF9F" stroke-width="0.68096" stroke-linejoin="round"/>
<path d="M20.0113 43.194C22.5316 43.2413 25.7713 44.5239 25.738 46.0305C25.7047 47.537 22.4279 48.6954 19.9076 48.6481C17.3873 48.6007 16.5796 47.3681 16.6116 45.8577C16.6436 44.3473 17.4948 43.1466 20.0113 43.194Z" fill="#FFCCF5" stroke="#FFAEEC" stroke-width="0.64" stroke-miterlimit="10"/>
<path d="M20.8893 50.4182C22.1911 48.2601 24.9188 46.0995 26.209 46.8778C27.4993 47.656 26.8631 51.0761 25.5613 53.2342C24.2596 55.3923 22.7876 55.4678 21.4973 54.6998C20.2071 53.9318 19.5889 52.5776 20.8893 50.4182Z" fill="#FBDFD9" stroke="#F4AF9F" stroke-width="0.68096" stroke-linejoin="round"/>
<path d="M27.5838 53.2726C26.3652 51.0671 25.8583 47.6239 27.1767 46.8956C28.4951 46.1673 31.1447 48.4316 32.3594 50.6358C33.5742 52.8399 32.9085 54.1571 31.5914 54.8854C30.2743 55.6137 28.8023 55.4793 27.5838 53.2726Z" fill="#FFCCF5" stroke="#FFAEEC" stroke-width="0.64" stroke-miterlimit="10"/>
<path d="M33.4026 48.9027C30.8836 48.8554 27.6426 47.5728 27.6772 46.0663C27.7117 44.5597 30.986 43.4013 33.5063 43.4487C36.0266 43.496 36.8343 44.7287 36.8023 46.2391C36.7703 47.7495 35.9229 48.9501 33.4026 48.9027Z" fill="#FBDFD9" stroke="#F4AF9F" stroke-width="0.68096" stroke-linejoin="round"/>
<path d="M32.5284 41.6784C31.2266 43.8365 28.499 45.9971 27.2087 45.2202C25.9185 44.4432 26.5546 41.0205 27.8564 38.8624C29.1582 36.7043 30.6314 36.625 31.9217 37.4032C33.2119 38.1815 33.8353 39.5203 32.5284 41.6784Z" fill="#FFCCF5" stroke="#FFAEEC" stroke-width="0.64" stroke-miterlimit="10"/>
<path d="M26.7095 47.8301C27.6935 47.8301 28.4913 47.0324 28.4913 46.0484C28.4913 45.0643 27.6935 44.2666 26.7095 44.2666C25.7255 44.2666 24.9277 45.0643 24.9277 46.0484C24.9277 47.0324 25.7255 47.8301 26.7095 47.8301Z" fill="#FFFFD6" stroke="#FFF0CF" stroke-width="0.64" stroke-miterlimit="10"/>
<path d="M54.7671 6.17865C54.557 5.91374 54.2507 5.74271 53.9149 5.7029C53.5792 5.66309 53.2413 5.75774 52.9751 5.96617C52.9034 6.02249 45.6471 11.6481 36.5514 11.6481C33.1748 11.6481 30.0874 9.83817 26.8234 7.92201C21.3194 4.69769 15.0909 1.04329 7.46599 7.68137C4.27623 10.4513 3.07303 13.7012 3.77959 17.6167C4.37223 20.9063 6.27047 24.3098 8.10599 27.6007C10.3165 31.5687 12.6039 35.6647 12.6461 39.529C12.7153 45.8471 5.89927 55.4599 5.81991 55.5713C5.71856 55.7077 5.6454 55.863 5.60471 56.0281C5.56402 56.1931 5.55661 56.3646 5.58291 56.5325C5.6092 56.7005 5.66869 56.8615 5.75788 57.0062C5.84708 57.1509 5.9642 57.2763 6.10242 57.3753C6.24063 57.4742 6.39717 57.5447 6.56289 57.5824C6.72862 57.6202 6.90021 57.6246 7.06766 57.5954C7.2351 57.5662 7.39505 57.5039 7.53816 57.4122C7.68127 57.3204 7.80468 57.2011 7.90119 57.0612C9.58818 54.6415 11.086 52.0953 12.3812 49.4452C12.689 49.501 12.9873 49.6006 13.2669 49.7409C14.4433 50.3425 15.434 51.5636 15.4429 51.5751L16.4426 50.7751C16.3953 50.7162 15.2778 49.3313 13.8506 48.5991C13.5583 48.4516 13.2505 48.3369 12.9329 48.2574C14.2129 45.3876 15.2369 42.2414 15.2049 39.5009C15.1754 36.8756 14.3345 34.2926 13.1709 31.7556C13.6135 31.5519 14.0921 31.4383 14.5789 31.4215C15.8999 31.4023 17.3463 32.018 17.3604 32.0244L17.8724 30.8494C17.8033 30.8199 16.1674 30.1185 14.5649 30.1415C13.8955 30.1629 13.2374 30.3188 12.6295 30.5998C11.9204 29.1687 11.1319 27.753 10.3511 26.354C7.09607 20.5338 4.25191 15.433 7.81159 10.9812C8.32106 10.5042 8.90302 10.111 9.53575 9.81641C10.242 9.50678 11.0063 9.35163 11.7774 9.36135C12.5484 9.37106 13.3086 9.54541 14.0068 9.87273C15.4916 10.569 16.4772 11.9591 16.5809 13.5015C16.6333 15.0106 15.6298 16.6631 14.049 16.722C13.7509 16.7234 13.4553 16.6669 13.1786 16.5556C12.9727 16.4714 12.8013 16.3199 12.6925 16.1258C12.5838 15.9317 12.5439 15.7064 12.5796 15.4868C12.6 15.4292 12.6294 15.3752 12.6666 15.3268C13.3988 15.3716 14.0055 15.0055 14.1796 14.4116V14.386C14.2591 14.0461 14.2408 13.6907 14.1266 13.3609C14.0124 13.031 13.8071 12.7403 13.5345 12.5223L13.5204 12.5095C13.2256 12.2841 12.8882 12.1206 12.5285 12.0291C12.1688 11.9376 11.7943 11.9199 11.4276 11.977C10.5316 12.105 9.66631 12.6567 9.06599 13.4746C8.32871 14.5217 8.13543 15.7786 8.48999 17.2135V17.225C8.89063 18.706 9.89927 19.8836 11.4097 20.6196L11.4225 20.626C12.4767 21.1216 13.6456 21.322 14.8047 21.2056C15.9637 21.0893 17.0695 20.6607 18.0042 19.9655C18.9757 19.2641 19.5709 18.459 20.0701 17.6922L20.0842 17.6718C20.6399 16.7328 20.9861 15.6849 21.0993 14.5998C21.1125 14.4728 21.0748 14.3458 20.9944 14.2466C20.9139 14.1475 20.7974 14.0844 20.6705 14.0711C20.5435 14.0579 20.4165 14.0956 20.3173 14.176C20.2182 14.2565 20.1551 14.373 20.1418 14.4999C20.0444 15.4462 19.7422 16.36 19.2561 17.1777C18.7441 17.9674 18.2321 18.6113 17.4397 19.1847C16.6433 19.7781 15.7009 20.1446 14.7128 20.2451C13.7247 20.3456 12.7279 20.1765 11.8282 19.7556C10.9553 19.3255 9.83271 18.4961 9.41927 16.987C9.13255 15.8234 9.27207 14.8609 9.84679 14.043C10.2884 13.4426 10.9322 13.0266 11.5697 12.9319C11.8089 12.8935 12.0535 12.9045 12.2884 12.9642C12.5233 13.0238 12.7435 13.1309 12.9354 13.2788C13.0638 13.3813 13.1613 13.5174 13.2169 13.672C13.2725 13.8266 13.284 13.9935 13.2503 14.1543C13.185 14.345 12.8829 14.377 12.7217 14.3681C12.2609 14.3169 11.8666 14.6241 11.6631 15.1886L11.6554 15.2116V15.2346C11.5554 15.6813 11.6167 16.149 11.8285 16.5547C12.0403 16.9605 12.3889 17.2782 12.8125 17.4516H12.8253C13.2251 17.612 13.6529 17.6912 14.0836 17.6846C15.1076 17.6474 16.0266 17.1444 16.6794 16.2766C17.2752 15.4614 17.5796 14.4696 17.5434 13.4606V13.4452C17.4154 11.5508 16.2225 9.84713 14.4177 9.00105C13.5067 8.56971 12.5053 8.36381 11.498 8.40073C11.1762 8.41393 10.8557 8.45072 10.5393 8.51081C16.097 4.60553 20.4925 7.18217 25.5153 10.1313C26.6365 10.7879 27.7706 11.4522 28.9316 12.0513C28.7637 12.3235 28.6259 12.6132 28.5207 12.9153C28.0087 14.4334 28.1623 16.2062 28.1687 16.2804L29.4487 16.1614C29.4487 16.146 29.3092 14.5806 29.7367 13.33C29.8253 13.0783 29.9453 12.8388 30.0938 12.617C32.1239 13.5514 34.2513 14.2106 36.5476 14.2106C40.4836 14.2106 44.0586 13.2865 46.9693 12.1486C47.306 12.7156 47.8807 13.4836 48.7217 13.9841C50.0913 14.8071 51.8641 15.0196 51.9383 15.0311L52.0881 13.7588C52.0727 13.7588 50.5124 13.5642 49.3796 12.8858C48.8899 12.5691 48.4771 12.1471 48.1713 11.6506C51.9742 9.98665 54.3844 8.11529 54.5623 7.97449C54.8272 7.7632 54.9975 7.45552 55.0359 7.11889C55.0742 6.78226 54.9776 6.44414 54.7671 6.17865Z" fill="#87FFD6" stroke="#00FAB4" stroke-width="0.68096" stroke-miterlimit="10"/>
<path d="M20.0689 34.1162C18.1758 33.53 17.1953 31.2542 17.1953 31.2542C17.1953 31.2542 19.2881 29.9281 21.1799 30.5143C23.0718 31.1006 24.0497 33.3764 24.0497 33.3764C24.0497 33.3764 21.9607 34.7025 20.0689 34.1162Z" fill="#FFCCF5" stroke="#FFAEEC" stroke-width="0.64" stroke-miterlimit="10"/>
<path d="M17.1172 35.3437C16.193 33.5914 17.1172 31.2913 17.1172 31.2913C17.1172 31.2913 19.5338 31.8327 20.458 33.585C21.3821 35.3373 20.458 37.6388 20.458 37.6388C20.458 37.6388 18.0413 37.0973 17.1172 35.3437Z" fill="#E9E1FF" stroke="#D4C0FF" stroke-width="0.64" stroke-miterlimit="10"/>
<path d="M19.3713 28.054C17.6177 28.9782 17.0762 31.3948 17.0762 31.3948C17.0762 31.3948 19.3802 32.3152 21.13 31.3948C22.8798 30.4745 23.4238 28.054 23.4238 28.054C23.4238 28.054 21.1274 27.1299 19.3713 28.054Z" fill="#E9E1FF" stroke="#D4C0FF" stroke-width="0.64" stroke-miterlimit="10"/>
<path d="M54.7313 16.9399C52.8394 16.3537 51.8628 14.0766 51.8628 14.0766C51.8628 14.0766 53.9556 12.7479 55.8513 13.3342C57.747 13.9204 58.7172 16.1975 58.7172 16.1975C58.7172 16.1975 56.6193 17.5236 54.7313 16.9399Z" fill="#FFCCF5" stroke="#FFAEEC" stroke-width="0.64" stroke-miterlimit="10"/>
<path d="M51.7809 18.1648C50.8567 16.4125 51.7809 14.1123 51.7809 14.1123C51.7809 14.1123 54.1988 14.6537 55.1229 16.4061C56.0471 18.1584 55.1229 20.4598 55.1229 20.4598C55.1229 20.4598 52.705 19.9171 51.7809 18.1648Z" fill="#E9E1FF" stroke="#D4C0FF" stroke-width="0.64" stroke-miterlimit="10"/>
<path d="M54.0388 10.8752C52.2852 11.7994 51.7437 14.216 51.7437 14.216C51.7437 14.216 54.0477 15.135 55.7975 14.216C57.5473 13.297 58.0913 10.8701 58.0913 10.8701C58.0913 10.8701 55.7911 9.95104 54.0388 10.8752Z" fill="#E9E1FF" stroke="#D4C0FF" stroke-width="0.64" stroke-miterlimit="10"/>
<path d="M26.3101 19.1888C26.5367 16.7568 29.0365 14.9968 29.0365 14.9968C29.0365 14.9968 31.169 17.1856 30.9425 19.6189C30.7159 22.0522 28.2173 23.8096 28.2173 23.8096C28.2173 23.8096 26.0836 21.6221 26.3101 19.1888Z" fill="#FFCCF5" stroke="#FFAEEC" stroke-width="0.64" stroke-miterlimit="10"/>
<path d="M24.0778 15.9375C25.9594 14.3798 28.9713 14.902 28.9713 14.902C28.9713 14.902 28.9329 17.9574 27.0513 19.519C25.1697 21.0806 22.1604 20.5545 22.1604 20.5545C22.1604 20.5545 22.1975 17.4991 24.0778 15.9375Z" fill="#E9E1FF" stroke="#D4C0FF" stroke-width="0.64" stroke-miterlimit="10"/>
<path d="M33.4513 16.8118C31.8909 14.9315 28.8356 14.8918 28.8356 14.8918C28.8356 14.8918 28.3108 17.9024 29.8711 19.784C31.4314 21.6656 34.4881 21.704 34.4881 21.704C34.4881 21.704 35.0129 18.6909 33.4513 16.8118Z" fill="#E9E1FF" stroke="#D4C0FF" stroke-width="0.64" stroke-miterlimit="10"/>
<path d="M16.2506 52.9258C15.2676 52.0119 15.3367 50.3479 15.3367 50.3479C15.3367 50.3479 17.0007 50.1495 17.9825 51.0583C18.9642 51.9671 18.8977 53.6414 18.8977 53.6414C18.8977 53.6414 17.235 53.8346 16.2506 52.9258Z" fill="#FFCCF5" stroke="#FFAEEC" stroke-width="0.64" stroke-miterlimit="10"/>
<path d="M14.0926 52.813C14.0414 51.4742 15.2753 50.3401 15.2753 50.3401C15.2753 50.3401 16.5911 51.3756 16.6436 52.7132C16.6961 54.0508 15.4647 55.1874 15.4647 55.1874C15.4647 55.1874 14.145 54.1519 14.0926 52.813Z" fill="#E9E1FF" stroke="#D4C0FF" stroke-width="0.64" stroke-miterlimit="10"/>
<path d="M17.5959 49.0256C16.2583 49.078 15.2228 50.3939 15.2228 50.3939C15.2228 50.3939 16.3569 51.6252 17.6957 51.574C19.0346 51.5228 20.0689 50.2044 20.0689 50.2044C20.0689 50.2044 18.9348 48.9731 17.5959 49.0256Z" fill="#E9E1FF" stroke="#D4C0FF" stroke-width="0.64" stroke-miterlimit="10"/>
<path d="M44.5937 17.9434C45.5959 20.2564 45.7713 23.7316 44.3902 24.3306C43.009 24.9297 40.5911 22.426 39.5953 20.1143C38.5994 17.8026 39.3828 16.5559 40.7652 15.9569C42.1476 15.3578 43.5902 15.6317 44.5937 17.9434Z" fill="#FBDFD9" stroke="#F4AF9F" stroke-width="0.68096" stroke-linejoin="round"/>
<path d="M38.3831 21.7385C40.8881 22.0265 43.9857 23.6112 43.8129 25.1088C43.6401 26.6064 40.2647 27.4461 37.7597 27.1568C35.2548 26.8675 34.5738 25.5606 34.7453 24.0643C34.9169 22.568 35.8833 21.4505 38.3831 21.7385Z" fill="#FFCCF5" stroke="#FFAEEC" stroke-width="0.64" stroke-miterlimit="10"/>
<path d="M38.5713 29.0127C40.0727 26.9891 42.9949 25.0985 44.2033 25.9958C45.4116 26.8931 44.4593 30.2377 42.9514 32.2678C41.4436 34.2979 39.9716 34.2198 38.7607 33.3238C37.5498 32.4278 37.0634 31.0377 38.5713 29.0127Z" fill="#FBDFD9" stroke="#F4AF9F" stroke-width="0.68096" stroke-linejoin="round"/>
<path d="M44.9559 32.4945C43.9537 30.1815 43.777 26.7063 45.1594 26.1073C46.5418 25.5083 48.9585 28.0119 49.9633 30.3236C50.9681 32.6353 50.1745 33.882 48.7933 34.4811C47.4122 35.0801 45.9581 34.8062 44.9559 32.4945Z" fill="#FFCCF5" stroke="#FFAEEC" stroke-width="0.64" stroke-miterlimit="10"/>
<path d="M51.1652 28.6992C48.6615 28.4112 45.5639 26.8266 45.7354 25.329C45.9069 23.8314 49.2849 22.9917 51.7885 23.281C54.2922 23.5703 54.9757 24.8772 54.8042 26.3735C54.6327 27.8698 53.6753 28.9872 51.1652 28.6992Z" fill="#FBDFD9" stroke="#F4AF9F" stroke-width="0.68096" stroke-linejoin="round"/>
<path d="M50.9873 21.4199C49.4858 23.4436 46.5636 25.3341 45.3553 24.4369C44.147 23.5396 45.0993 20.1949 46.6071 18.1649C48.115 16.1348 49.5818 16.2026 50.7914 17.0999C52.001 17.9972 52.4862 19.4001 50.9873 21.4199Z" fill="#FFCCF5" stroke="#FFAEEC" stroke-width="0.64" stroke-miterlimit="10"/>
<path d="M44.7742 27.0005C45.7582 27.0005 46.5559 26.2028 46.5559 25.2188C46.5559 24.2347 45.7582 23.437 44.7742 23.437C43.7901 23.437 42.9924 24.2347 42.9924 25.2188C42.9924 26.2028 43.7901 27.0005 44.7742 27.0005Z" fill="#FFFFD6" stroke="#FFF0CF" stroke-width="0.64" stroke-miterlimit="10"/>
<path d="M53.6049 34.9879C53.9087 34.7216 54.157 34.398 54.3355 34.0355C54.5141 33.6731 54.6194 33.279 54.6455 32.8758C54.6715 32.4727 54.6177 32.0683 54.4873 31.6859C54.3568 31.3035 54.1522 30.9506 53.8852 30.6474C53.3489 30.036 52.592 29.6622 51.7805 29.608C50.969 29.5537 50.1691 29.8235 49.5562 30.3582C49.5103 29.5464 49.1445 28.786 48.5389 28.2435C47.9333 27.7011 47.1374 27.4208 46.3255 27.4641C45.9221 27.4849 45.5268 27.585 45.1622 27.7588C44.7975 27.9325 44.4707 28.1765 44.2005 28.4767C43.9303 28.7769 43.7219 29.1274 43.5873 29.5083C43.4527 29.8891 43.3945 30.2927 43.4161 30.6961L44.0829 43.354L53.6049 34.9879Z" fill="#FFE8C8" stroke="#FDD9B4" stroke-width="0.68096" stroke-miterlimit="10"/>
<path d="M41.1313 30.8918C41.0525 30.4957 40.8964 30.119 40.6719 29.7833C40.4474 29.4476 40.1589 29.1594 39.8229 28.9353C39.4869 28.7112 39.1101 28.5555 38.7139 28.4772C38.3177 28.3989 37.9099 28.3995 37.514 28.479C36.7162 28.6376 36.0139 29.1062 35.5611 29.7819C35.1083 30.4576 34.942 31.2853 35.0986 32.0834C34.3725 31.7171 33.5306 31.6536 32.7578 31.907C31.9849 32.1604 31.344 32.7099 30.9757 33.4351C30.7923 33.7949 30.6816 34.1872 30.6499 34.5898C30.6182 34.9924 30.6663 35.3972 30.7912 35.7812C30.9161 36.1652 31.1156 36.5208 31.3781 36.8277C31.6406 37.1345 31.961 37.3866 32.321 37.5695L43.6157 43.3206L41.1313 30.8918Z" fill="#FFE8C8" stroke="#FDD9B4" stroke-width="0.68096" stroke-miterlimit="10"/>
<path d="M31.3495 39.6368C30.9671 39.507 30.5629 39.4539 30.16 39.4806C29.757 39.5072 29.3633 39.613 29.0013 39.7919C28.6393 39.9708 28.3161 40.2193 28.0503 40.5233C27.7844 40.8272 27.5811 41.1806 27.4519 41.5632C27.1908 42.3341 27.2463 43.1772 27.6063 43.9073C27.9663 44.6374 28.6013 45.1947 29.3719 45.4569C28.6908 45.9018 28.214 46.5986 28.0461 47.3945C27.8781 48.1905 28.0327 49.0206 28.4759 49.7027C28.6958 50.0412 28.9803 50.3331 29.313 50.5616C29.6458 50.7901 30.0203 50.9508 30.4152 51.0345C30.8101 51.1182 31.2176 51.1232 31.6145 51.0493C32.0114 50.9754 32.3897 50.824 32.7281 50.6038L43.3521 43.6982L31.3495 39.6368Z" fill="#FFE8C8" stroke="#FDD9B4" stroke-width="0.68096" stroke-miterlimit="10"/>
<path d="M34.035 52.4855C33.7313 52.7518 33.4832 53.0753 33.3047 53.4377C33.1263 53.8 33.021 54.1939 32.995 54.5969C32.969 55 33.0227 55.4042 33.153 55.7864C33.2834 56.1687 33.4878 56.5215 33.7546 56.8247C34.2909 57.4361 35.0478 57.8099 35.8593 57.8642C36.6708 57.9184 37.4707 57.6486 38.0836 57.1139C38.1292 57.9259 38.4949 58.6866 39.1005 59.2294C39.7061 59.7721 40.5022 60.0526 41.3143 60.0093C41.7178 59.9885 42.1132 59.8883 42.478 59.7145C42.8427 59.5407 43.1695 59.2966 43.4398 58.9962C43.71 58.6959 43.9184 58.3452 44.0529 57.9642C44.1874 57.5832 44.2455 57.1795 44.2238 56.776L43.5633 44.1194L34.035 52.4855Z" fill="#FFE8C8" stroke="#FDD9B4" stroke-width="0.68096" stroke-miterlimit="10"/>
<path d="M46.5073 56.5854C46.5862 56.9815 46.7424 57.3581 46.9671 57.6938C47.1917 58.0295 47.4804 58.3175 47.8165 58.5415C48.1526 58.7655 48.5295 58.921 48.9258 58.9992C49.3221 59.0773 49.7299 59.0765 50.1258 58.9969C50.9231 58.8379 51.6249 58.3694 52.0773 57.6941C52.5298 57.0187 52.6962 56.1915 52.5399 55.3937C53.2661 55.7601 54.1079 55.8235 54.8808 55.5701C55.6537 55.3167 56.2945 54.7672 56.6628 54.042C56.8464 53.6822 56.9573 53.2897 56.9891 52.887C57.0209 52.4843 56.9729 52.0793 56.8479 51.6951C56.723 51.311 56.5235 50.9553 56.2609 50.6483C55.9983 50.3414 55.6777 50.0892 55.3175 49.9063L44.0228 44.1553L46.5073 56.5854Z" fill="#FFE8C8" stroke="#FDD9B4" stroke-width="0.68096" stroke-miterlimit="10"/>
<path d="M56.2903 47.8353C56.6727 47.965 57.0769 48.0181 57.4799 47.9915C57.8828 47.9649 58.2765 47.8591 58.6385 47.6801C59.0005 47.5012 59.3237 47.2527 59.5895 46.9488C59.8554 46.6448 60.0587 46.2915 60.1879 45.9089C60.4493 45.1387 60.3947 44.2964 60.036 43.5664C59.6773 42.8365 59.0437 42.2786 58.2743 42.0151C58.9554 41.5703 59.4322 40.8734 59.6002 40.0775C59.7681 39.2815 59.6135 38.4515 59.1703 37.7694C58.9506 37.4305 58.6662 37.1382 58.3335 36.9093C58.0007 36.6804 57.6261 36.5194 57.231 36.4355C56.8359 36.3515 56.4282 36.3463 56.0311 36.4202C55.634 36.494 55.2554 36.6454 54.9169 36.8657L44.2929 43.7777L56.2903 47.8353Z" fill="#FFE8C8" stroke="#FDD9B4" stroke-width="0.68096" stroke-miterlimit="10"/>
<path d="M43.8205 46.5283C45.3631 46.5283 46.6135 45.2779 46.6135 43.7353C46.6135 42.1928 45.3631 40.9424 43.8205 40.9424C42.278 40.9424 41.0276 42.1928 41.0276 43.7353C41.0276 45.2779 42.278 46.5283 43.8205 46.5283Z" fill="#FDEDA5" stroke="#FBDF63" stroke-width="0.68096" stroke-miterlimit="10"/>
</svg>
