<svg width="64" height="64" viewBox="0 0 64 64" fill="none" xmlns="http://www.w3.org/2000/svg">
<path d="M24.641 22.8729L22.0426 18.7321C21.8982 18.5005 21.8384 18.2261 21.8734 17.9554C21.9084 17.6847 22.036 17.4345 22.2346 17.2473C22.6849 16.82 22.9589 16.2396 23.0026 15.6204C23.0532 14.9812 22.8561 14.347 22.4521 13.8491C22.0481 13.3512 21.4681 13.0277 20.8322 12.9454C20.1963 12.8632 19.5532 13.0286 19.0358 13.4074C18.5185 13.7862 18.1665 14.3494 18.0529 14.9804V14.9894C18.0384 15.0733 18.0061 15.1532 17.9582 15.2236C17.9103 15.2941 17.8479 15.3535 17.7751 15.3978C17.7024 15.4422 17.621 15.4705 17.5365 15.4808C17.4519 15.4912 17.3661 15.4834 17.2849 15.4579C17.0462 15.3854 16.7983 15.3483 16.5489 15.3478C15.9271 15.3502 15.3286 15.5843 14.8701 16.0044C14.4116 16.4244 14.1262 17.0002 14.0694 17.6194C14.0126 18.2385 14.1886 18.8566 14.5631 19.353C14.9375 19.8494 15.4835 20.1884 16.0945 20.3039C16.482 20.377 16.8814 20.3564 17.2593 20.2438C17.504 20.1741 17.7649 20.1864 18.002 20.2789C18.2391 20.3713 18.4395 20.5388 18.5725 20.7558L21.2426 25.0092L24.641 22.8729Z" fill="#EEF0F5" stroke="#DAE1EA" stroke-width="0.68096" stroke-miterlimit="10"/>
<path d="M30.9079 26.54C29.5857 26.2929 27.7361 24.1502 27.0206 22.9252C26.4889 22.0437 25.6315 21.4068 24.6339 21.1523C23.6363 20.8979 22.5787 21.0463 21.6896 21.5655C20.8006 22.0847 20.1517 22.9329 19.8831 23.9268C19.6145 24.9207 19.748 25.9803 20.2545 26.8766C21.0007 28.1566 21.9185 31.3041 21.6203 32.908C21.3312 34.4565 21.5078 36.056 22.1279 37.5041C22.7479 38.9522 23.7835 40.1839 25.1036 41.0435C26.4237 41.903 27.969 42.3518 29.5442 42.333C31.1194 42.3142 32.6536 41.8287 33.9528 40.9379C35.252 40.0471 36.2579 38.791 36.8432 37.3285C37.4285 35.866 37.5669 34.2628 37.241 32.7216C36.9151 31.1804 36.1394 29.7705 35.0121 28.6701C33.8848 27.5698 32.4566 26.8285 30.9079 26.54Z" fill="#FFE8C8" stroke="#FDD9B4" stroke-width="0.68096" stroke-miterlimit="10"/>
<path d="M43.169 25.4084C35.3367 25.7028 23.8078 35.0084 20.129 35.1479C17.4721 35.2475 14.9636 36.3985 13.1553 38.3477C11.3471 40.2969 10.3872 42.8846 10.4868 45.5415C10.5864 48.1984 11.7375 50.7069 13.6866 52.5152C15.6358 54.3235 18.2235 55.2834 20.8804 55.1837C25.7892 54.9994 38.2346 55.1748 44.2801 54.9482C48.1973 54.8011 51.8956 53.1038 54.5615 50.2299C57.2273 47.3559 58.6423 43.5406 58.4951 39.6234C58.348 35.7062 56.6507 32.0079 53.7768 29.342C50.9028 26.6762 47.0876 25.2612 43.1703 25.4084H43.169Z" fill="#FFE8C8" stroke="#FDD9B4" stroke-width="0.68096" stroke-miterlimit="10"/>
<path d="M14.7108 27.422L11.3969 23.8278C11.2128 23.6267 11.1039 23.368 11.0887 23.0958C11.0736 22.8235 11.153 22.5544 11.3137 22.334C11.5432 22.0142 11.6938 21.6446 11.7534 21.2555C11.813 20.8663 11.7797 20.4686 11.6564 20.0948C11.5331 19.7209 11.3232 19.3815 11.0438 19.1042C10.7644 18.8268 10.4234 18.6195 10.0487 18.4989C9.67391 18.3784 9.27597 18.3481 8.88729 18.4105C8.49861 18.473 8.13018 18.6264 7.81203 18.8582C7.49389 19.0901 7.23503 19.3939 7.05656 19.7447C6.87809 20.0956 6.78506 20.4837 6.78505 20.8774V20.8864C6.78663 20.9717 6.76984 21.0564 6.7358 21.1347C6.70177 21.213 6.65129 21.2831 6.58779 21.3401C6.52429 21.3972 6.44926 21.4399 6.36779 21.4654C6.28632 21.4909 6.20031 21.4986 6.11561 21.4879C5.77718 21.4487 5.43431 21.4791 5.10804 21.5772C4.78177 21.6752 4.479 21.839 4.21831 22.0583C3.95761 22.2777 3.74451 22.548 3.59207 22.8526C3.43963 23.1573 3.35109 23.49 3.33186 23.8301C3.31264 24.1703 3.36315 24.5107 3.48029 24.8307C3.59743 25.1506 3.77872 25.4432 4.01304 25.6905C4.24737 25.9378 4.52977 26.1346 4.84291 26.2688C5.15605 26.4031 5.49332 26.4718 5.83401 26.471C6.22849 26.4716 6.61737 26.3777 6.96809 26.1971C7.19504 26.0828 7.45316 26.046 7.70301 26.0922C7.95287 26.1384 8.18072 26.2652 8.35177 26.4531L11.7566 30.1446L14.7108 27.422Z" fill="#EEF0F5" stroke="#DAE1EA" stroke-width="0.68096" stroke-miterlimit="10"/>
<path d="M21.5434 29.8679C20.1969 29.8679 17.9863 28.1015 17.0634 27.0276C16.7334 26.6186 16.3244 26.2803 15.8608 26.0326C15.3973 25.7849 14.8886 25.6331 14.3651 25.586C13.8417 25.539 13.3141 25.5978 12.8138 25.7588C12.3136 25.9199 11.8508 26.1799 11.4531 26.5235C11.0554 26.8671 10.7309 27.2872 10.4989 27.7588C10.2669 28.2304 10.1321 28.7438 10.1026 29.2686C10.0731 29.7933 10.1495 30.3186 10.3272 30.8132C10.5049 31.3078 10.7803 31.7616 11.137 32.1476C12.1047 33.2663 13.5844 36.195 13.5844 37.827C13.5834 39.4026 14.0498 40.9431 14.9245 42.2536C15.7992 43.564 17.043 44.5856 18.4984 45.189C19.9539 45.7925 21.5557 45.9506 23.101 45.6435C24.6464 45.3363 26.066 44.5777 27.1801 43.4636C28.2942 42.3495 29.0528 40.93 29.3599 39.3846C29.6671 37.8392 29.5089 36.2375 28.9055 34.782C28.3021 33.3265 27.2805 32.0827 25.97 31.208C24.6595 30.3333 23.119 29.8669 21.5434 29.8679Z" fill="#FFE8C8" stroke="#FDD9B4" stroke-width="0.68096" stroke-miterlimit="10"/>
<path d="M41.7572 45.4149C42.4958 46.9611 41.3169 48.7749 41.3169 48.7749C41.3169 48.7749 39.3278 48.7288 38.4279 47.0033C37.5754 45.3662 38.7505 43.395 38.7505 43.395C38.7505 43.395 40.9879 43.8021 41.7572 45.4149Z" fill="#87FFD6" stroke="#00FAB4" stroke-width="0.68096" stroke-miterlimit="10"/>
<path d="M39.338 28.1682C38.3614 29.5762 36.202 29.4482 36.202 29.4482C36.202 29.4482 35.2548 27.6985 36.307 26.0613C37.3041 24.5087 39.5991 24.5497 39.5991 24.5497C39.5991 24.5497 40.3556 26.7001 39.338 28.1682Z" fill="#87FFD6" stroke="#00FAB4" stroke-width="0.68096" stroke-miterlimit="10"/>
<path d="M56.5847 42.0036C55.027 42.7179 53.2311 41.5121 53.2311 41.5121C53.2311 41.5121 53.3067 39.5243 55.0462 38.65C56.6948 37.8219 58.6494 39.0251 58.6494 39.0251C58.6494 39.0251 58.2091 41.26 56.5847 42.0036Z" fill="#87FFD6" stroke="#00FAB4" stroke-width="0.68096" stroke-miterlimit="10"/>
<path d="M43.0756 53.8054C44.7418 53.8054 46.0925 52.4547 46.0925 50.7884C46.0925 49.1222 44.7418 47.7715 43.0756 47.7715C41.4094 47.7715 40.0586 49.1222 40.0586 50.7884C40.0586 52.4547 41.4094 53.8054 43.0756 53.8054Z" fill="#FBDFD9" stroke="#F4AF9F" stroke-width="0.68096" stroke-miterlimit="10"/>
<path d="M38.282 53.8054C39.9483 53.8054 41.299 52.4547 41.299 50.7884C41.299 49.1222 39.9483 47.7715 38.282 47.7715C36.6158 47.7715 35.2651 49.1222 35.2651 50.7884C35.2651 52.4547 36.6158 53.8054 38.282 53.8054Z" fill="#FDEDA5" stroke="#FBDF63" stroke-width="0.68096" stroke-miterlimit="10"/>
<path d="M54.0887 53.8476C57.6509 53.8476 60.5387 50.9599 60.5387 47.3977C60.5387 43.8355 57.6509 40.9478 54.0887 40.9478C50.5265 40.9478 47.6388 43.8355 47.6388 47.3977C47.6388 50.9599 50.5265 53.8476 54.0887 53.8476Z" fill="#FDEDA5" stroke="#FBDF63" stroke-width="0.68096" stroke-miterlimit="10"/>
<path d="M47.6388 47.3977H54.0887H60.5374" stroke="#FBDF63" stroke-width="0.68096" stroke-miterlimit="10"/>
<path d="M54.0887 53.8476V47.3977V40.9478" stroke="#FBDF63" stroke-width="0.68096" stroke-miterlimit="10"/>
<path d="M49.5281 42.8369L54.0887 47.3976L58.6494 51.9582" stroke="#FBDF63" stroke-width="0.68096" stroke-miterlimit="10"/>
<path d="M49.5281 51.9582L54.0887 47.3976L58.6494 42.8369" stroke="#FBDF63" stroke-width="0.68096" stroke-miterlimit="10"/>
<path d="M55.7706 58.0281H9.61896C8.00488 58.0281 4.65768 56.7136 4.65768 55.0995C4.65768 54.7675 4.78957 54.4491 5.02434 54.2143C5.25911 53.9795 5.57752 53.8477 5.90952 53.8477H59.4903C59.8223 53.8477 60.1407 53.9795 60.3755 54.2143C60.6103 54.4491 60.7422 54.7675 60.7422 55.0995C60.737 56.7136 57.3847 58.0281 55.7706 58.0281Z" fill="#CCFFFF" stroke="#CCEEFF" stroke-width="0.68096" stroke-miterlimit="10"/>
<path d="M36.6961 19.8738C37.6033 19.8563 38.4675 19.4837 39.103 18.8359C39.7384 18.1881 40.0944 17.3169 40.0944 16.4095C40.0944 15.502 39.7384 14.6308 39.103 13.983C38.4675 13.3352 37.6033 12.9626 36.6961 12.9451C36.2355 12.954 35.7778 12.8709 35.3498 12.7008C34.9217 12.5307 34.5319 12.2769 34.203 11.9544C33.8742 11.6318 33.613 11.2469 33.4347 10.8222C33.2564 10.3975 33.1645 9.94146 33.1645 9.48083C33.1645 9.0202 33.2564 8.56419 33.4347 8.13948C33.613 7.71477 33.8742 7.32987 34.203 7.0073C34.5319 6.68473 34.9217 6.43096 35.3498 6.26084C35.7778 6.09072 36.2355 6.00766 36.6961 6.01651" stroke="#DAE1EA" stroke-width="0.68096" stroke-miterlimit="10" stroke-linecap="round"/>
<path d="M48.8074 21.9678C49.7147 21.9503 50.5789 21.5777 51.2144 20.9299C51.8498 20.2821 52.2058 19.4109 52.2058 18.5035C52.2058 17.596 51.8498 16.7248 51.2144 16.077C50.5789 15.4292 49.7147 15.0566 48.8074 15.0391C48.3469 15.048 47.8892 14.9649 47.4611 14.7948C47.0331 14.6247 46.6432 14.3709 46.3144 14.0484C45.9856 13.7258 45.7244 13.3409 45.546 12.9162C45.3677 12.4915 45.2759 12.0355 45.2759 11.5748C45.2759 11.1142 45.3677 10.6582 45.546 10.2335C45.7244 9.80876 45.9856 9.42386 46.3144 9.10129C46.6432 8.77873 47.0331 8.52496 47.4611 8.35484C47.8892 8.18471 48.3469 8.10165 48.8074 8.1105" stroke="#DAE1EA" stroke-width="0.68096" stroke-miterlimit="10" stroke-linecap="round"/>
</svg>
