<svg width="64" height="64" viewBox="0 0 64 64" fill="none" xmlns="http://www.w3.org/2000/svg">
<path d="M34.3908 40.7515H29.7367V49.0625H34.3908V40.7515Z" fill="#FFE8C8"/>
<path d="M34.0708 41.0716V48.7427H30.0567V41.0716H34.0708ZM34.7108 40.4316H29.4167V49.3827H34.7108V40.4316Z" fill="#FDD9B4"/>
<path d="M32.1086 40.4316H29.4615V49.3827H32.1086V40.4316Z" fill="#FDD9B4"/>
<path d="M33.8187 4.43167L40.1969 17.3597L54.4625 19.4269C54.828 19.4799 55.1712 19.6342 55.4536 19.8722C55.7359 20.1102 55.946 20.4224 56.0602 20.7736C56.1743 21.1248 56.1879 21.5009 56.0994 21.8594C56.0109 22.2179 55.8239 22.5445 55.5595 22.8022L45.2401 32.8617L47.6721 47.0697C47.7343 47.4336 47.6935 47.8075 47.5543 48.1494C47.4151 48.4912 47.183 48.7873 46.8844 49.0042C46.5857 49.2211 46.2324 49.3502 45.8642 49.3768C45.4961 49.4034 45.1278 49.3265 44.8011 49.1549L32.0446 42.4451L19.2894 49.151C18.9627 49.3227 18.5944 49.3996 18.2263 49.373C17.8581 49.3464 17.5048 49.2173 17.2061 49.0004C16.9075 48.7835 16.6754 48.4874 16.5362 48.1456C16.397 47.8037 16.3562 47.4297 16.4184 47.0659L18.8504 32.8579L8.53357 22.8022C8.26915 22.5445 8.08213 22.2179 7.99365 21.8594C7.90517 21.5009 7.91877 21.1248 8.0329 20.7736C8.14703 20.4224 8.35714 20.1102 8.63948 19.8722C8.92181 19.6342 9.2651 19.4799 9.63053 19.4269L23.8923 17.3546L30.2705 4.43167C30.4337 4.1004 30.6864 3.82143 30.9999 3.62635C31.3134 3.43127 31.6753 3.32788 32.0446 3.32788C32.4139 3.32788 32.7758 3.43127 33.0893 3.62635C33.4029 3.82143 33.6555 4.1004 33.8187 4.43167Z" fill="#FFFFD6"/>
<path d="M40.1969 17.3544L33.8186 4.42645C33.657 4.0944 33.4045 3.81498 33.0905 3.6206C32.7765 3.42622 32.4138 3.32483 32.0446 3.32821V27.7954L40.1969 17.3544Z" fill="#FFF0CF"/>
<path d="M45.2362 32.8617L55.5556 22.8022C55.8192 22.5495 56.0068 22.2281 56.0973 21.8743C56.1878 21.5206 56.1775 21.1485 56.0676 20.8003L32.0446 27.7955L45.2362 32.8617Z" fill="#FFF0CF"/>
<path d="M46.89 48.9961L32.042 27.7954V42.445L44.7985 49.1509C45.1258 49.3265 45.4963 49.4052 45.8668 49.3778C46.2372 49.3503 46.5921 49.2179 46.89 48.9961Z" fill="#FFF0CF"/>
<path d="M32.0446 27.7954L18.8606 32.8617L16.4286 47.0697C16.3636 47.4323 16.4024 47.8059 16.5405 48.1474C16.6787 48.4889 16.9105 48.7844 17.2094 48.9999L32.0446 27.7954Z" fill="#FFF0CF"/>
<path d="M8.02538 20.8003L32.0446 27.7955L23.8923 17.3545L9.6305 19.4268C9.25954 19.4781 8.91109 19.6347 8.62656 19.8782C8.34202 20.1216 8.13336 20.4417 8.02538 20.8003Z" fill="#FFF0CF"/>
<path d="M33.8187 4.43167L40.1969 17.3597L54.4625 19.4269C54.828 19.4799 55.1712 19.6342 55.4536 19.8722C55.7359 20.1102 55.946 20.4224 56.0602 20.7736C56.1743 21.1248 56.1879 21.5009 56.0994 21.8594C56.0109 22.2179 55.8239 22.5445 55.5595 22.8022L45.2401 32.8617L47.6721 47.0697C47.7343 47.4336 47.6935 47.8075 47.5543 48.1494C47.4151 48.4912 47.183 48.7873 46.8844 49.0042C46.5857 49.2211 46.2324 49.3502 45.8642 49.3768C45.4961 49.4034 45.1278 49.3265 44.8011 49.1549L32.0446 42.4451L19.2894 49.151C18.9627 49.3227 18.5944 49.3996 18.2263 49.373C17.8581 49.3464 17.5048 49.2173 17.2061 49.0004C16.9075 48.7835 16.6754 48.4874 16.5362 48.1456C16.397 47.8037 16.3562 47.4297 16.4184 47.0659L18.8504 32.8579L8.53357 22.8022C8.26915 22.5445 8.08213 22.2179 7.99365 21.8594C7.90517 21.5009 7.91877 21.1248 8.0329 20.7736C8.14703 20.4224 8.35714 20.1102 8.63948 19.8722C8.92181 19.6342 9.2651 19.4799 9.63053 19.4269L23.8923 17.3546L30.2705 4.43167C30.4337 4.1004 30.6864 3.82143 30.9999 3.62635C31.3134 3.43127 31.6753 3.32788 32.0446 3.32788C32.4139 3.32788 32.7758 3.43127 33.0893 3.62635C33.4029 3.82143 33.6555 4.1004 33.8187 4.43167V4.43167Z" stroke="#FFF0CF" stroke-width="0.64" stroke-miterlimit="10"/>
<path d="M20.0066 10.2084C19.5862 9.63121 18.7775 9.50413 18.2003 9.92455C17.6231 10.345 17.496 11.1537 17.9165 11.7309L19.1618 13.4406C19.5822 14.0178 20.3909 14.1448 20.9681 13.7244C21.5453 13.304 21.6724 12.4953 21.252 11.9181L20.0066 10.2084Z" fill="#FFFFD6" stroke="#FFF0CF" stroke-width="0.641343" stroke-miterlimit="10"/>
<path d="M11.306 33.9352C10.6295 34.1589 10.2624 34.8888 10.4862 35.5653C10.7099 36.2418 11.4397 36.6089 12.1163 36.3852L14.1202 35.7224C14.7968 35.4987 15.1638 34.7688 14.9401 34.0923C14.7164 33.4158 13.9865 33.0487 13.31 33.2724L11.306 33.9352Z" fill="#FFFFD6" stroke="#FFF0CF" stroke-width="0.64" stroke-miterlimit="10"/>
<path d="M52.0936 36.1762C52.7725 36.3928 53.4984 36.0181 53.7151 35.3393C53.9317 34.6604 53.557 33.9345 52.8782 33.7178L50.8674 33.0761C50.1885 32.8595 49.4626 33.2341 49.2459 33.913C49.0293 34.5918 49.404 35.3178 50.0828 35.5344L52.0936 36.1762Z" fill="#FFFFD6" stroke="#FFF0CF" stroke-width="0.64" stroke-miterlimit="10"/>
<path d="M45.7635 11.6478C46.1793 11.0692 46.0473 10.263 45.4686 9.84715C44.8899 9.43133 44.0837 9.56335 43.6679 10.142L42.4362 11.8561C42.0204 12.4348 42.1524 13.241 42.7311 13.6568C43.3098 14.0726 44.116 13.9406 44.5318 13.3619L45.7635 11.6478Z" fill="#FFFFD6" stroke="#FFF0CF" stroke-width="0.64" stroke-miterlimit="10"/>
<path d="M20.4491 60.2652V52.7555C20.4491 51.4785 20.9559 50.2536 21.8583 49.3501C22.7607 48.4465 23.9848 47.938 25.2619 47.9363H38.8299C40.1062 47.9376 41.3299 48.4453 42.2324 49.3478C43.135 50.2503 43.6426 51.474 43.6439 52.7504V60.2601L20.4491 60.2652Z" fill="#FFE8C8"/>
<path d="M38.8273 48.2613C40.0197 48.2613 41.1633 48.7347 42.0069 49.5773C42.8505 50.42 43.3251 51.563 43.3265 52.7554V59.9452H20.7691V52.7554C20.7704 51.5641 21.2442 50.422 22.0864 49.5796C22.9286 48.7371 24.0706 48.263 25.2619 48.2613H38.8299H38.8273ZM38.8299 47.6213H25.2619C24.5877 47.6213 23.9201 47.7541 23.2973 48.0122C22.6745 48.2702 22.1086 48.6484 21.632 49.1252C21.1553 49.6019 20.7773 50.1679 20.5194 50.7908C20.2615 51.4137 20.1289 52.0813 20.1291 52.7554V60.5852H43.9665V52.7554C43.9665 51.3938 43.4256 50.0879 42.4628 49.1251C41.4999 48.1622 40.1941 47.6213 38.8324 47.6213H38.8299Z" fill="#FDD9B4"/>
<path d="M19.5838 60.2972C19.3451 60.2972 19.1163 60.2024 18.9475 60.0337C18.7787 59.8649 18.6839 59.6361 18.6839 59.3974C18.6839 59.1587 18.7787 58.9299 18.9475 58.7611C19.1163 58.5924 19.3451 58.4976 19.5838 58.4976H44.5054C44.744 58.4976 44.9729 58.5924 45.1417 58.7611C45.3104 58.9299 45.4052 59.1587 45.4052 59.3974C45.4052 59.6361 45.3104 59.8649 45.1417 60.0337C44.9729 60.2024 44.744 60.2972 44.5054 60.2972H19.5838Z" fill="#DAE1EA"/>
<path d="M44.5054 58.8163C44.6592 58.8163 44.8066 58.8774 44.9154 58.9861C45.0241 59.0948 45.0852 59.2423 45.0852 59.3961C45.0852 59.5499 45.0241 59.6974 44.9154 59.8061C44.8066 59.9149 44.6592 59.9759 44.5054 59.9759H19.5838C19.43 59.9759 19.2825 59.9149 19.1738 59.8061C19.065 59.6974 19.0039 59.5499 19.0039 59.3961C19.0039 59.2423 19.065 59.0948 19.1738 58.9861C19.2825 58.8774 19.43 58.8163 19.5838 58.8163H44.5054ZM44.5054 58.1763H19.5838C19.2603 58.1763 18.95 58.3048 18.7212 58.5336C18.4925 58.7623 18.3639 59.0726 18.3639 59.3961C18.3639 59.7196 18.4925 60.0299 18.7212 60.2587C18.95 60.4874 19.2603 60.6159 19.5838 60.6159H44.5054C44.8289 60.6159 45.1392 60.4874 45.3679 60.2587C45.5967 60.0299 45.7252 59.7196 45.7252 59.3961C45.7252 59.0726 45.5967 58.7623 45.3679 58.5336C45.1392 58.3048 44.8289 58.1763 44.5054 58.1763Z" fill="#B9CFDF"/>
<path d="M25.802 55.7992C25.3688 55.7989 24.9491 55.6481 24.6147 55.3726C24.2804 55.0971 24.0522 54.714 23.9691 54.2888C23.9451 54.1704 23.9331 54.0499 23.9332 53.9291V52.8181C23.9336 52.3224 24.1305 51.8472 24.4809 51.4966C24.8312 51.146 25.3064 50.9487 25.802 50.948H38.2859C38.666 50.9491 39.0368 51.0655 39.3493 51.282C39.6617 51.4984 39.9011 51.8047 40.0356 52.1602C40.1159 52.3711 40.1567 52.595 40.1559 52.8206V53.9317C40.1553 54.4274 39.958 54.9027 39.6075 55.2533C39.2569 55.6038 38.7816 55.8011 38.2859 55.8018L25.802 55.7992Z" fill="#DAE1EA"/>
<path d="M38.2859 51.2643C38.4896 51.2636 38.6915 51.3032 38.8799 51.3809C39.0682 51.4585 39.2394 51.5727 39.3834 51.7168C39.5275 51.8608 39.6417 52.032 39.7193 52.2204C39.797 52.4087 39.8366 52.6106 39.8359 52.8143V53.9254C39.8353 54.3363 39.6717 54.7302 39.3812 55.0207C39.0906 55.3113 38.6968 55.4748 38.2859 55.4755H25.802C25.3923 55.4738 24.9999 55.3104 24.7101 55.0208C24.4203 54.7312 24.2565 54.3389 24.2545 53.9292V52.8182C24.2538 52.407 24.4164 52.0123 24.7066 51.7209C24.9968 51.4295 25.3908 51.2653 25.802 51.2643H38.2859ZM38.2859 50.6243H25.802C25.5143 50.6246 25.2295 50.6816 24.9638 50.7921C24.6981 50.9025 24.4568 51.0643 24.2537 51.268C24.0506 51.4717 23.8895 51.7135 23.7799 51.9795C23.6702 52.2455 23.614 52.5305 23.6145 52.8182V53.9292C23.6145 54.5099 23.8451 55.0667 24.2555 55.4774C24.666 55.8881 25.2227 56.119 25.8033 56.1193H38.2871C38.868 56.1193 39.425 55.8886 39.8358 55.4779C40.2465 55.0671 40.4772 54.5101 40.4772 53.9292V52.8182C40.4779 52.5301 40.4217 52.2447 40.3118 51.9784C40.202 51.7121 40.0406 51.4701 39.837 51.2663C39.6335 51.0624 39.3916 50.9008 39.1255 50.7906C38.8593 50.6805 38.5739 50.6239 38.2859 50.6243Z" fill="#B9CFDF"/>
<path d="M39.9204 52.1179L28.5962 55.9656H26.1975C25.7181 55.9656 25.2536 55.799 24.8835 55.4942C24.5134 55.1895 24.2607 54.7656 24.1687 54.2952L34.5137 50.7803H37.9863C38.4065 50.7801 38.8167 50.9081 39.1622 51.147C39.5078 51.386 39.7723 51.7247 39.9204 52.1179Z" fill="white"/>
<path d="M38.2859 51.2643C38.4896 51.2636 38.6915 51.3032 38.8799 51.3809C39.0682 51.4585 39.2394 51.5727 39.3834 51.7168C39.5275 51.8608 39.6417 52.032 39.7193 52.2204C39.797 52.4087 39.8366 52.6106 39.8359 52.8143V53.9254C39.8353 54.3363 39.6717 54.7302 39.3812 55.0207C39.0906 55.3113 38.6968 55.4748 38.2859 55.4755H25.802C25.3923 55.4738 24.9999 55.3104 24.7101 55.0208C24.4203 54.7312 24.2565 54.3389 24.2545 53.9292V52.8182C24.2538 52.407 24.4164 52.0123 24.7066 51.7209C24.9968 51.4295 25.3908 51.2653 25.802 51.2643H38.2859ZM38.2859 50.6243H25.802C25.5143 50.6246 25.2295 50.6816 24.9638 50.7921C24.6981 50.9025 24.4568 51.0643 24.2537 51.268C24.0506 51.4717 23.8895 51.7135 23.7799 51.9795C23.6702 52.2455 23.614 52.5305 23.6145 52.8182V53.9292C23.6145 54.5099 23.8451 55.0667 24.2555 55.4774C24.666 55.8881 25.2227 56.119 25.8033 56.1193H38.2871C38.868 56.1193 39.425 55.8886 39.8358 55.4779C40.2465 55.0671 40.4772 54.5101 40.4772 53.9292V52.8182C40.4779 52.5301 40.4217 52.2447 40.3118 51.9784C40.202 51.7121 40.0406 51.4701 39.837 51.2663C39.6335 51.0624 39.3916 50.9008 39.1255 50.7906C38.8593 50.6805 38.5739 50.6239 38.2859 50.6243Z" fill="#B9CFDF"/>
</svg>
