<svg width="64" height="64" viewBox="0 0 64 64" fill="none" xmlns="http://www.w3.org/2000/svg">
<path d="M39.2217 14.0556C39.3599 13.5477 39.5558 13.0572 39.8054 12.5938C39.5773 12.2727 39.2753 12.0111 38.9249 11.8311C38.5745 11.6511 38.1859 11.558 37.792 11.5596C37.679 11.5597 37.5661 11.567 37.4541 11.5814C37.3016 12.0977 37.0899 12.5947 36.823 13.0623L36.7859 13.125C37.6182 13.3915 38.4266 13.7277 39.2025 14.1298L39.2217 14.0556Z" fill="#B7F9C8" stroke="#88E29F" stroke-width="0.64" stroke-linejoin="round"/>
<path d="M28.9062 12.695C29.6596 12.5419 30.4233 12.4452 31.191 12.4057V9.90974H32.8397V12.4057C33.6104 12.4449 34.3771 12.5416 35.1334 12.695L35.3894 12.2432C35.9999 11.1681 36.2212 9.91553 36.016 8.6964C35.8108 7.47726 35.1917 6.36608 34.263 5.55006L32.0192 3.58398L29.7728 5.55006C28.8434 6.36647 28.2239 7.47843 28.019 8.69841C27.814 9.91838 28.0361 11.1717 28.6477 12.247L28.9062 12.695ZM31.191 6.61502H32.8397V8.2611H31.191V6.61502Z" fill="#FFCCF5" stroke="#FFAEEC" stroke-width="0.64" stroke-miterlimit="10"/>
<path d="M32.0192 24.5772C32.9297 24.5772 33.6678 23.1789 33.6678 21.454C33.6678 19.7291 32.9297 18.3308 32.0192 18.3308C31.1087 18.3308 30.3706 19.7291 30.3706 21.454C30.3706 23.1789 31.1087 24.5772 32.0192 24.5772Z" fill="#CCFFFF" stroke="#CCEEFF" stroke-width="0.68096" stroke-miterlimit="10"/>
<path d="M26.2477 11.5596C25.8537 11.5578 25.4651 11.6508 25.1147 11.8308C24.7642 12.0108 24.4623 12.2725 24.2343 12.5938C24.483 13.0575 24.6783 13.5479 24.8167 14.0556L24.8371 14.1298C25.6126 13.7277 26.4206 13.3916 27.2525 13.125L27.2167 13.0623C26.9485 12.595 26.7358 12.098 26.5831 11.5814C26.4718 11.5671 26.3598 11.5598 26.2477 11.5596Z" fill="#B7F9C8" stroke="#88E29F" stroke-width="0.64" stroke-linejoin="round"/>
<path d="M18.4576 19.2576L18.9696 19.3959C19.394 18.7557 19.8645 18.1473 20.3776 17.5757L18.6086 15.8068L19.7747 14.6407L21.5437 16.4096C22.1153 15.8966 22.7236 15.426 23.3638 15.0016L23.2256 14.4896C22.8973 13.2978 22.1683 12.2555 21.1613 11.5383C20.1543 10.8212 18.931 10.473 17.6973 10.5524L14.7187 10.7508L14.5203 13.7293C14.4409 14.963 14.7891 16.1864 15.5063 17.1934C16.2234 18.2003 17.2657 18.9294 18.4576 19.2576ZM17.4426 12.3085L18.6086 13.4746L17.4426 14.6407L16.2765 13.4746L17.4426 12.3085Z" fill="#FFCCF5" stroke="#FFAEEC" stroke-width="0.64" stroke-miterlimit="10"/>
<path d="M23.2474 11.2C23.6322 10.7907 24.0972 10.4649 24.6134 10.2429C25.1295 10.0209 25.6858 9.90754 26.2477 9.90976H26.3053C26.2657 9.01614 26.396 8.12312 26.6893 7.27808C24.7256 7.77711 22.8442 8.55699 21.1034 9.5936C21.9142 9.98759 22.6424 10.5328 23.2487 11.2H23.2474Z" fill="#B7F9C8" stroke="#88E29F" stroke-width="0.64" stroke-linejoin="round"/>
<path d="M32.0192 29.6999C32.9297 29.6999 33.6678 28.9617 33.6678 28.0512C33.6678 27.1407 32.9297 26.4026 32.0192 26.4026C31.1087 26.4026 30.3706 27.1407 30.3706 28.0512C30.3706 28.9617 31.1087 29.6999 32.0192 29.6999Z" fill="#B3F2F0" stroke="#81EBEB" stroke-width="0.64" stroke-linejoin="round"/>
<path d="M47.4765 35.8374C47.7978 35.6093 48.0596 35.3073 48.2398 34.9569C48.42 34.6065 48.5133 34.218 48.512 33.824C48.512 33.7109 48.5043 33.598 48.489 33.486C47.9731 33.3334 47.4766 33.1216 47.0093 32.855L46.9453 32.8179C46.6792 33.6502 46.3435 34.4586 45.9417 35.2345L46.0147 35.2537C46.5226 35.3919 47.0131 35.5877 47.4765 35.8374Z" fill="#B7F9C8" stroke="#88E29F" stroke-width="0.64" stroke-linejoin="round"/>
<path d="M37.7344 9.90976H37.792C38.3536 9.90771 38.9097 10.0212 39.4256 10.2432C39.9416 10.4651 40.4063 10.7908 40.791 11.2C41.3977 10.5332 42.1258 9.98805 42.9363 9.5936C41.1949 8.5573 39.3131 7.77744 37.3491 7.27808C37.6422 8.1232 37.7729 9.01609 37.7344 9.90976Z" fill="#B7F9C8" stroke="#88E29F" stroke-width="0.64" stroke-linejoin="round"/>
<path d="M13.8778 22.3372V22.2796C13.8756 21.7178 13.989 21.1615 14.2109 20.6453C14.4329 20.1292 14.7587 19.6642 15.168 19.2793C14.5009 18.6729 13.9557 17.9448 13.5616 17.134C12.5257 18.8757 11.7459 20.7574 11.2461 22.7212C12.0911 22.428 12.9842 22.2977 13.8778 22.3372Z" fill="#B7F9C8" stroke="#88E29F" stroke-width="0.64" stroke-linejoin="round"/>
<path d="M29.2313 26.2911C29.4929 25.8784 29.8426 25.5287 30.2553 25.2671C29.3944 24.372 28.8615 23.2121 28.7432 21.9758C28.6249 20.7396 28.9282 19.4996 29.6038 18.4575C27.8697 18.8967 26.2865 19.7962 25.0215 21.0612C23.7566 22.3261 22.857 23.9093 22.4179 25.6434C23.46 24.9679 24.6999 24.6646 25.9362 24.7828C27.1725 24.9011 28.3324 25.434 29.2275 26.295L29.2313 26.2911Z" fill="#B3F2F0" stroke="#81EBEB" stroke-width="0.64" stroke-linejoin="round"/>
<path d="M25.4221 29.6999C27.147 29.6999 28.5453 28.9617 28.5453 28.0512C28.5453 27.1407 27.147 26.4026 25.4221 26.4026C23.6972 26.4026 22.2989 27.1407 22.2989 28.0512C22.2989 28.9617 23.6972 29.6999 25.4221 29.6999Z" fill="#CCFFFF" stroke="#CCEEFF" stroke-width="0.68096" stroke-miterlimit="10"/>
<path d="M18.4435 31.5508C19.3264 35.0058 21.4924 37.9947 24.5009 39.9093C27.5094 41.8239 31.1343 42.5203 34.6381 41.8569C38.1419 41.1935 41.2613 39.2201 43.3616 36.3382C45.4619 33.4563 46.3854 29.8824 45.944 26.3438C45.5026 22.8052 43.7297 19.5676 40.9858 17.2899C38.2419 15.0122 34.7334 13.8655 31.174 14.083C27.6146 14.3006 24.2718 15.8661 21.8257 18.461C19.3797 21.0559 18.0142 24.4852 18.007 28.0513C18.007 29.2318 18.1558 30.4075 18.4499 31.5508H18.4435ZM32.0192 16.507C34.714 16.5081 37.3237 17.4507 39.3971 19.1719L38.3424 20.4391C37.2037 19.4944 35.868 18.8165 34.4333 18.4551C35.0128 19.3478 35.3202 20.3898 35.3178 21.4542C35.3252 22.8762 34.7736 24.2443 33.7818 25.2634C34.1859 25.5192 34.53 25.8593 34.7904 26.2606C35.8142 25.2865 37.1751 24.7462 38.5882 24.7527C39.6646 24.7501 40.7184 25.0615 41.6205 25.6487C41.2608 24.2093 40.5818 22.8694 39.6339 21.7281L40.9011 20.6734C42.7382 22.8871 43.6825 25.7069 43.5492 28.5806C43.4159 31.4542 42.2145 34.1745 40.1804 36.2086C38.1462 38.2427 35.4259 39.4441 32.5523 39.5774C29.6787 39.7108 26.8589 38.7664 24.6451 36.9293L25.6986 35.6609C26.8372 36.6064 28.1735 37.2844 29.609 37.6449C29.0281 36.753 28.7195 35.7114 28.7206 34.6471C28.7131 33.225 29.2648 31.857 30.2566 30.8378C29.8439 30.5763 29.4942 30.2266 29.2326 29.8138C28.2135 30.8057 26.8454 31.3573 25.4234 31.3498C24.359 31.3522 23.317 31.0449 22.4243 30.4654C22.7853 31.9 23.4627 33.2357 24.407 34.3745L23.1398 35.4292C21.7384 33.7426 20.8463 31.6918 20.568 29.5167C20.2896 27.3416 20.6365 25.1323 21.568 23.1471C22.4995 21.162 23.9772 19.4833 25.828 18.3073C27.6789 17.1314 29.8264 16.5069 32.0192 16.507Z" fill="#B3F2F0" stroke="#81EBEB" stroke-width="0.64" stroke-linejoin="round"/>
<path d="M48.512 22.2798C48.5137 21.8857 48.4204 21.497 48.2402 21.1466C48.06 20.7961 47.798 20.4942 47.4765 20.2664C47.0128 20.5151 46.5224 20.7104 46.0147 20.8488L45.9417 20.8692C46.3435 21.6447 46.6792 22.4527 46.9453 23.2846L47.0093 23.2488C47.4762 22.9808 47.9728 22.7681 48.489 22.6152C48.5043 22.504 48.512 22.392 48.512 22.2798Z" fill="#B7F9C8" stroke="#88E29F" stroke-width="0.64" stroke-linejoin="round"/>
<path d="M32.0192 37.7715C32.9297 37.7715 33.6678 36.3732 33.6678 34.6483C33.6678 32.9234 32.9297 31.5251 32.0192 31.5251C31.1087 31.5251 30.3706 32.9234 30.3706 34.6483C30.3706 36.3732 31.1087 37.7715 32.0192 37.7715Z" fill="#CCFFFF" stroke="#CCEEFF" stroke-width="0.68096" stroke-miterlimit="10"/>
<path d="M34.4307 37.6499C36.1665 37.2094 37.7509 36.308 39.0165 35.041C40.2821 33.7741 41.1818 32.1886 41.6205 30.4524C40.7175 31.0399 39.6628 31.3512 38.5856 31.3484C37.1724 31.3554 35.8113 30.8151 34.7878 29.8406C34.5278 30.2421 34.1837 30.5823 33.7792 30.8377C34.771 31.8568 35.3227 33.2249 35.3152 34.647C35.3185 35.7126 35.0111 36.7561 34.4307 37.6499Z" fill="#B3F2F0" stroke="#81EBEB" stroke-width="0.64" stroke-linejoin="round"/>
<path d="M45.5808 36.8448L45.0688 36.7065C44.6444 37.3468 44.1739 37.9551 43.6608 38.5267L45.431 40.2957L44.265 41.4617L42.4947 39.6928C41.9235 40.2057 41.3156 40.6763 40.6758 41.1008L40.8141 41.6128C41.1423 42.8044 41.8712 43.8465 42.8779 44.5637C43.8846 45.2808 45.1076 45.6292 46.3411 45.5501L49.3197 45.3517L49.5194 42.3731C49.5987 41.1392 49.2503 39.9157 48.5329 38.9087C47.8155 37.9018 46.7729 37.1728 45.5808 36.8448ZM46.5958 43.7952L45.4298 42.6278L46.5958 41.4617L47.7632 42.6278L46.5958 43.7952Z" fill="#FFCCF5" stroke="#FFAEEC" stroke-width="0.64" stroke-miterlimit="10"/>
<path d="M40.8128 14.4896L40.6746 15.0016C41.3148 15.426 41.9231 15.8966 42.4947 16.4096L44.2637 14.6407L45.4298 15.8068L43.6608 17.5757C44.1735 18.1476 44.644 18.756 45.0688 19.3959L45.5808 19.2576C46.7727 18.9294 47.815 18.2003 48.5321 17.1934C49.2493 16.1864 49.5975 14.963 49.5181 13.7293L49.3197 10.7508L46.3411 10.5524C45.1074 10.473 43.8841 10.8212 42.8771 11.5383C41.8701 12.2555 41.1411 13.2978 40.8128 14.4896ZM46.5958 12.3136L47.7632 13.4797L46.5958 14.6458L45.4298 13.4797L46.5958 12.3136Z" fill="#FFCCF5" stroke="#FFAEEC" stroke-width="0.64" stroke-miterlimit="10"/>
<path d="M35.1334 43.4087C34.3782 43.5607 33.6128 43.6574 32.8435 43.698V46.1927H31.191V43.698C30.4221 43.6574 29.6572 43.5607 28.9024 43.4087L28.6464 43.8592C28.0358 44.9342 27.8143 46.1867 28.0192 47.4058C28.2242 48.6249 28.843 49.7362 29.7715 50.5524L32.0179 52.5184L34.263 50.5524C35.191 49.7367 35.8098 48.6264 36.0152 47.4081C36.2205 46.1897 36 44.9379 35.3907 43.8631L35.1334 43.4087ZM32.8435 49.4951H31.191V47.8413H32.8397L32.8435 49.4951Z" fill="#FFCCF5" stroke="#FFAEEC" stroke-width="0.64" stroke-miterlimit="10"/>
<path d="M37.792 44.5439C38.186 44.5452 38.5746 44.4519 38.925 44.2716C39.2754 44.0914 39.5773 43.8297 39.8054 43.5084C39.5558 43.045 39.3599 42.5545 39.2217 42.0466L39.2025 41.9736C38.4266 42.3754 37.6182 42.7111 36.7859 42.9772L36.823 43.0412C37.0896 43.5084 37.3014 44.005 37.4541 44.5208C37.566 44.5362 37.6789 44.5439 37.792 44.5439Z" fill="#B7F9C8" stroke="#88E29F" stroke-width="0.64" stroke-linejoin="round"/>
<path d="M38.5856 29.7011C39.895 29.7011 41.088 29.0611 41.7331 28.0512C41.0931 27.0387 39.895 26.4026 38.5856 26.4026C37.2761 26.4026 36.0819 27.0426 35.4381 28.0512C36.0832 29.065 37.2761 29.7011 38.5856 29.7011Z" fill="#CCFFFF" stroke="#CCEEFF" stroke-width="0.68096" stroke-miterlimit="10"/>
<path d="M54.5203 25.8047C53.7043 24.8771 52.5938 24.2589 51.3755 24.054C50.1572 23.8491 48.9055 24.07 47.831 24.6796L47.3805 24.9356C47.5318 25.69 47.6272 26.4545 47.6659 27.223H50.1606V28.8716H47.6659C47.6253 29.6409 47.5286 30.4063 47.3766 31.1615L47.8272 31.4175C48.9018 32.0284 50.1542 32.2503 51.3733 32.0459C52.5924 31.8414 53.7038 31.223 54.5203 30.295L56.4864 28.0473L54.5203 25.8047ZM53.4592 28.8767H51.8093V27.223H53.463L53.4592 28.8767Z" fill="#FFCCF5" stroke="#FFAEEC" stroke-width="0.64" stroke-miterlimit="10"/>
<path d="M50.1606 33.7664V33.824C50.1629 34.3855 50.0496 34.9415 49.8278 35.4575C49.6061 35.9734 49.2806 36.4382 48.8717 36.823C49.5381 37.4297 50.0828 38.1578 50.4768 38.9683C51.5136 37.2271 52.2935 35.3453 52.7923 33.3811C52.0468 33.6395 51.2633 33.7719 50.4742 33.7728C50.3693 33.7728 50.2656 33.7728 50.1606 33.7728V33.7664Z" fill="#B7F9C8" stroke="#88E29F" stroke-width="0.64" stroke-linejoin="round"/>
<path d="M48.8717 19.2793C49.2808 19.6642 49.6063 20.1293 49.8281 20.6454C50.0498 21.1616 50.163 21.7178 50.1606 22.2796V22.3372C51.0543 22.2976 51.9473 22.4279 52.7923 22.7212C52.2933 20.7575 51.5134 18.8761 50.4768 17.1353C50.0833 17.946 49.5385 18.6742 48.8717 19.2805V19.2793Z" fill="#B7F9C8" stroke="#88E29F" stroke-width="0.64" stroke-linejoin="round"/>
<path d="M40.791 44.9038C40.4062 45.3128 39.9414 45.6382 39.4255 45.86C38.9096 46.0817 38.3536 46.195 37.792 46.1928H37.7344C37.774 47.0864 37.6437 47.9794 37.3504 48.8244C39.3144 48.3252 41.1962 47.5453 42.9376 46.5089C42.1262 46.1157 41.3976 45.5709 40.791 44.9038Z" fill="#B7F9C8" stroke="#88E29F" stroke-width="0.64" stroke-linejoin="round"/>
<path d="M15.168 36.823C14.7588 36.4382 14.4331 35.9735 14.2112 35.4576C13.9892 34.9416 13.8757 34.3856 13.8778 33.8239V33.7663C13.7728 33.7663 13.6691 33.7663 13.5642 33.7663C12.7755 33.7686 11.992 33.6388 11.2461 33.3823C11.7454 35.3463 12.5252 37.2281 13.5616 38.9695C13.9553 38.1581 14.5005 37.4295 15.168 36.823Z" fill="#B7F9C8" stroke="#88E29F" stroke-width="0.64" stroke-linejoin="round"/>
<path d="M18.0979 20.8692L18.0237 20.8488C17.516 20.7104 17.0256 20.5151 16.5619 20.2664C16.2406 20.4944 15.9789 20.7963 15.7989 21.1468C15.6189 21.4972 15.5259 21.8858 15.5277 22.2798C15.5279 22.3919 15.5352 22.5039 15.5494 22.6152C16.0661 22.7697 16.5627 22.9845 17.0291 23.2552L17.0931 23.291C17.3593 22.4569 17.6954 21.6468 18.0979 20.8692Z" fill="#B7F9C8" stroke="#88E29F" stroke-width="0.64" stroke-linejoin="round"/>
<path d="M16.215 31.4227L16.6669 31.1667C16.5136 30.4116 16.4169 29.6462 16.3776 28.8768H13.8778V27.223H16.3738C16.413 26.454 16.5097 25.689 16.663 24.9344L16.2112 24.6784C15.1363 24.0678 13.8838 23.8463 12.6646 24.0512C11.4455 24.2561 10.3343 24.875 9.51808 25.8035L7.552 28.0512L9.51808 30.295C10.3342 31.2248 11.446 31.8448 12.666 32.0502C13.8859 32.2556 15.1395 32.034 16.215 31.4227ZM12.233 28.8755H10.583V27.223H12.2291L12.233 28.8755Z" fill="#FFCCF5" stroke="#FFAEEC" stroke-width="0.64" stroke-miterlimit="10"/>
<path d="M26.3053 46.1928H26.2477C25.6859 46.1952 25.1297 46.082 24.6135 45.8602C24.0974 45.6385 23.6324 45.3129 23.2474 44.9038C22.6409 45.5705 21.9128 46.1153 21.1021 46.5089C22.8435 47.5453 24.7253 48.3252 26.6893 48.8244C26.396 47.9794 26.2657 47.0864 26.3053 46.1928Z" fill="#B7F9C8" stroke="#88E29F" stroke-width="0.64" stroke-linejoin="round"/>
<path d="M24.8167 42.0466C24.6785 42.5545 24.4826 43.045 24.233 43.5084C24.4954 43.8751 24.853 44.1632 25.2671 44.3416C25.6813 44.52 26.1363 44.582 26.5831 44.5208C26.7381 44.0044 26.9528 43.5078 27.2231 43.0412L27.2589 42.9772C26.427 42.7111 25.619 42.3754 24.8435 41.9736L24.8167 42.0466Z" fill="#B7F9C8" stroke="#88E29F" stroke-width="0.64" stroke-linejoin="round"/>
<path d="M23.2256 41.6127L23.3638 41.1007C22.7239 40.6759 22.1156 40.2054 21.5437 39.6927L19.7747 41.463L18.6086 40.2969L20.3776 38.5266C19.8642 37.9557 19.3936 37.3478 18.9696 36.7078L18.4576 36.846C17.266 37.1742 16.2238 37.9031 15.5067 38.9098C14.7895 39.9165 14.4412 41.1396 14.5203 42.373L14.7187 45.3516L17.6973 45.5513C18.9311 45.6306 20.1546 45.2822 21.1616 44.5648C22.1686 43.8474 22.8975 42.8048 23.2256 41.6127ZM17.4425 43.7951L16.2765 42.6278L17.4425 41.4617L18.6086 42.6278L17.4425 43.7951Z" fill="#FFCCF5" stroke="#FFAEEC" stroke-width="0.64" stroke-miterlimit="10"/>
<path d="M15.5277 33.824C15.5261 34.2179 15.6192 34.6064 15.7992 34.9568C15.9792 35.3072 16.2408 35.6092 16.5619 35.8374C17.0253 35.5877 17.5158 35.3919 18.0237 35.2537L18.0979 35.2345C17.6958 34.4586 17.3596 33.6502 17.0931 32.8179L17.0291 32.855C16.5621 33.1221 16.0655 33.3338 15.5494 33.486C15.5351 33.5981 15.5279 33.711 15.5277 33.824Z" fill="#B7F9C8" stroke="#88E29F" stroke-width="0.64" stroke-linejoin="round"/>
<path d="M40.7514 41.0292C40.1181 40.3711 39.3834 39.8189 38.5754 39.3933V39.3831C37.5514 38.8506 36.5107 37.6704 35.8682 36.6784C35.6676 36.3687 35.4854 36.0756 35.3216 35.7991H28.9779C28.8141 36.0756 28.6319 36.3687 28.4314 36.6784C27.7914 37.6704 26.7469 38.7136 25.7242 39.2461C24.8024 39.6901 23.9664 40.2938 23.255 41.0292C19.9654 44.4788 20.928 49.7331 20.928 49.7331C20.928 49.7331 24.5619 50.281 27.7184 48.4199C27.575 49.3543 27.3472 50.4 26.9939 51.0887C26.6836 51.7279 26.2539 52.3018 25.728 52.7796V59.1411H38.5702V52.7796C38.0443 52.3018 37.6146 51.7279 37.3043 51.0887C36.9741 50.4487 36.7526 49.4861 36.608 48.6004C39.68 50.2452 43.0771 49.7331 43.0771 49.7331C43.0771 49.7331 44.041 44.4788 40.7514 41.0292Z" fill="#DAE1EA" stroke="#B9CFDF" stroke-width="0.64" stroke-miterlimit="10"/>
<path d="M47.511 52.6463C47.511 52.6463 46.4205 55.6684 44.361 58.3474C43.7917 59.0978 43.1485 59.7891 42.441 60.4108H31.2217C31.4944 59.8886 31.8157 59.3138 32.1843 58.7225C32.2611 58.5945 32.3405 58.4729 32.4211 58.3474C33.4937 56.6962 34.9222 54.9785 36.6541 53.9686C40.7718 51.5686 47.511 52.6463 47.511 52.6463Z" fill="#FFE8C8" stroke="#FDD9B4" stroke-width="0.64" stroke-miterlimit="10"/>
<path d="M33.1443 60.4108H21.9226C21.2146 59.7895 20.5713 59.0982 20.0026 58.3474C17.9469 55.6684 16.855 52.6463 16.855 52.6463C16.855 52.6463 23.5955 51.5686 27.7133 53.9686C29.4438 54.9785 30.8723 56.6962 31.945 58.3474C32.0269 58.4754 32.105 58.6034 32.183 58.7225C32.5517 59.3138 32.873 59.8886 33.1443 60.4108Z" fill="#FFE8C8" stroke="#FDD9B4" stroke-width="0.64" stroke-miterlimit="10"/>
<path d="M36.9062 29.7958C36.9062 32.2278 36.2406 37.1814 32.1702 37.1814C28.0998 37.1814 27.3856 32.2278 27.3856 29.7958C27.3856 27.3638 29.7382 25.3914 32.1702 25.3914C34.6022 25.3914 36.9062 27.3638 36.9062 29.7958Z" fill="#FFE8C8" stroke="#FDD9B4" stroke-width="0.64" stroke-miterlimit="10"/>
<path d="M35.9961 45.4975C33.7395 43.1321 33.3401 39.8911 33.3222 38.0147C32.8458 37.9828 32.3679 37.9798 31.8912 38.0057C31.8912 38.0057 31.1232 43.4751 34.4921 47.0015C37.8611 50.5279 43.0809 49.7369 43.0809 49.7369C43.1561 49.2642 43.1989 48.7869 43.2089 48.3084C41.431 48.2956 38.2809 47.8937 35.9961 45.4975Z" fill="#FFE8C8" stroke="#FDD9B4" stroke-width="0.64" stroke-miterlimit="10"/>
<path d="M28.0064 45.4975C30.263 43.1321 30.6624 39.8911 30.6803 38.0147C31.1567 37.9828 31.6346 37.9798 32.1114 38.0057C32.1114 38.0057 32.8794 43.4751 29.5104 47.0015C26.1414 50.5279 20.9216 49.7369 20.9216 49.7369C20.8464 49.2642 20.8036 48.7869 20.7936 48.3084C22.5779 48.2956 25.7216 47.8937 28.0064 45.4975Z" fill="#FFE8C8" stroke="#FDD9B4" stroke-width="0.64" stroke-miterlimit="10"/>
<path d="M49.705 58.3474H14.5894V60.4108H49.705V58.3474Z" fill="#95EFA8" stroke="#88E29F" stroke-width="0.64" stroke-linejoin="round"/>
</svg>
