<svg width="64" height="64" viewBox="0 0 64 64" fill="none" xmlns="http://www.w3.org/2000/svg">
<path d="M3.83991 28.1498C3.85766 27.616 4.02754 27.0983 4.32957 26.6578C4.63161 26.2173 5.05321 25.8722 5.54475 25.6632C6.03629 25.4542 6.5773 25.39 7.1041 25.4782C7.6309 25.5663 8.12156 25.8031 8.51831 26.1607H8.97271C8.97115 25.7328 9.0677 25.3102 9.25495 24.9255C9.44219 24.5407 9.71515 24.204 10.0529 23.9412C10.3906 23.6784 10.784 23.4965 11.203 23.4096C11.6219 23.3226 12.0553 23.3328 12.4697 23.4394C12.3987 22.9765 12.4305 22.5036 12.5627 22.0543C12.695 21.605 12.9246 21.1904 13.2352 20.8398C13.5457 20.4892 13.9296 20.2113 14.3597 20.0257C14.7897 19.8402 15.2553 19.7516 15.7234 19.7662C16.1915 19.7808 16.6507 19.8983 17.0683 20.1103C17.486 20.3223 17.8518 20.6237 18.1399 20.9929C18.4279 21.3622 18.6312 21.7904 18.7352 22.247C18.8392 22.7037 18.8414 23.1777 18.7417 23.6353C18.9325 23.6039 19.1256 23.5881 19.319 23.5879C20.0505 23.588 20.7649 23.8097 21.3681 24.2237C21.9713 24.6377 22.435 25.2246 22.6982 25.9073C23.0833 25.7289 23.5066 25.6486 23.9303 25.6733C24.354 25.698 24.7651 25.8271 25.1269 26.0491C25.4886 26.271 25.79 26.5789 26.004 26.9454C26.2181 27.3119 26.3383 27.7257 26.3538 28.1498H3.83991Z" fill="#B3F2F0" stroke="#81EBEB" stroke-width="0.64" stroke-linejoin="round"/>
<path d="M55.9705 54.6508C55.9705 47.4982 50.6892 30.4934 43.0207 30.4934C35.3522 30.4934 30.0697 47.4982 30.0697 54.6508C30.0697 61.8035 35.8681 56.3942 43.0207 56.3942C50.1733 56.3942 55.9705 61.8022 55.9705 54.6508Z" fill="#B7F9C8" stroke="#88E29F" stroke-width="0.64" stroke-linejoin="round"/>
<path d="M54.0185 47.3242C53.8482 47.3242 53.6793 47.3319 53.5065 47.3485C53.5065 47.3396 53.5065 47.3319 53.5065 47.3242C53.5079 46.553 53.3394 45.791 53.013 45.0924C52.6865 44.3937 52.21 43.7756 51.6175 43.282C51.025 42.7884 50.331 42.4315 49.5849 42.2365C48.8387 42.0416 48.0588 42.0136 47.3006 42.1543C46.5424 42.2951 45.8245 42.6012 45.1981 43.0509C44.5716 43.5006 44.0519 44.0829 43.6761 44.7562C43.3002 45.4296 43.0773 46.1775 43.0233 46.9468C42.9694 47.7161 43.0856 48.4878 43.3637 49.2071C42.6595 48.8641 41.875 48.7197 41.0948 48.7896C40.3146 48.8594 39.5683 49.1408 38.9362 49.6035C38.3041 50.0662 37.8103 50.6926 37.5078 51.4152C37.2054 52.1378 37.1059 52.9292 37.22 53.7042C37.3341 54.4791 37.6576 55.2083 38.1554 55.813C38.6533 56.4178 39.3067 56.8752 40.0454 57.136C40.784 57.3969 41.5798 57.4512 42.347 57.2932C43.1142 57.1352 43.8238 56.7709 44.3993 56.2394C45.1965 56.9759 46.2427 57.3838 47.3281 57.3812C48.4135 57.3786 49.4577 56.9657 50.2514 56.2253C50.8548 56.8476 51.6029 57.3108 52.4289 57.5734C53.2549 57.8361 54.1331 57.8901 54.9851 57.7305C55.8371 57.571 56.6362 57.203 57.3113 56.6592C57.9863 56.1155 58.5161 55.4131 58.8535 54.6146C59.1908 53.8162 59.3251 52.9466 59.2444 52.0836C59.1637 51.2206 58.8705 50.391 58.391 49.669C57.9115 48.9469 57.2606 48.3549 56.4965 47.9457C55.7324 47.5365 54.8788 47.323 54.0121 47.3242H54.0185Z" fill="#95EFA8" stroke="#88E29F" stroke-width="0.64" stroke-linejoin="round"/>
<path d="M39.2217 53.5885C39.2217 62.793 31.7593 55.8324 22.5548 55.8324C13.3503 55.8324 5.88663 62.793 5.88663 53.5885C5.88663 49.8522 7.00663 44.0256 8.99703 38.4218C11.9116 30.2221 16.6911 22.4973 22.5548 22.4973C26.9554 22.4973 30.7468 26.8493 33.5935 32.4813C37.134 39.488 39.2217 48.4877 39.2217 53.5885Z" fill="#B7F9C8" stroke="#88E29F" stroke-width="0.64" stroke-linejoin="round"/>
<path d="M33.5999 32.4864C31.8431 33.2328 29.9596 33.636 28.0511 33.6743C21.5602 33.8727 21.4822 38.0647 17.9532 38.9466C15.7158 39.506 11.6684 38.9236 9.00344 38.4218C11.918 30.2221 16.6975 22.4973 22.5612 22.4973C26.9554 22.4973 30.7442 26.8493 33.5999 32.4864Z" fill="#95EFA8" stroke="#88E29F" stroke-width="0.64" stroke-linejoin="round"/>
<path d="M49.605 12.823C51.0938 12.823 52.3007 11.6161 52.3007 10.1273C52.3007 8.63854 51.0938 7.43164 49.605 7.43164C48.1162 7.43164 46.9094 8.63854 46.9094 10.1273C46.9094 11.6161 48.1162 12.823 49.605 12.823Z" fill="#FFF7D4" stroke="#FDEDA5" stroke-width="0.64" stroke-linejoin="round"/>
<path d="M49.6063 4.47998H49.605C49.4834 4.47998 49.3849 4.57855 49.3849 4.70014V5.90334C49.3849 6.02493 49.4834 6.1235 49.605 6.1235H49.6063C49.7279 6.1235 49.8265 6.02493 49.8265 5.90334V4.70014C49.8265 4.57855 49.7279 4.47998 49.6063 4.47998Z" fill="#FFF7D4" stroke="#FDEDA5" stroke-width="0.64" stroke-linejoin="round"/>
<path d="M46.286 5.55783L46.285 5.55858C46.1866 5.63005 46.1648 5.76773 46.2363 5.8661L46.9435 6.83951C47.015 6.93788 47.1527 6.95969 47.251 6.88822L47.2521 6.88746C47.3504 6.81599 47.3722 6.67832 47.3008 6.57995L46.5935 5.60654C46.5221 5.50817 46.3844 5.48636 46.286 5.55783Z" fill="#FFF7D4" stroke="#FDEDA5" stroke-width="0.64" stroke-linejoin="round"/>
<path d="M44.2349 8.38022L44.2345 8.38144C44.1969 8.49708 44.2602 8.62128 44.3759 8.65885L45.5202 9.03066C45.6358 9.06824 45.76 9.00495 45.7976 8.88931L45.798 8.88809C45.8356 8.77245 45.7723 8.64825 45.6566 8.61067L44.5123 8.23887C44.3967 8.20129 44.2725 8.26458 44.2349 8.38022Z" fill="#FFF7D4" stroke="#FDEDA5" stroke-width="0.64" stroke-linejoin="round"/>
<path d="M44.234 11.87L44.2344 11.8712C44.272 11.9868 44.3962 12.0501 44.5118 12.0125L45.6561 11.6407C45.7718 11.6032 45.8351 11.4789 45.7975 11.3633L45.7971 11.3621C45.7595 11.2464 45.6353 11.1832 45.5197 11.2207L44.3754 11.5925C44.2597 11.6301 44.1964 11.7543 44.234 11.87Z" fill="#FFF7D4" stroke="#FDEDA5" stroke-width="0.64" stroke-linejoin="round"/>
<path d="M46.285 14.6948L46.286 14.6955C46.3844 14.767 46.522 14.7452 46.5935 14.6468L47.3007 13.6734C47.3722 13.5751 47.3504 13.4374 47.252 13.3659L47.251 13.3652C47.1526 13.2937 47.0149 13.3155 46.9435 13.4139L46.2362 14.3873C46.1648 14.4856 46.1866 14.6233 46.285 14.6948Z" fill="#FFF7D4" stroke="#FDEDA5" stroke-width="0.64" stroke-linejoin="round"/>
<path d="M49.6038 15.7747H49.605C49.7266 15.7747 49.8252 15.6761 49.8252 15.5545V14.3513C49.8252 14.2297 49.7266 14.1311 49.605 14.1311H49.6038C49.4822 14.1311 49.3836 14.2297 49.3836 14.3513V15.5545C49.3836 15.6761 49.4822 15.7747 49.6038 15.7747Z" fill="#FFF7D4" stroke="#FDEDA5" stroke-width="0.64" stroke-linejoin="round"/>
<path d="M52.9245 14.6961L52.9255 14.6953C53.0239 14.6239 53.0457 14.4862 52.9742 14.3878L52.267 13.4144C52.1955 13.316 52.0578 13.2942 51.9595 13.3657L51.9584 13.3664C51.8601 13.4379 51.8383 13.5756 51.9097 13.674L52.617 14.6474C52.6884 14.7457 52.8261 14.7675 52.9245 14.6961Z" fill="#FFF7D4" stroke="#FDEDA5" stroke-width="0.64" stroke-linejoin="round"/>
<path d="M54.9744 11.8734L54.9748 11.8722C55.0123 11.7566 54.949 11.6324 54.8334 11.5948L53.6891 11.223C53.5734 11.1854 53.4492 11.2487 53.4117 11.3644L53.4113 11.3656C53.3737 11.4812 53.437 11.6054 53.5526 11.643L54.6969 12.0148C54.8126 12.0524 54.9368 11.9891 54.9744 11.8734Z" fill="#FFF7D4" stroke="#FDEDA5" stroke-width="0.64" stroke-linejoin="round"/>
<path d="M54.9756 8.38345L54.9752 8.38224C54.9376 8.2666 54.8134 8.20331 54.6977 8.24088L53.5534 8.61269C53.4378 8.65027 53.3745 8.77447 53.4121 8.89011L53.4125 8.89133C53.4501 9.00697 53.5743 9.07025 53.6899 9.03268L54.8342 8.66087C54.9498 8.6233 55.0131 8.49909 54.9756 8.38345Z" fill="#FFF7D4" stroke="#FDEDA5" stroke-width="0.64" stroke-linejoin="round"/>
<path d="M52.9247 5.55887L52.9237 5.55812C52.8253 5.48665 52.6876 5.50845 52.6161 5.60682L51.9089 6.58023C51.8374 6.6786 51.8592 6.81628 51.9576 6.88775L51.9586 6.88851C52.057 6.95998 52.1947 6.93817 52.2662 6.8398L52.9734 5.86639C53.0449 5.76802 53.0231 5.63034 52.9247 5.55887Z" fill="#FFF7D4" stroke="#FDEDA5" stroke-width="0.64" stroke-linejoin="round"/>
<path d="M53.5679 16.192C53.55 15.6584 53.38 15.141 53.0781 14.7007C52.7761 14.2604 52.3547 13.9155 51.8634 13.7066C51.3721 13.4976 50.8313 13.4334 50.3047 13.5213C49.7781 13.6092 49.2876 13.8456 48.8908 14.2028H48.4351C48.4361 13.4582 48.1414 12.7437 47.6158 12.2164C47.0901 11.689 46.3765 11.392 45.6319 11.3907C45.4 11.3912 45.1691 11.4208 44.9446 11.479C45.0157 11.0161 44.984 10.5432 44.8518 10.0938C44.7196 9.64452 44.4901 9.22981 44.1797 8.87914C43.8692 8.52848 43.4853 8.25046 43.0553 8.06482C42.6253 7.87919 42.1597 7.79048 41.6916 7.805C41.2234 7.81952 40.7642 7.93692 40.3466 8.14885C39.9289 8.36078 39.563 8.66206 39.2749 9.03129C38.9867 9.40052 38.7834 9.82866 38.6793 10.2853C38.5752 10.742 38.5729 11.2159 38.6726 11.6736C37.8524 11.5416 37.0118 11.6954 36.2916 12.1092C35.5713 12.5231 35.0151 13.1718 34.7161 13.9468C34.3305 13.7667 33.9062 13.685 33.4813 13.709C33.0564 13.733 32.6441 13.862 32.2812 14.0845C31.9184 14.3069 31.6164 14.6159 31.4022 14.9837C31.188 15.3514 31.0684 15.7666 31.054 16.192H53.5679Z" fill="#B3F2F0" stroke="#81EBEB" stroke-width="0.64" stroke-linejoin="round"/>
<path d="M21.175 49.3439C20.6623 49.3431 20.1532 49.4297 19.6697 49.5999C19.1794 47.1986 17.4079 45.4194 15.2972 45.4194C13.1417 45.4194 11.3407 47.2729 10.8953 49.7497C10.0863 49.3802 9.18619 49.2583 8.30814 49.3994C7.43009 49.5404 6.61338 49.938 5.96085 50.5423C5.30831 51.1465 4.84912 51.9302 4.64107 52.7949C4.43302 53.6595 4.48543 54.5663 4.79168 55.4012C5.09793 56.2362 5.64435 56.9618 6.36213 57.4868C7.07992 58.0119 7.93698 58.3128 8.82544 58.3518C9.71389 58.3907 10.594 58.166 11.355 57.7058C12.116 57.2456 12.7238 56.5706 13.102 55.7657C13.7455 56.2156 14.5107 56.459 15.2959 56.4633C15.9608 56.4602 16.6133 56.2837 17.189 55.9513C17.5611 56.6584 18.1144 57.2539 18.7923 57.6768C19.4701 58.0998 20.2482 58.335 21.0469 58.3583C21.8456 58.3817 22.6361 58.1923 23.3375 57.8097C24.0389 57.4271 24.6261 56.8649 25.0388 56.1807C25.4515 55.4966 25.675 54.715 25.6863 53.9161C25.6977 53.1172 25.4965 52.3296 25.1034 51.634C24.7103 50.9384 24.1393 50.3598 23.4491 49.9574C22.7588 49.555 21.974 49.3433 21.175 49.3439Z" fill="#95EFA8" stroke="#88E29F" stroke-width="0.64" stroke-linejoin="round"/>
<path d="M37.7049 49.8176C37.4672 49.8174 37.23 49.8375 36.9958 49.8777C36.6026 48.4749 35.7616 47.239 34.6008 46.3586C33.44 45.4781 32.0232 45.0013 30.5663 45.0009C30.317 45.0014 30.0679 45.0155 29.8201 45.0432C29.7905 44.3904 29.5872 43.7574 29.2311 43.2095C28.875 42.6616 28.3791 42.2187 27.7946 41.9266C27.21 41.6345 26.5581 41.5038 25.9062 41.5479C25.2543 41.5921 24.6259 41.8095 24.0861 42.1777C23.5463 42.5459 23.1146 43.0516 22.8356 43.6425C22.5566 44.2334 22.4405 44.888 22.4991 45.5388C22.5578 46.1896 22.7892 46.8129 23.1694 47.3444C23.5495 47.8759 24.0647 48.2962 24.6617 48.5619C23.951 49.91 23.723 51.4608 24.0156 52.9564C24.3082 54.4521 25.1037 55.8026 26.2701 56.7835C27.4364 57.7644 28.9033 58.3167 30.427 58.3486C31.9506 58.3804 33.4393 57.89 34.6457 56.9587C35.1282 57.464 35.7285 57.8417 36.3929 58.0581C37.0573 58.2744 37.7649 58.3225 38.4524 58.1981C39.14 58.0738 39.7859 57.7808 40.3324 57.3455C40.8789 56.9102 41.3089 56.3461 41.5838 55.7037C41.8588 55.0614 41.9701 54.3609 41.9078 53.665C41.8455 52.9691 41.6116 52.2995 41.2269 51.7162C40.8423 51.1329 40.319 50.6542 39.7038 50.3228C39.0887 49.9915 38.401 49.8179 37.7023 49.8176H37.7049Z" fill="#95EFA8" stroke="#88E29F" stroke-width="0.55552" stroke-linejoin="round"/>
<path d="M4.08438 55.8311H60.2021V56.6976C60.2021 57.4272 59.9123 58.1268 59.3965 58.6427C58.8806 59.1585 58.181 59.4483 57.4514 59.4483H6.8351C6.10556 59.4483 5.40591 59.1585 4.89005 58.6427C4.37419 58.1268 4.08438 57.4272 4.08438 56.6976V55.8311Z" fill="#FDD9B4" stroke="#FAB684" stroke-width="0.64" stroke-linejoin="round"/>
</svg>
