<svg width="64" height="64" viewBox="0 0 64 64" fill="none" xmlns="http://www.w3.org/2000/svg">
<path d="M47.936 26.0642C47.9852 25.8692 48.0245 25.6718 48.0537 25.4728C48.2016 24.4792 48.0925 23.4643 47.7368 22.5248C47.3812 21.5853 46.7908 20.7526 46.022 20.106C45.2532 19.4594 44.3316 19.0205 43.3451 18.8311C42.3586 18.6417 41.34 18.7081 40.3864 19.0241C39.4328 19.34 38.576 19.8949 37.8978 20.6359C37.2195 21.3769 36.7423 22.2792 36.5117 23.257C36.2811 24.2347 36.3047 25.2552 36.5804 26.2212C36.856 27.1871 37.3745 28.0664 38.0864 28.7752C37.1679 30.114 36.6829 31.7028 36.6973 33.3263C36.7117 34.9499 37.2247 36.5298 38.1668 37.8521C39.1089 39.1744 40.4346 40.1753 41.9644 40.7192C43.4942 41.2631 45.1542 41.3237 46.7196 40.8928C48.285 40.462 49.6802 39.5604 50.7162 38.3103C51.7522 37.0602 52.379 35.5219 52.5118 33.9037C52.6445 32.2856 52.2768 30.6657 51.4583 29.2634C50.6399 27.8612 49.4102 26.7444 47.936 26.0642Z" fill="#BFA586" stroke="#CEB4A7" stroke-width="0.64" stroke-miterlimit="10"/>
<path d="M15.1603 26.0641C15.1101 25.8693 15.0703 25.6719 15.0413 25.4727C14.8912 24.4774 14.9988 23.4602 15.3538 22.5183C15.7088 21.5763 16.2993 20.7412 17.069 20.0925C17.8387 19.4438 18.7619 19.0033 19.7503 18.813C20.7388 18.6227 21.7595 18.689 22.7151 19.0055C23.6706 19.3221 24.529 19.8783 25.2083 20.6211C25.8877 21.3639 26.3652 22.2684 26.5954 23.2484C26.8256 24.2283 26.8007 25.2509 26.5231 26.2184C26.2456 27.186 25.7246 28.0663 25.0099 28.7751C25.9284 30.114 26.4134 31.7027 26.399 33.3263C26.3846 34.9498 25.8716 36.5297 24.9295 37.8521C23.9874 39.1744 22.6617 40.1753 21.1319 40.7191C19.6021 41.263 17.9421 41.3236 16.3767 40.8928C14.8113 40.4619 13.4161 39.5604 12.3801 38.3103C11.3441 37.0602 10.7173 35.5219 10.5845 33.9037C10.4518 32.2855 10.8195 30.6656 11.638 29.2634C12.4564 27.8612 13.686 26.7443 15.1603 26.0641Z" fill="#BFA586" stroke="#CEB4A7" stroke-width="0.64" stroke-miterlimit="10"/>
<path d="M55.7978 57.9656H8.192C8.02226 57.9656 7.85948 57.8981 7.73945 57.7781C7.61943 57.6581 7.552 57.4953 7.552 57.3256C7.59168 49.7326 8.35968 43.0036 13.2237 38.6606C16.8077 35.4606 22.6163 33.5547 31.9949 33.5547C41.3734 33.5547 47.1834 35.4593 50.7674 38.6606C55.6314 43.0036 56.3994 49.7326 56.4378 57.3256C56.4378 57.4096 56.4212 57.4928 56.389 57.5705C56.3569 57.6481 56.3097 57.7187 56.2503 57.7781C56.1909 57.8375 56.1203 57.8847 56.0427 57.9169C55.965 57.949 55.8818 57.9656 55.7978 57.9656Z" fill="#FBDFD9" stroke="#F4AF9F" stroke-width="0.64" stroke-miterlimit="10"/>
<path d="M31.9949 33.5535C22.6163 33.5535 16.8077 35.4581 13.2237 38.6594C8.35968 43.0024 7.59168 49.7314 7.552 57.3243C7.552 57.4941 7.61943 57.6569 7.73945 57.7769C7.85948 57.8969 8.02226 57.9643 8.192 57.9643H32L31.9949 33.5535Z" fill="#FFCCF5" stroke="#FFAEEC" stroke-width="0.64" stroke-miterlimit="10"/>
<path d="M39.2358 57.9656H24.7552L26.7251 49.0479H37.2659L39.2358 57.9656Z" fill="#FDEDA5" stroke="#FBDF63" stroke-width="0.68096" stroke-miterlimit="10"/>
<path d="M50.7674 38.6594C48.192 45.2565 40.7603 50.0245 31.9949 50.0245C23.2294 50.0245 15.799 45.2565 13.2237 38.6594C16.8077 35.4594 22.6163 33.5535 31.9949 33.5535C41.3734 33.5535 47.1834 35.4581 50.7674 38.6594Z" fill="white" stroke="#EEF0F5" stroke-width="0.64" stroke-miterlimit="10"/>
<path d="M55.7978 57.9656H8.192C8.02226 57.9656 7.85948 57.8981 7.73945 57.7781C7.61943 57.6581 7.552 57.4953 7.552 57.3256C7.59168 49.7326 8.35968 43.0036 13.2237 38.6606C16.8077 35.4606 22.6163 33.5547 31.9949 33.5547C41.3734 33.5547 47.1834 35.4593 50.7674 38.6606C55.6314 43.0036 56.3994 49.7326 56.4378 57.3256C56.4378 57.4096 56.4212 57.4928 56.389 57.5705C56.3569 57.6481 56.3097 57.7187 56.2503 57.7781C56.1909 57.8375 56.1203 57.8847 56.0427 57.9169C55.965 57.949 55.8818 57.9656 55.7978 57.9656Z" stroke="#F4AF9F" stroke-width="0.64" stroke-miterlimit="10"/>
<path d="M20.0717 17.355V30.114H20.0806C20.1999 33.1812 21.5021 36.083 23.7143 38.2109C25.9265 40.3388 28.8768 41.5274 31.9462 41.5274C35.0157 41.5274 37.966 40.3388 40.1782 38.2109C42.3903 36.083 43.6926 33.1812 43.8118 30.114H43.8221V17.355H20.0717Z" fill="#FFE8C8" stroke="#FDD9B4" stroke-width="0.64" stroke-miterlimit="10"/>
<path d="M38.6931 12.4681L32.6771 6.4521C32.5823 6.35512 32.4691 6.27795 32.3442 6.22507C32.2193 6.17219 32.0851 6.14465 31.9495 6.14405C31.8139 6.14346 31.6795 6.16982 31.5541 6.2216C31.4287 6.27338 31.3149 6.34955 31.2192 6.4457L25.2032 12.4617C25.108 12.5575 24.9949 12.6335 24.8702 12.6854C24.7455 12.7372 24.6118 12.7639 24.4768 12.7639C24.3418 12.7639 24.2081 12.7372 24.0834 12.6854C23.9588 12.6335 23.8456 12.5575 23.7504 12.4617L21.824 10.5417C21.6809 10.3964 21.4977 10.2971 21.2978 10.2566C21.098 10.2161 20.8906 10.2361 20.7022 10.3142C20.5138 10.3924 20.353 10.5249 20.2405 10.695C20.1279 10.865 20.0687 11.0648 20.0704 11.2687V22.0271H43.8221V11.2751C43.8254 11.0704 43.7672 10.8694 43.6551 10.6981C43.5429 10.5267 43.382 10.3929 43.1931 10.314C43.0042 10.235 42.7959 10.2145 42.5952 10.2551C42.3945 10.2957 42.2106 10.3955 42.0672 10.5417L40.1472 12.4617C40.0524 12.5581 39.9395 12.6348 39.815 12.6873C39.6904 12.7398 39.5567 12.7672 39.4215 12.7678C39.2863 12.7684 39.1524 12.7422 39.0273 12.6908C38.9023 12.6393 38.7887 12.5637 38.6931 12.4681Z" fill="#FDEDA5" stroke="#FBDF63" stroke-width="0.68096" stroke-miterlimit="10"/>
<path d="M33.0317 14.7978C33.0317 14.2252 32.5678 13.761 31.9955 13.761C31.4233 13.761 30.9594 14.2252 30.9594 14.7978V18.1463C30.9594 18.7189 31.4233 19.1831 31.9955 19.1831C32.5678 19.1831 33.0317 18.7189 33.0317 18.1463V14.7978Z" fill="#FBDFD9" stroke="#F4AF9F" stroke-width="0.64" stroke-miterlimit="10"/>
<path d="M24.5005 17.2732C24.943 17.2732 25.3017 16.9145 25.3017 16.4719C25.3017 16.0294 24.943 15.6707 24.5005 15.6707C24.0579 15.6707 23.6992 16.0294 23.6992 16.4719C23.6992 16.9145 24.0579 17.2732 24.5005 17.2732Z" fill="#87FFD6" stroke="#00FAB4" stroke-width="0.64" stroke-miterlimit="10"/>
<path d="M39.4906 17.2732C39.9331 17.2732 40.2918 16.9145 40.2918 16.4719C40.2918 16.0294 39.9331 15.6707 39.4906 15.6707C39.048 15.6707 38.6893 16.0294 38.6893 16.4719C38.6893 16.9145 39.048 17.2732 39.4906 17.2732Z" fill="#87FFD6" stroke="#00FAB4" stroke-width="0.64" stroke-miterlimit="10"/>
<path d="M37.824 32.1737C37.7226 32.0852 37.6049 32.0176 37.4774 31.9747C37.3499 31.9318 37.2152 31.9144 37.081 31.9236C36.9468 31.9327 36.8157 31.9682 36.6953 32.028C36.5748 32.0879 36.4673 32.1708 36.3789 32.2722C36.073 32.6229 35.5482 32.9967 35.3549 32.9993C35.04 32.9993 34.8237 32.7881 34.3706 32.2709C33.8586 31.686 33.1571 30.886 31.945 30.886C30.7328 30.886 30.025 31.686 29.513 32.2709C29.0598 32.7829 28.8435 32.9993 28.5286 32.9993C28.3392 32.9993 27.8234 32.6293 27.5046 32.2722C27.4162 32.1709 27.3087 32.0879 27.1882 32.0281C27.0678 31.9683 26.9367 31.9328 26.8025 31.9237C26.6683 31.9145 26.5336 31.9319 26.4061 31.9748C26.2787 32.0177 26.1609 32.0852 26.0595 32.1737C25.9582 32.2621 25.8752 32.3696 25.8154 32.4901C25.7556 32.6105 25.7201 32.7416 25.7109 32.8758C25.7018 33.01 25.7192 33.1447 25.7621 33.2722C25.805 33.3996 25.8725 33.5174 25.961 33.6188C26.1696 33.8569 27.2704 35.046 28.521 35.0473C29.801 35.0473 30.5178 34.2229 31.0464 33.6201C31.4637 33.1439 31.6749 32.934 31.9309 32.934C32.1869 32.934 32.3981 33.1439 32.8166 33.6201C33.344 34.2229 34.0659 35.0473 35.3408 35.0473C36.5939 35.0473 37.696 33.8569 37.9008 33.6188C38.0821 33.4169 38.1758 33.1513 38.1614 32.8803C38.147 32.6094 38.0256 32.3552 37.824 32.1737Z" fill="#BFA586" stroke="#CEB4A7" stroke-width="0.64" stroke-miterlimit="10"/>
</svg>
