<svg width="64" height="64" viewBox="0 0 64 64" fill="none" xmlns="http://www.w3.org/2000/svg">
<path d="M34.1398 40.7542H29.4857V49.0652H34.1398V40.7542Z" fill="#FFE8C8"/>
<path d="M33.8198 41.0743V48.7454H29.8057V41.0743H33.8198ZM34.4598 40.4343H29.1657V49.3854H34.4598V40.4343Z" fill="#FDD9B4"/>
<path d="M31.8576 40.4343H29.2105V49.3854H31.8576V40.4343Z" fill="#FDD9B4"/>
<path d="M33.5677 4.43424L39.9459 17.3622L54.2077 19.4346C54.5731 19.4876 54.9164 19.6419 55.1987 19.8799C55.4811 20.1178 55.6912 20.4301 55.8053 20.7813C55.9194 21.1325 55.933 21.5086 55.8445 21.8671C55.7561 22.2256 55.569 22.5522 55.3046 22.8099L44.984 32.8694L47.416 47.0774C47.4785 47.4412 47.438 47.8152 47.299 48.1571C47.1599 48.4991 46.928 48.7953 46.6294 49.0122C46.3308 49.2292 45.9774 49.3583 45.6093 49.3848C45.2411 49.4114 44.8729 49.3344 44.5462 49.1626L31.7936 42.4477L19.0371 49.1536C18.7104 49.3253 18.3421 49.4022 17.974 49.3755C17.6058 49.3489 17.2525 49.2199 16.9538 49.003C16.6552 48.7861 16.4231 48.49 16.2839 48.1481C16.1447 47.8063 16.1039 47.4323 16.1661 47.0685L18.5981 32.8605L8.28255 22.8048C8.01813 22.547 7.83111 22.2204 7.74263 21.8619C7.65415 21.5034 7.66774 21.1273 7.78187 20.7762C7.89601 20.425 8.10612 20.1127 8.38845 19.8747C8.67079 19.6367 9.01408 19.4825 9.37951 19.4294L23.6413 17.3571L30.0195 4.42912C30.1832 4.09808 30.4362 3.81947 30.75 3.62485C31.0639 3.43022 31.4259 3.32735 31.7952 3.32788C32.1645 3.32842 32.5262 3.43233 32.8395 3.62786C33.1527 3.82339 33.405 4.10273 33.5677 4.43424Z" fill="#EEF0F5"/>
<path d="M39.9459 17.3571L33.5677 4.42913C33.4059 4.09718 33.1534 3.81784 32.8394 3.62348C32.5254 3.42911 32.1628 3.32766 31.7936 3.33088V27.7981L39.9459 17.3571Z" fill="#DAE1EA"/>
<path d="M44.984 32.8644L55.3046 22.8049C55.5682 22.5522 55.7559 22.2308 55.8464 21.877C55.9368 21.5232 55.9265 21.1512 55.8166 20.803L31.7936 27.7982L44.984 32.8644Z" fill="#DAE1EA"/>
<path d="M46.639 48.9987L31.791 27.7981V42.4477L44.5462 49.1536C44.8737 49.3293 45.2445 49.4081 45.6151 49.3806C45.9858 49.3532 46.3409 49.2207 46.639 48.9987Z" fill="#DAE1EA"/>
<path d="M31.7936 27.7981L18.6096 32.8643L16.1776 47.0723C16.1126 47.4351 16.1515 47.8088 16.2899 48.1504C16.4283 48.4919 16.6605 48.7874 16.9597 49.0026L31.7936 27.7981Z" fill="#DAE1EA"/>
<path d="M7.77438 20.8029L31.7936 27.7981L23.6413 17.3572L9.3795 19.4295C9.00849 19.4806 8.65997 19.6372 8.37541 19.8807C8.09085 20.1242 7.88223 20.4443 7.77438 20.8029Z" fill="#DAE1EA"/>
<path d="M33.5677 4.43424L39.9459 17.3622L54.2077 19.4346C54.5731 19.4876 54.9164 19.6419 55.1987 19.8799C55.4811 20.1178 55.6912 20.4301 55.8053 20.7813C55.9194 21.1325 55.933 21.5086 55.8445 21.8671C55.7561 22.2256 55.569 22.5522 55.3046 22.8099L44.984 32.8694L47.416 47.0774C47.4785 47.4412 47.438 47.8152 47.2989 48.1571C47.1599 48.4991 46.928 48.7953 46.6294 49.0122C46.3308 49.2292 45.9774 49.3583 45.6093 49.3848C45.2411 49.4114 44.8729 49.3344 44.5462 49.1626L31.7936 42.4477L19.0371 49.1536C18.7104 49.3253 18.3421 49.4022 17.974 49.3755C17.6058 49.3489 17.2525 49.2199 16.9538 49.003C16.6552 48.7861 16.4231 48.49 16.2839 48.1481C16.1447 47.8063 16.1039 47.4323 16.1661 47.0685L18.5981 32.8605L8.28255 22.8048C8.01813 22.547 7.83111 22.2204 7.74263 21.8619C7.65415 21.5034 7.66774 21.1273 7.78187 20.7762C7.89601 20.425 8.10612 20.1127 8.38845 19.8747C8.67079 19.6367 9.01408 19.4825 9.37951 19.4294L23.6413 17.3571L30.0195 4.42912C30.1832 4.09808 30.4362 3.81947 30.75 3.62485C31.0639 3.43022 31.4259 3.32735 31.7952 3.32788C32.1645 3.32842 32.5262 3.43233 32.8395 3.62786C33.1527 3.82339 33.405 4.10273 33.5677 4.43424V4.43424Z" stroke="#DAE1EA" stroke-width="0.64" stroke-miterlimit="10"/>
<path d="M17.385 6.61055C16.9631 6.03626 16.1556 5.91269 15.5813 6.33455C15.007 6.75641 14.8835 7.56394 15.3053 8.13823L19.3321 13.6201C19.754 14.1944 20.5615 14.3179 21.1358 13.8961C21.7101 13.4742 21.8337 12.6667 21.4118 12.0924L17.385 6.61055Z" fill="#EEF0F5" stroke="#DAE1EA" stroke-width="0.64" stroke-miterlimit="10"/>
<path d="M6.60101 35.4103C5.92447 35.634 5.55741 36.3639 5.78115 37.0404C6.0049 37.7169 6.73472 38.084 7.41127 37.8603L13.8692 35.7245C14.5457 35.5008 14.9128 34.7709 14.689 34.0944C14.4653 33.4178 13.7355 33.0508 13.0589 33.2745L6.60101 35.4103Z" fill="#EEF0F5" stroke="#DAE1EA" stroke-width="0.64" stroke-miterlimit="10"/>
<path d="M56.5881 37.591C57.2651 37.8048 57.9872 37.4293 58.2009 36.7523C58.4147 36.0754 58.0392 35.3533 57.3623 35.1395L50.9005 33.099C50.2235 32.8852 49.5014 33.2607 49.2877 33.9376C49.0739 34.6146 49.4494 35.3366 50.1263 35.5504L56.5881 37.591Z" fill="#EEF0F5" stroke="#DAE1EA" stroke-width="0.637595" stroke-miterlimit="10"/>
<path d="M48.1082 7.96595C48.524 7.38728 48.392 6.58108 47.8133 6.16526C47.2346 5.74944 46.4284 5.88146 46.0126 6.46014L42.0434 11.9839C41.6276 12.5625 41.7596 13.3687 42.3383 13.7846C42.917 14.2004 43.7232 14.0684 44.139 13.4897L48.1082 7.96595Z" fill="#EEF0F5" stroke="#DAE1EA" stroke-width="0.64" stroke-miterlimit="10"/>
<path d="M20.1968 60.2679V52.7582C20.1968 51.4809 20.7038 50.2559 21.6065 49.3523C22.5091 48.4487 23.7336 47.9403 25.0109 47.939H38.5789C39.855 47.9407 41.0784 48.4484 41.9806 49.3509C42.8828 50.2534 43.3903 51.4769 43.3917 52.753V60.2628L20.1968 60.2679Z" fill="#FFE8C8"/>
<path d="M38.5763 48.264C39.7677 48.2654 40.9098 48.7393 41.7521 49.5819C42.5944 50.4244 43.0681 51.5667 43.0691 52.7581V59.9479H20.5168V52.7581C20.5181 51.5666 20.992 50.4243 21.8346 49.5818C22.6771 48.7393 23.8194 48.2654 25.0109 48.264H38.5788H38.5763ZM38.5788 47.624H25.0109C23.6492 47.624 22.3433 48.1649 21.3805 49.1278C20.4177 50.0906 19.8768 51.3965 19.8768 52.7581V60.5879H43.7091V52.7581C43.7093 52.0839 43.5766 51.4164 43.3187 50.7935C43.0609 50.1706 42.6828 49.6046 42.2062 49.1278C41.7295 48.6511 41.1636 48.2729 40.5408 48.0149C39.918 47.7568 39.2504 47.624 38.5763 47.624H38.5788Z" fill="#FDD9B4"/>
<path d="M19.3328 60.2999C19.0941 60.2999 18.8653 60.2051 18.6965 60.0364C18.5278 59.8676 18.433 59.6387 18.433 59.4001C18.433 59.1614 18.5278 58.9326 18.6965 58.7638C18.8653 58.595 19.0941 58.5002 19.3328 58.5002H44.2544C44.493 58.5002 44.7219 58.595 44.8907 58.7638C45.0594 58.9326 45.1542 59.1614 45.1542 59.4001C45.1542 59.6387 45.0594 59.8676 44.8907 60.0364C44.7219 60.2051 44.493 60.2999 44.2544 60.2999H19.3328Z" fill="#DAE1EA"/>
<path d="M44.2544 58.819C44.4082 58.819 44.5557 58.88 44.6644 58.9888C44.7731 59.0975 44.8342 59.245 44.8342 59.3988C44.8342 59.5526 44.7731 59.7001 44.6644 59.8088C44.5557 59.9175 44.4082 59.9786 44.2544 59.9786H19.3328C19.179 59.9786 19.0315 59.9175 18.9228 59.8088C18.814 59.7001 18.7529 59.5526 18.7529 59.3988C18.7529 59.245 18.814 59.0975 18.9228 58.9888C19.0315 58.88 19.179 58.819 19.3328 58.819H44.2544ZM44.2544 58.179H19.3328C19.1725 58.1788 19.0138 58.2102 18.8658 58.2715C18.7177 58.3327 18.5832 58.4226 18.4699 58.5359C18.3565 58.6492 18.2667 58.7837 18.2055 58.9318C18.1442 59.0799 18.1128 59.2386 18.1129 59.3988C18.1129 59.7223 18.2415 60.0326 18.4702 60.2614C18.699 60.4901 19.0093 60.6186 19.3328 60.6186H44.2544C44.5779 60.6186 44.8882 60.4901 45.1169 60.2614C45.3457 60.0326 45.4742 59.7223 45.4742 59.3988C45.4742 59.0753 45.3457 58.765 45.1169 58.5362C44.8882 58.3075 44.5779 58.179 44.2544 58.179Z" fill="#B9CFDF"/>
<path d="M25.551 55.8019C25.1177 55.8014 24.6979 55.6506 24.3634 55.3751C24.0289 55.0997 23.8004 54.7167 23.7168 54.2915C23.6939 54.173 23.6823 54.0525 23.6822 53.9318V52.8208C23.6826 52.3251 23.8795 51.8498 24.2299 51.4992C24.5802 51.1486 25.0554 50.9514 25.551 50.9507H38.0361C38.2818 50.9505 38.525 50.9988 38.752 51.0927C38.979 51.1866 39.1852 51.3244 39.3589 51.498C39.5325 51.6717 39.6703 51.878 39.7642 52.1049C39.8581 52.3319 39.9064 52.5751 39.9062 52.8208V53.9318C39.9055 54.4276 39.7083 54.9028 39.3577 55.2534C39.0072 55.604 38.5319 55.8012 38.0361 55.8019H25.551Z" fill="#DAE1EA"/>
<path d="M38.0361 51.267C38.3509 51.2678 38.6579 51.364 38.9168 51.543C39.1757 51.7219 39.3743 51.9751 39.4864 52.2692C39.5528 52.4442 39.5866 52.6299 39.5862 52.817V53.9281C39.5866 54.3396 39.4235 54.7345 39.1328 55.0259C38.8422 55.3173 38.4477 55.4813 38.0361 55.482H25.551C25.1405 55.4806 24.7471 55.3169 24.4569 55.0264C24.1667 54.736 24.0032 54.3425 24.0022 53.9319V52.8209C24.0019 52.6171 24.0417 52.4153 24.1193 52.227C24.197 52.0387 24.311 51.8674 24.4548 51.7231C24.5986 51.5788 24.7695 51.4643 24.9575 51.386C25.1456 51.3078 25.3473 51.2673 25.551 51.267H38.0361ZM38.0361 50.627H25.551C24.9704 50.6273 24.4137 50.8582 24.0032 51.2689C23.5928 51.6795 23.3622 52.2364 23.3622 52.817V53.9281C23.3622 54.5087 23.5928 55.0656 24.0032 55.4762C24.4137 55.8869 24.9704 56.1178 25.551 56.1182H38.0361C38.3238 56.1182 38.6085 56.0615 38.8743 55.9514C39.14 55.8414 39.3814 55.6801 39.5848 55.4767C39.7881 55.2733 39.9495 55.0319 40.0595 54.7662C40.1696 54.5005 40.2262 54.2157 40.2262 53.9281V52.817C40.2264 52.5294 40.1699 52.2445 40.0599 51.9787C39.9499 51.7129 39.7885 51.4714 39.5851 51.268C39.3817 51.0646 39.1402 50.9033 38.8745 50.7933C38.6087 50.6833 38.3238 50.6268 38.0361 50.627Z" fill="#B9CFDF"/>
<path d="M39.6694 52.1206L28.3453 55.9682H25.9453C25.466 55.9682 25.0017 55.8015 24.6318 55.4968C24.2619 55.1921 24.0095 54.7682 23.9177 54.2978L34.2614 50.783H37.7341C38.1543 50.7829 38.5647 50.9109 38.9104 51.1498C39.2562 51.3888 39.5209 51.7274 39.6694 52.1206Z" fill="white"/>
<path d="M38.0361 51.267C38.3509 51.2678 38.6579 51.364 38.9168 51.543C39.1757 51.7219 39.3743 51.9751 39.4864 52.2692C39.5528 52.4442 39.5866 52.6299 39.5862 52.817V53.9281C39.5866 54.3396 39.4235 54.7345 39.1328 55.0259C38.8422 55.3173 38.4477 55.4813 38.0361 55.482H25.551C25.1405 55.4806 24.7471 55.3169 24.4569 55.0264C24.1667 54.736 24.0032 54.3425 24.0022 53.9319V52.8209C24.0019 52.6171 24.0417 52.4153 24.1193 52.227C24.197 52.0387 24.311 51.8674 24.4548 51.7231C24.5986 51.5788 24.7695 51.4643 24.9575 51.386C25.1456 51.3078 25.3473 51.2673 25.551 51.267H38.0361ZM38.0361 50.627H25.551C24.9704 50.6273 24.4137 50.8582 24.0032 51.2689C23.5928 51.6795 23.3622 52.2364 23.3622 52.817V53.9281C23.3622 54.5087 23.5928 55.0656 24.0032 55.4762C24.4137 55.8869 24.9704 56.1178 25.551 56.1182H38.0361C38.3238 56.1182 38.6085 56.0615 38.8743 55.9514C39.14 55.8414 39.3814 55.6801 39.5848 55.4767C39.7881 55.2733 39.9495 55.0319 40.0595 54.7662C40.1696 54.5005 40.2262 54.2157 40.2262 53.9281V52.817C40.2264 52.5294 40.1699 52.2445 40.0599 51.9787C39.9499 51.7129 39.7885 51.4714 39.5851 51.268C39.3817 51.0646 39.1402 50.9033 38.8745 50.7933C38.6087 50.6833 38.3238 50.6268 38.0361 50.627Z" fill="#B9CFDF"/>
</svg>
