<svg width="64" height="64" viewBox="0 0 64 64" fill="none" xmlns="http://www.w3.org/2000/svg">
<path d="M34.4573 40.4258H29.8035V48.7362H34.4573V40.4258Z" fill="#FFE8C8"/>
<path d="M34.1386 40.7459V48.4113H30.1235V40.7459H34.1386ZM34.7785 40.106H29.4836V49.0512H34.7785V40.106Z" fill="#FDD9B4"/>
<path d="M32.1752 40.106H29.5284V49.0564H32.1752V40.106Z" fill="#FDD9B4"/>
<path d="M33.8864 4.10856L40.2642 17.0356L54.525 19.1014C54.8903 19.1547 55.2334 19.309 55.5155 19.5471C55.7977 19.7851 56.0076 20.0974 56.1216 20.4485C56.2355 20.7996 56.249 21.1756 56.1605 21.534C56.072 21.8924 55.8849 22.2189 55.6206 22.4765L45.3019 32.5404L47.7338 46.7474C47.7964 47.1113 47.756 47.4855 47.6169 47.8276C47.4779 48.1697 47.2458 48.4661 46.947 48.6831C46.6482 48.9001 46.2946 49.0291 45.9263 49.0555C45.558 49.0819 45.1896 49.0046 44.8629 48.8324L32.1112 42.1193L19.3633 48.8247C19.0366 48.9964 18.6684 49.0732 18.3003 49.0466C17.9321 49.02 17.5788 48.891 17.2802 48.6741C16.9815 48.4572 16.7495 48.1611 16.6103 47.8193C16.4711 47.4775 16.4303 47.1035 16.4925 46.7397L18.9243 32.5328L8.60314 22.4778C8.33836 22.2201 8.15103 21.8934 8.06233 21.5348C7.97364 21.1761 7.98713 20.7998 8.10129 20.4484C8.21544 20.097 8.4257 19.7846 8.70825 19.5465C8.9908 19.3085 9.33435 19.1543 9.70002 19.1014L23.9595 17.0292L30.3373 4.10216C30.5012 3.77126 30.7545 3.49284 31.0685 3.29841C31.3824 3.10398 31.7445 3.00129 32.1138 3.00196C32.4831 3.00262 32.8449 3.10662 33.1581 3.30218C33.4714 3.49774 33.7237 3.77707 33.8864 4.10856Z" fill="#DAE1EA"/>
<path d="M40.2629 17.0304L33.8864 4.10332C33.7252 3.77063 33.4729 3.49044 33.159 3.29518C32.845 3.09992 32.4822 2.99759 32.1125 3.00004V27.4706L40.2629 17.0304Z" fill="#B9CFDF"/>
<path d="M45.3019 32.5402L55.6206 22.4815C55.8844 22.2292 56.0723 21.9081 56.1628 21.5545C56.2532 21.2008 56.2428 20.8289 56.1325 20.481L32.1112 27.4705L45.3019 32.5402Z" fill="#B9CFDF"/>
<path d="M46.9569 48.6671L32.1099 27.468V42.1191L44.8655 48.8246C45.193 48.9998 45.5637 49.078 45.9341 49.0501C46.3045 49.0223 46.6593 48.8894 46.9569 48.6671Z" fill="#B9CFDF"/>
<path d="M32.1112 27.4707L18.9218 32.5404L16.4899 46.7474C16.4266 47.1081 16.4658 47.4793 16.6032 47.8187C16.7405 48.1581 16.9705 48.4522 17.2668 48.6673L32.1112 27.4707Z" fill="#B9CFDF"/>
<path d="M8.10013 20.4773L32.1112 27.4707L23.9595 17.0305L9.70001 19.1014C9.32969 19.1538 8.98215 19.3112 8.69858 19.5551C8.41502 19.7989 8.20733 20.119 8.10013 20.4773Z" fill="#B9CFDF"/>
<path d="M18.9218 32.5404L8.60314 22.4778C8.33928 22.2256 8.15144 21.9044 8.06094 21.5508C7.97044 21.1972 7.98092 20.8253 8.09117 20.4773L32.1112 27.4707L18.9218 32.5404Z" fill="#DAE1EA"/>
<path d="M33.8864 4.10856L40.2642 17.0356L54.525 19.1014C54.8903 19.1547 55.2334 19.309 55.5155 19.5471C55.7977 19.7851 56.0076 20.0974 56.1216 20.4485C56.2355 20.7996 56.249 21.1756 56.1605 21.534C56.072 21.8924 55.8849 22.2189 55.6206 22.4765L45.3019 32.5404L47.7338 46.7474C47.7964 47.1113 47.756 47.4855 47.6169 47.8276C47.4779 48.1697 47.2458 48.4661 46.947 48.6831C46.6482 48.9001 46.2946 49.0291 45.9263 49.0555C45.558 49.0819 45.1896 49.0046 44.8629 48.8324L32.1112 42.1193L19.3633 48.8247C19.0366 48.9964 18.6684 49.0732 18.3003 49.0466C17.9321 49.02 17.5788 48.891 17.2802 48.6741C16.9815 48.4572 16.7495 48.1611 16.6103 47.8193C16.4711 47.4775 16.4303 47.1035 16.4925 46.7397L18.9243 32.5328L8.60314 22.4778C8.33836 22.2201 8.15103 21.8934 8.06233 21.5348C7.97364 21.1761 7.98713 20.7998 8.10129 20.4484C8.21544 20.097 8.4257 19.7846 8.70825 19.5465C8.9908 19.3085 9.33435 19.1543 9.70002 19.1014L23.9595 17.0292L30.3373 4.10216C30.5012 3.77126 30.7545 3.49284 31.0685 3.29841C31.3824 3.10398 31.7445 3.00129 32.1138 3.00196C32.4831 3.00262 32.8449 3.10662 33.1581 3.30218C33.4714 3.49774 33.7237 3.77707 33.8864 4.10856V4.10856Z" stroke="#B9CFDF" stroke-width="0.574679" stroke-miterlimit="10"/>
<path d="M21.7304 11.7663C21.3086 11.1921 20.5011 11.0685 19.9269 11.4904C19.3526 11.9122 19.2291 12.7197 19.6509 13.2939C20.0727 13.8682 20.8802 13.9917 21.4544 13.5699C22.0287 13.1481 22.1523 12.3406 21.7304 11.7663Z" fill="#DAE1EA" stroke="#B9CFDF" stroke-width="0.639954" stroke-miterlimit="10"/>
<path d="M13.3785 32.9478C12.702 33.1716 12.3349 33.9013 12.5586 34.5778C12.7824 35.2543 13.5122 35.6214 14.1886 35.3976C14.8651 35.1739 15.2322 34.4441 15.0084 33.7676C14.7847 33.0912 14.0549 32.7241 13.3785 32.9478Z" fill="#DAE1EA" stroke="#B9CFDF" stroke-width="0.639954" stroke-miterlimit="10"/>
<path d="M50.1491 35.2082C50.8279 35.4249 51.5538 35.0502 51.7704 34.3714C51.9871 33.6926 51.6124 32.9667 50.9336 32.7501C50.2548 32.5335 49.5289 32.9081 49.3123 33.5869C49.0957 34.2657 49.4703 34.9916 50.1491 35.2082Z" fill="#DAE1EA" stroke="#B9CFDF" stroke-width="0.639954" stroke-miterlimit="10"/>
<path d="M44.4561 13.1635C44.8719 12.5849 44.7399 11.7788 44.1613 11.363C43.5827 10.9472 42.7765 11.0792 42.3607 11.6578C41.9449 12.2364 42.077 13.0426 42.6556 13.4584C43.2342 13.8742 44.0404 13.7422 44.4561 13.1635Z" fill="#DAE1EA" stroke="#B9CFDF" stroke-width="0.639954" stroke-miterlimit="10"/>
<path d="M20.5152 59.9379V52.4287C20.5166 51.1525 21.0242 49.9289 21.9266 49.0264C22.8291 48.1239 24.0527 47.6163 25.329 47.615H38.896C40.1723 47.6163 41.3959 48.1239 42.2983 49.0264C43.2008 49.9289 43.7084 51.1525 43.7097 52.4287V59.9379H20.5152Z" fill="#FFE8C8"/>
<path d="M38.8934 47.9351C40.0848 47.9365 41.227 48.4104 42.0695 49.2528C42.9119 50.0953 43.3858 51.2375 43.3872 52.4289V59.6181H20.8365V52.4289C20.8378 51.2375 21.3117 50.0953 22.1542 49.2528C22.9966 48.4104 24.1388 47.9365 25.3302 47.9351H38.8973H38.8934ZM38.8973 47.2952H25.3302C23.9687 47.2952 22.6629 47.836 21.7002 48.7988C20.7374 49.7616 20.1965 51.0673 20.1965 52.4289V60.2581H44.0271V52.4289C44.0271 51.0673 43.4863 49.7616 42.5235 48.7988C41.5608 47.836 40.255 47.2952 38.8934 47.2952H38.8973Z" fill="#FDD9B4"/>
<path d="M19.6513 59.97C19.4127 59.97 19.1838 59.8752 19.0151 59.7064C18.8463 59.5377 18.7515 59.3088 18.7515 59.0702C18.7515 58.8316 18.8463 58.6027 19.0151 58.4339C19.1838 58.2652 19.4127 58.1704 19.6513 58.1704H44.5775C44.8161 58.1704 45.045 58.2652 45.2137 58.4339C45.3825 58.6027 45.4773 58.8316 45.4773 59.0702C45.4773 59.3088 45.3825 59.5377 45.2137 59.7064C45.045 59.8752 44.8161 59.97 44.5775 59.97H19.6513Z" fill="#DAE1EA"/>
<path d="M44.5775 58.4905C44.7313 58.4905 44.8788 58.5516 44.9875 58.6604C45.0962 58.7691 45.1573 58.9166 45.1573 59.0703C45.1573 59.2241 45.0962 59.3716 44.9875 59.4803C44.8788 59.589 44.7313 59.6501 44.5775 59.6501H19.6513C19.4975 59.6501 19.3501 59.589 19.2413 59.4803C19.1326 59.3716 19.0715 59.2241 19.0715 59.0703C19.0715 58.9166 19.1326 58.7691 19.2413 58.6604C19.3501 58.5516 19.4975 58.4905 19.6513 58.4905H44.5775ZM44.5775 57.8506H19.6513C19.3278 57.8506 19.0176 57.9791 18.7888 58.2078C18.5601 58.4366 18.4315 58.7468 18.4315 59.0703C18.4315 59.3938 18.5601 59.7041 18.7888 59.9328C19.0176 60.1616 19.3278 60.2901 19.6513 60.2901H44.5775C44.901 60.2901 45.2113 60.1616 45.44 59.9328C45.6688 59.7041 45.7973 59.3938 45.7973 59.0703C45.7973 58.7468 45.6688 58.4366 45.44 58.2078C45.2113 57.9791 44.901 57.8506 44.5775 57.8506Z" fill="#B9CFDF"/>
<path d="M25.8704 55.4724C25.437 55.4722 25.0172 55.3215 24.6826 55.046C24.3481 54.7705 24.1196 54.3874 24.0363 53.9621C24.0133 53.8436 24.0017 53.7232 24.0017 53.6025V52.4915C24.002 51.9959 24.199 51.5207 24.5493 51.1701C24.8997 50.8195 25.3748 50.6223 25.8704 50.6216H38.3533C38.5991 50.6211 38.8427 50.6691 39.0699 50.7628C39.2971 50.8566 39.5037 50.9943 39.6776 51.168C39.8515 51.3417 39.9895 51.548 40.0836 51.7751C40.1777 52.0023 40.226 52.2457 40.2258 52.4915V53.6025C40.2251 54.0982 40.0279 54.5735 39.6774 54.924C39.3268 55.2745 38.8516 55.4718 38.3559 55.4724H25.8704Z" fill="#DAE1EA"/>
<path d="M38.3533 50.9415C38.5569 50.9413 38.7585 50.9813 38.9467 51.0591C39.1348 51.1369 39.3057 51.2511 39.4497 51.3951C39.5936 51.539 39.7078 51.71 39.7856 51.8981C39.8635 52.0862 39.9035 52.2878 39.9033 52.4914V53.6024C39.9026 54.0133 39.7391 54.4071 39.4486 54.6976C39.158 54.9882 38.7642 55.1517 38.3533 55.1524H25.8704C25.6667 55.1529 25.465 55.1131 25.2768 55.0354C25.0886 54.9577 24.9176 54.8435 24.7737 54.6994C24.6298 54.5554 24.5157 54.3843 24.4382 54.196C24.3606 54.0078 24.321 53.806 24.3217 53.6024V52.4914C24.3217 52.0806 24.4848 51.6865 24.7752 51.3959C25.0656 51.1053 25.4595 50.9418 25.8704 50.9415H38.3533ZM38.3533 50.3015H25.8704C25.2898 50.3019 24.7331 50.5327 24.3227 50.9434C23.9123 51.354 23.6817 51.9109 23.6817 52.4914V53.6024C23.6817 54.183 23.9123 54.7398 24.3227 55.1505C24.7331 55.5611 25.2898 55.792 25.8704 55.7923H38.3533C38.9341 55.7923 39.4911 55.5616 39.9018 55.1509C40.3125 54.7402 40.5432 54.1832 40.5432 53.6024V52.4914C40.5434 52.2038 40.4869 51.919 40.3769 51.6532C40.2669 51.3874 40.1056 51.1459 39.9022 50.9426C39.6988 50.7392 39.4573 50.5779 39.1916 50.4679C38.9258 50.3579 38.6409 50.3013 38.3533 50.3015Z" fill="#B9CFDF"/>
<path d="M39.9878 51.7927L28.6631 55.6388H26.2646C25.7852 55.6388 25.3208 55.4722 24.9507 55.1675C24.5806 54.8628 24.3279 54.4389 24.2359 53.9685L34.5801 50.459H38.05C38.4701 50.4585 38.8805 50.5858 39.2266 50.824C39.5727 51.0622 39.8382 51.4 39.9878 51.7927Z" fill="white"/>
<path d="M38.3533 50.9415C38.5569 50.9413 38.7585 50.9813 38.9467 51.0591C39.1348 51.1369 39.3057 51.2511 39.4497 51.3951C39.5936 51.539 39.7078 51.71 39.7856 51.8981C39.8635 52.0862 39.9035 52.2878 39.9033 52.4914V53.6024C39.9026 54.0133 39.7391 54.4071 39.4486 54.6976C39.158 54.9882 38.7642 55.1517 38.3533 55.1524H25.8704C25.6667 55.1529 25.465 55.1131 25.2768 55.0354C25.0886 54.9577 24.9176 54.8435 24.7737 54.6994C24.6298 54.5554 24.5157 54.3843 24.4382 54.196C24.3606 54.0078 24.321 53.806 24.3217 53.6024V52.4914C24.3217 52.0806 24.4848 51.6865 24.7752 51.3959C25.0656 51.1053 25.4595 50.9418 25.8704 50.9415H38.3533ZM38.3533 50.3015H25.8704C25.2898 50.3019 24.7331 50.5327 24.3227 50.9434C23.9123 51.354 23.6817 51.9109 23.6817 52.4914V53.6024C23.6817 54.183 23.9123 54.7398 24.3227 55.1505C24.7331 55.5611 25.2898 55.792 25.8704 55.7923H38.3533C38.9341 55.7923 39.4911 55.5616 39.9018 55.1509C40.3125 54.7402 40.5432 54.1832 40.5432 53.6024V52.4914C40.5434 52.2038 40.4869 51.919 40.3769 51.6532C40.2669 51.3874 40.1056 51.1459 39.9022 50.9426C39.6988 50.7392 39.4573 50.5779 39.1916 50.4679C38.9258 50.3579 38.6409 50.3013 38.3533 50.3015Z" fill="#B9CFDF"/>
</svg>
