<svg width="64" height="64" viewBox="0 0 64 64" fill="none" xmlns="http://www.w3.org/2000/svg">
<path d="M8.33938 33.7141C8.33927 34.2959 8.36832 34.8774 8.42642 35.4562H3.89906C3.86322 34.8794 3.8453 34.2987 3.8453 33.7141C3.83512 26.2611 6.78439 19.1089 12.045 13.8293L16.9435 18.7317C14.3247 20.2588 12.152 22.4459 10.6423 25.0748C9.13252 27.7037 8.33849 30.6826 8.33938 33.7141Z" fill="#FFFFD6" stroke="#FFF0CF" stroke-width="0.64" stroke-miterlimit="10"/>
<path d="M32.0552 5.50417V17.5797C29.6127 16.619 26.9844 16.2237 24.3673 16.4232C21.7502 16.6227 19.2122 17.4119 16.9435 18.7317L12.045 13.8293C14.664 11.1872 17.7812 9.09093 21.216 7.6619C24.6508 6.23287 28.335 5.49947 32.0552 5.50417Z" fill="#FDEDA5" stroke="#FBDF63" stroke-width="0.68096" stroke-miterlimit="10"/>
<path d="M60.2638 33.7141C60.2638 34.299 60.2472 34.8789 60.2101 35.4561H42.9493C43.3255 31.6969 42.4653 27.9176 40.4993 24.6915C38.5333 21.4653 35.5687 18.9685 32.0552 17.5797V5.50415C47.6341 5.50415 60.2638 18.1339 60.2638 33.7141Z" fill="#FBDFD9" stroke="#F4AF9F" stroke-width="0.68096" stroke-linejoin="round"/>
<path d="M48.3547 30.1609L49.4504 24.6428L43.8325 24.9231L29.6475 36.118L35.213 42.5641L48.3547 30.1609Z" fill="#B3F2F0" stroke="#81EBEB" stroke-width="0.64" stroke-linejoin="round"/>
<path d="M32.4302 43.5996C34.7821 43.5996 36.6888 41.693 36.6888 39.3411C36.6888 36.9891 34.7821 35.0825 32.4302 35.0825C30.0783 35.0825 28.1716 36.9891 28.1716 39.3411C28.1716 41.693 30.0783 43.5996 32.4302 43.5996Z" fill="#DAE1EA" stroke="#B9CFDF" stroke-width="0.64" stroke-miterlimit="10"/>
<path d="M60.2638 49.0947V54.0598C60.2638 54.4332 60.1155 54.7913 59.8514 55.0554C59.5874 55.3194 59.2293 55.4678 58.8558 55.4678H13.8933L5.24815 53.2137C4.84511 53.1103 4.48797 52.8756 4.23303 52.5467C3.9781 52.2179 3.83987 51.8135 3.84015 51.3974V46.8585C3.84015 46.5246 3.906 46.1939 4.03395 45.8855C4.16189 45.5771 4.34941 45.2969 4.58577 45.061C4.82213 44.8251 5.10268 44.6382 5.41138 44.5108C5.72008 44.3835 6.05086 44.3183 6.38479 44.319H7.98223L19.1886 39.0134C19.7211 38.7608 20.303 38.6297 20.8923 38.6294H34.8597C35.4822 38.6302 36.0959 38.7766 36.6517 39.0569L37.2328 39.3513L39.2578 40.3753L45.2533 43.3987L45.4184 43.4832L46.2453 43.9004L47.0914 44.328C51.1413 44.392 60.2638 44.918 60.2638 49.0947Z" fill="#B7F9C8" stroke="#88E29F" stroke-width="0.64" stroke-linejoin="round"/>
<path d="M45.2533 43.3984L45.1445 43.4829H21.1803C20.26 43.4829 19.6443 42.9709 19.6443 42.4269C19.6501 42.2903 19.6879 42.1569 19.7546 42.0375C19.8213 41.9182 19.915 41.8161 20.0283 41.7395C21.1483 40.8704 22.7611 40.3738 24.4546 40.3738H39.2603L45.2533 43.3984Z" fill="#95EFA8" stroke="#88E29F" stroke-width="0.64" stroke-linejoin="round"/>
<path d="M45.4222 43.4829H29.3813L26.8917 41.5629C26.783 41.4783 26.7034 41.3619 26.664 41.23C26.6246 41.098 26.6273 40.9571 26.6719 40.8267C26.7164 40.6964 26.8005 40.5832 26.9124 40.5029C27.0243 40.4227 27.1584 40.3793 27.2961 40.3789H39.2667L45.2533 43.3984L45.4222 43.4829Z" fill="#B3F2F0" stroke="#81EBEB" stroke-width="0.64" stroke-linejoin="round"/>
<path d="M36.2306 43.3987L32.5967 40.4636H29.2123L32.8463 43.3987L33.0114 43.4831H36.3957L36.2306 43.3987Z" fill="white" stroke="#81EBEB" stroke-width="0.64" stroke-linejoin="round"/>
<path d="M58.861 52.6518C58.6914 52.65 58.5274 52.5914 58.3952 52.4853C58.2629 52.3793 58.17 52.2319 58.1314 52.0669C57.8195 50.8273 57.1026 49.7273 56.0945 48.9414C55.0864 48.1555 53.8448 47.7288 52.5666 47.7288C51.2883 47.7288 50.0467 48.1555 49.0386 48.9414C48.0305 49.7273 47.3136 50.8273 47.0018 52.0669C46.9635 52.2312 46.8714 52.378 46.7402 52.484C46.6089 52.59 46.446 52.6491 46.2773 52.6518H31.1323L26.628 48.8669H17.3211C16.136 47.9838 14.6557 47.5922 13.189 47.7737C11.7222 47.9551 10.382 48.6957 9.44783 49.8409C9.1031 50.2496 8.64864 50.5511 8.1381 50.7099C7.62756 50.8687 7.08225 50.8781 6.56655 50.7369L5.24815 50.3939C4.84532 50.2905 4.48834 50.056 4.23343 49.7274C3.97851 49.3988 3.84016 48.9947 3.84015 48.5789V51.3859C3.84016 51.8018 3.97851 52.2059 4.23343 52.5345C4.48834 52.8631 4.84532 53.0975 5.24815 53.2009L8.17807 53.9689L13.8933 55.4678H58.861C59.2344 55.4678 59.5925 55.3195 59.8566 55.0554C60.1206 54.7914 60.269 54.4332 60.269 54.0598V51.2528C60.2666 51.6246 60.1172 51.9805 59.8534 52.2426C59.5896 52.5047 59.2328 52.6518 58.861 52.6518Z" fill="#95EFA8" stroke="#88E29F" stroke-width="0.64" stroke-linejoin="round"/>
<path d="M31.4139 52.0551L27.6136 48.9102H32.6926L36.3867 52.0551H31.4139Z" fill="#DAE1EA"/>
<path d="M32.5813 49.2303L35.5253 51.7353H31.5291L28.5019 49.2303H32.5813ZM32.8168 48.5903H26.7253L31.3013 52.3753H37.2584L32.813 48.5903H32.8168Z" fill="#B9CFDF"/>
<path d="M60.2638 49.0947V54.0598C60.2638 54.4332 60.1155 54.7913 59.8514 55.0554C59.5874 55.3194 59.2293 55.4678 58.8558 55.4678H13.8933L5.24815 53.2137C4.84511 53.1103 4.48797 52.8756 4.23303 52.5467C3.9781 52.2179 3.83987 51.8135 3.84015 51.3974V46.8585C3.84015 46.5246 3.906 46.1939 4.03395 45.8855C4.16189 45.5771 4.34941 45.2969 4.58577 45.061C4.82213 44.8251 5.10268 44.6382 5.41138 44.5108C5.72008 44.3835 6.05086 44.3183 6.38479 44.319H7.98223L19.1886 39.0134C19.7211 38.7608 20.303 38.6297 20.8923 38.6294H34.8597C35.4822 38.6302 36.0959 38.7766 36.6517 39.0569L37.2328 39.3513L39.2578 40.3753L45.2533 43.3987L45.4184 43.4832L46.2453 43.9004L47.0914 44.328C51.1413 44.392 60.2638 44.918 60.2638 49.0947Z" stroke="#88E29F" stroke-width="0.64" stroke-linejoin="round"/>
<path d="M13.8933 58.4334C16.1611 58.4334 17.9995 56.595 17.9995 54.3272C17.9995 52.0594 16.1611 50.2209 13.8933 50.2209C11.6254 50.2209 9.78702 52.0594 9.78702 54.3272C9.78702 56.595 11.6254 58.4334 13.8933 58.4334Z" fill="#DAE1EA" stroke="#B9CFDF" stroke-width="0.64" stroke-miterlimit="10"/>
<path d="M13.8933 56.6288C15.1643 56.6288 16.1947 55.5984 16.1947 54.3273C16.1947 53.0563 15.1643 52.0259 13.8933 52.0259C12.6222 52.0259 11.5918 53.0563 11.5918 54.3273C11.5918 55.5984 12.6222 56.6288 13.8933 56.6288Z" fill="#EEF0F5" stroke="#DAE1EA" stroke-width="0.64" stroke-miterlimit="10"/>
<path d="M52.5672 58.4334C54.835 58.4334 56.6734 56.595 56.6734 54.3272C56.6734 52.0594 54.835 50.2209 52.5672 50.2209C50.2994 50.2209 48.461 52.0594 48.461 54.3272C48.461 56.595 50.2994 58.4334 52.5672 58.4334Z" fill="#DAE1EA" stroke="#B9CFDF" stroke-width="0.64" stroke-miterlimit="10"/>
<path d="M52.5672 56.6288C53.8383 56.6288 54.8687 55.5984 54.8687 54.3273C54.8687 53.0563 53.8383 52.0259 52.5672 52.0259C51.2962 52.0259 50.2658 53.0563 50.2658 54.3273C50.2658 55.5984 51.2962 56.6288 52.5672 56.6288Z" fill="#EEF0F5" stroke="#DAE1EA" stroke-width="0.64" stroke-miterlimit="10"/>
</svg>
