<svg width="64" height="64" viewBox="0 0 64 64" fill="none" xmlns="http://www.w3.org/2000/svg">
<path d="M23.232 16.9023H40.768C41.4069 16.9023 42.0196 17.1561 42.4714 17.6079C42.9232 18.0597 43.177 18.6724 43.177 19.3113V52.7193H20.8282V19.3113C20.8282 18.6733 21.0813 18.0613 21.5319 17.6097C21.9826 17.1581 22.594 16.9037 23.232 16.9023Z" fill="#EEF0F5" stroke="#DAE1EA" stroke-width="0.68096" stroke-miterlimit="10"/>
<path d="M42.4051 15.072H21.6051C20.9663 15.0724 20.3538 15.3263 19.9021 15.778C19.4504 16.2297 19.1965 16.8422 19.1962 17.481V53.321H44.8141V17.481C44.8137 16.8422 44.5598 16.2297 44.1081 15.778C43.6564 15.3263 43.0439 15.0724 42.4051 15.072ZM43.1821 52.7207H20.8282V19.3127C20.8278 18.6744 21.0808 18.0621 21.5315 17.6103C21.9822 17.1584 22.5938 16.9038 23.232 16.9024H40.768C41.4069 16.9024 42.0196 17.1562 42.4714 17.608C42.9232 18.0598 43.177 18.6725 43.177 19.3114L43.1821 52.7207Z" fill="#DAE1EA" stroke="#B9CFDF" stroke-width="0.64" stroke-miterlimit="10"/>
<path d="M51.2128 34.1978C48.876 37.0557 45.9333 39.3586 42.5975 40.9401C39.2617 42.5215 35.6162 43.3418 31.9245 43.3418C28.2328 43.3418 24.5873 42.5215 21.2515 40.9401C17.9157 39.3586 14.973 37.0557 12.6362 34.1978H9.82913C12.3407 37.7156 15.6559 40.5829 19.499 42.5612C23.3422 44.5394 27.6021 45.5715 31.9245 45.5715C36.2469 45.5715 40.5068 44.5394 44.3499 42.5612C48.1931 40.5829 51.5083 37.7156 54.0199 34.1978H51.2128Z" fill="#E9E1FF" stroke="#D4C0FF" stroke-width="0.64" stroke-miterlimit="10"/>
<path d="M52.3213 52.7207H11.6877V59.4753H52.3213V52.7207Z" fill="#FBDFD9" stroke="#F4AF9F" stroke-width="0.68096" stroke-linejoin="round"/>
<path d="M12.9024 39.4688H10.473V57.0457H12.9024V39.4688Z" fill="#EEF0F5" stroke="#DAE1EA" stroke-width="0.64" stroke-miterlimit="10"/>
<path d="M12.9024 39.4688H10.473V44.5311H12.9024V39.4688Z" fill="#EEF0F5" stroke="#DAE1EA" stroke-width="0.64" stroke-miterlimit="10"/>
<path d="M14.144 39.4689H9.23649C8.85249 39.4689 8.59649 39.2129 8.72449 38.9773L9.02401 38.4436C9.22625 38.0852 9.74081 37.8484 10.3155 37.8484H13.056C13.6294 37.8484 14.144 38.0852 14.3475 38.4436L14.656 38.9761C14.784 39.2141 14.5203 39.4689 14.144 39.4689Z" fill="#FDEDA5" stroke="#FBDF63" stroke-width="0.64" stroke-miterlimit="10"/>
<path d="M10.3104 57.0444H13.065C13.5589 57.0444 14.0326 57.2407 14.3819 57.5899C14.7311 57.9392 14.9274 58.4129 14.9274 58.9068V59.4739H8.448V58.9068C8.448 58.4129 8.64421 57.9392 8.99348 57.5899C9.34275 57.2407 9.81646 57.0444 10.3104 57.0444Z" fill="#FDEDA5" stroke="#FBDF63" stroke-width="0.64" stroke-miterlimit="10"/>
<path d="M11.6877 37.8484C13.0817 37.8484 14.2118 36.7183 14.2118 35.3242C14.2118 33.9302 13.0817 32.8 11.6877 32.8C10.2936 32.8 9.16353 33.9302 9.16353 35.3242C9.16353 36.7183 10.2936 37.8484 11.6877 37.8484Z" fill="#FDEDA5" stroke="#FBDF63" stroke-width="0.64" stroke-miterlimit="10"/>
<path d="M53.536 39.4688H51.1066V57.0457H53.536V39.4688Z" fill="#EEF0F5" stroke="#DAE1EA" stroke-width="0.64" stroke-miterlimit="10"/>
<path d="M53.536 39.4688H51.1066V44.5311H53.536V39.4688Z" fill="#EEF0F5" stroke="#DAE1EA" stroke-width="0.64" stroke-miterlimit="10"/>
<path d="M54.7738 39.4689H49.8701C49.4861 39.4689 49.2301 39.2129 49.3581 38.9773L49.6602 38.4436C49.8637 38.0852 50.3782 37.8484 50.9517 37.8484H53.696C54.2707 37.8484 54.7853 38.0852 54.9875 38.4436L55.2832 38.9761C55.4176 39.2141 55.1552 39.4689 54.7738 39.4689Z" fill="#FDEDA5" stroke="#FBDF63" stroke-width="0.64" stroke-miterlimit="10"/>
<path d="M50.9453 57.0444H53.696C54.1899 57.0444 54.6636 57.2407 55.0129 57.5899C55.3622 57.9392 55.5584 58.4129 55.5584 58.9068V59.4739H49.088V58.9068C49.088 58.4138 49.2835 57.9408 49.6317 57.5917C49.9798 57.2426 50.4522 57.0458 50.9453 57.0444Z" fill="#FDEDA5" stroke="#FBDF63" stroke-width="0.64" stroke-miterlimit="10"/>
<path d="M52.3226 37.8484C53.7166 37.8484 54.8467 36.7183 54.8467 35.3242C54.8467 33.9302 53.7166 32.8 52.3226 32.8C50.9285 32.8 49.7984 33.9302 49.7984 35.3242C49.7984 36.7183 50.9285 37.8484 52.3226 37.8484Z" fill="#FDEDA5" stroke="#FBDF63" stroke-width="0.64" stroke-miterlimit="10"/>
<path d="M29.495 13.4387H34.5139C34.8626 13.4387 35.1969 13.5772 35.4434 13.8237C35.69 14.0703 35.8285 14.4046 35.8285 14.7533V16.9037H28.1817V14.752C28.1821 14.4038 28.3206 14.07 28.5668 13.8237C28.813 13.5775 29.1468 13.4391 29.495 13.4387Z" fill="#E9E1FF" stroke="#D4C0FF" stroke-width="0.64" stroke-miterlimit="10"/>
<path d="M25.0624 36.4236H39.0835" stroke="#B9CFDF" stroke-width="1.28" stroke-miterlimit="10" stroke-linecap="round"/>
<path d="M30.3757 27.3279L27.7978 33.1468C27.773 33.2026 27.7327 33.2501 27.6816 33.2835C27.6305 33.3169 27.5708 33.3348 27.5098 33.335H27.2538C27.1925 33.335 27.1325 33.3173 27.0812 33.2839C27.0298 33.2505 26.9893 33.2028 26.9645 33.1468L24.384 27.3279C24.3627 27.2798 24.3537 27.2271 24.358 27.1746C24.3622 27.1221 24.3794 27.0715 24.4082 27.0274C24.4369 26.9833 24.4762 26.947 24.5225 26.922C24.5688 26.8969 24.6206 26.8838 24.6733 26.8838H24.7194C24.7806 26.8839 24.8405 26.9017 24.8918 26.9351C24.9431 26.9685 24.9837 27.016 25.0086 27.0719L27.1066 31.8335C27.1313 31.8896 27.1718 31.9373 27.2232 31.9708C27.2745 32.0043 27.3345 32.0221 27.3958 32.0221C27.4572 32.0221 27.5171 32.0043 27.5685 31.9708C27.6199 31.9373 27.6604 31.8896 27.6851 31.8335L29.7971 27.0719C29.8221 27.0162 29.8627 26.9688 29.9141 26.9357C29.9654 26.9025 30.0253 26.8849 30.0864 26.8851C30.1389 26.8851 30.1905 26.8983 30.2367 26.9233C30.2828 26.9483 30.322 26.9844 30.3507 27.0283C30.3794 27.0723 30.3967 27.1227 30.4011 27.175C30.4055 27.2273 30.3967 27.2799 30.3757 27.3279Z" fill="#B9CFDF" stroke="#B9CFDF" stroke-width="0.64" stroke-miterlimit="10"/>
<path d="M31.8183 26.8877H31.8682C31.9097 26.8875 31.9509 26.8956 31.9894 26.9114C32.0278 26.9272 32.0627 26.9505 32.0921 26.9799C32.1215 27.0093 32.1448 27.0442 32.1606 27.0827C32.1764 27.1211 32.1845 27.1623 32.1843 27.2039V33.0227C32.1843 33.1066 32.151 33.187 32.0917 33.2463C32.0324 33.3056 31.952 33.3389 31.8682 33.3389H31.8183C31.7346 33.3386 31.6545 33.3051 31.5955 33.2458C31.5365 33.1866 31.5034 33.1064 31.5034 33.0227V27.2C31.504 27.117 31.5375 27.0375 31.5965 26.979C31.6555 26.9205 31.7352 26.8877 31.8183 26.8877Z" fill="#B9CFDF" stroke="#B9CFDF" stroke-width="0.64" stroke-miterlimit="10"/>
<path d="M38.6355 27.4777C39.1023 27.8711 39.3357 28.4117 39.3357 29.0995C39.3357 29.7873 39.1023 30.3261 38.6355 30.7161C38.1696 31.1069 37.5245 31.3024 36.7001 31.3024H35.2845C35.243 31.3022 35.2019 31.3102 35.1636 31.326C35.1252 31.3417 35.0904 31.3649 35.061 31.3941C35.0316 31.4234 35.0083 31.4581 34.9924 31.4964C34.9765 31.5347 34.9683 31.5758 34.9683 31.6172V33.0252C34.968 33.109 34.9345 33.1892 34.8753 33.2484C34.8161 33.3076 34.7359 33.3411 34.6521 33.3414H34.6022C34.5184 33.3414 34.438 33.3081 34.3787 33.2488C34.3194 33.1895 34.2861 33.1091 34.2861 33.0252V27.2C34.2859 27.1584 34.294 27.1172 34.3098 27.0788C34.3256 27.0403 34.3489 27.0054 34.3783 26.976C34.4077 26.9466 34.4426 26.9233 34.481 26.9075C34.5195 26.8917 34.5607 26.8836 34.6022 26.8838H36.7001C37.5236 26.8864 38.1687 27.0843 38.6355 27.4777ZM38.1478 30.2835C38.4892 30.0044 38.6598 29.6098 38.6598 29.0995C38.6598 28.5892 38.4892 28.1881 38.1478 27.8963C37.8065 27.6172 37.318 27.4777 36.6822 27.4777H35.2845C35.243 27.4775 35.2019 27.4856 35.1636 27.5013C35.1252 27.5171 35.0904 27.5402 35.061 27.5695C35.0316 27.5987 35.0083 27.6335 34.9924 27.6718C34.9765 27.7101 34.9683 27.7511 34.9683 27.7926V30.3872C34.9683 30.471 35.0016 30.5514 35.0609 30.6107C35.1202 30.67 35.2006 30.7033 35.2845 30.7033H36.6822C37.3214 30.7033 37.8099 30.5634 38.1478 30.2835Z" fill="#B9CFDF" stroke="#B9CFDF" stroke-width="0.64" stroke-miterlimit="10"/>
<path d="M36.2726 20.146L34.1632 20.9985L32.0051 18.4282L29.847 21.0727L27.7376 20.146L28.4774 23.6429H35.5315L36.2726 20.146Z" fill="#FDEDA5" stroke="#FBDF63" stroke-width="0.64" stroke-linejoin="round"/>
<path d="M32.0051 4.60791L32.7987 6.21687L34.5741 6.47415L33.289 7.72599L33.5923 9.49495L32.0051 8.66039L30.4166 9.49495L30.72 7.72599L29.4362 6.47415L31.2115 6.21687L32.0051 4.60791Z" fill="#FDEDA5" stroke="#FBDF63" stroke-width="0.64" stroke-linejoin="round"/>
<path d="M39.9616 4.60791L40.7565 6.21687L42.5305 6.47415L41.2467 7.72599L41.5501 9.49495L39.9616 8.66039L38.3744 9.49495L38.6777 7.72599L37.3926 6.47415L39.168 6.21687L39.9616 4.60791Z" fill="#FDEDA5" stroke="#FBDF63" stroke-width="0.64" stroke-linejoin="round"/>
<path d="M47.9194 4.60791L48.713 6.21687L50.4883 6.47415L49.2032 7.72599L49.5066 9.49495L47.9194 8.66039L46.3309 9.49495L46.6342 7.72599L45.3504 6.47415L47.1245 6.21687L47.9194 4.60791Z" fill="#FDEDA5" stroke="#FBDF63" stroke-width="0.64" stroke-linejoin="round"/>
<path d="M24.0486 4.60791L24.8422 6.21687L26.6176 6.47415L25.3325 7.72599L25.6358 9.49495L24.0486 8.66039L22.4602 9.49495L22.7635 7.72599L21.4784 6.47415L23.2538 6.21687L24.0486 4.60791Z" fill="#FDEDA5" stroke="#FBDF63" stroke-width="0.64" stroke-linejoin="round"/>
<path d="M16.0909 4.60791L16.8845 6.21687L18.6598 6.47415L17.376 7.72599L17.6794 9.49495L16.0909 8.66039L14.5037 9.49495L14.807 7.72599L13.5219 6.47415L15.2973 6.21687L16.0909 4.60791Z" fill="#FDEDA5" stroke="#FBDF63" stroke-width="0.64" stroke-linejoin="round"/>
</svg>
