<svg width="32" height="30" viewBox="0 0 32 30" fill="none" xmlns="http://www.w3.org/2000/svg">
<path d="M31.245 10.9017L20.8801 9.9712L16.7628 0.716717C16.4746 0.0687116 15.5254 0.0687116 15.2371 0.716717L11.1199 9.97126L0.755017 10.9017C0.0292676 10.9669 -0.264045 11.8407 0.283517 12.3063L8.10388 18.9565L5.81526 28.7861C5.65501 29.4743 6.42289 30.0144 7.04957 29.6541L16 24.5097L24.9504 29.6541C25.5771 30.0144 26.3451 29.4743 26.1848 28.7861L23.8961 18.9565L31.7165 12.3063C32.264 11.8407 31.9707 10.9669 31.245 10.9017Z" fill="#FFEF79"/>
<path d="M16.7628 0.716717C16.4746 0.0687116 15.5254 0.0687116 15.2371 0.716717L11.1199 9.97126L0.755017 10.9017C0.0292676 10.9669 -0.264045 11.8407 0.283517 12.3063L8.10388 18.9565L5.81526 28.7861C5.65501 29.4743 6.42289 30.0144 7.04957 29.6541L9.04726 28.5059C9.32376 17.489 14.6119 9.73077 18.7986 5.29262L16.7628 0.716717Z" fill="#FFDC65"/>
</svg>
