<svg width="32" height="32" viewBox="0 0 32 32" fill="none" xmlns="http://www.w3.org/2000/svg">
<path d="M30.845 13.3129C30.0989 12.5953 29.1071 12.2001 28.0495 12.2001L13.4869 12.1999L15.2659 10.4886C16.0133 9.77063 16.4248 8.81576 16.4248 7.79975C16.4248 5.70454 14.6527 4 12.4737 4C11.4191 4 10.4274 4.39519 9.68113 5.11299L1.16256 13.3077C0.61 13.8371 0.235875 14.5036 0.080375 15.235C0.0270625 15.4854 0 15.7428 0 16.0001C0 17.0179 0.412938 17.974 1.1615 18.6912L9.6795 26.8851C10.4257 27.6041 11.4184 28 12.4747 28C14.6528 28 16.4247 26.2953 16.4248 24.2002C16.4249 23.1854 16.0142 22.2311 15.2678 21.5129L13.487 19.7999H28.0517C29.1071 19.7999 30.0991 19.4046 30.8451 18.6868C32.385 17.2052 32.385 14.7945 30.845 13.3129Z" fill="#FFEF79"/>
<path d="M1.1615 18.6912L9.6795 26.8851C10.4257 27.604 11.4184 27.9999 12.4747 27.9999C14.6528 27.9999 16.4247 26.2953 16.4248 24.2001C16.4249 23.1853 16.0142 22.231 15.2678 21.5129C14.6219 20.8915 15.0617 19.7998 15.958 19.7998H28.0517C29.1071 19.7998 30.0991 19.4046 30.8451 18.6868C32.081 17.4979 30.7188 15.8461 29.0161 15.6413L3.82039 12.6116C1.78856 12.3673 0 13.9537 0 16.0001C0 17.0179 0.412937 17.9741 1.1615 18.6912Z" fill="#FFDC65"/>
</svg>
