<svg width="36" height="36" viewBox="0 0 36 36" fill="none" xmlns="http://www.w3.org/2000/svg">
<g clip-path="url(#clip0_731_23014)">
<path d="M34.0149 19.2856C33.6241 18.8968 33.0953 18.6786 32.544 18.6786C31.9928 18.6786 31.464 18.8968 31.0732 19.2856L21.1526 29.1779C19.4436 30.8845 17.1279 31.8441 14.7127 31.8464C12.2975 31.8487 9.97992 30.8935 8.26772 29.1901C6.55552 27.4868 5.58835 25.1742 5.57812 22.759C5.5679 20.3439 6.51546 18.0231 8.21318 16.3053L18.8332 5.73421C19.85 4.72514 21.2244 4.1589 22.6569 4.1589C24.0894 4.1589 25.4638 4.72514 26.4806 5.73421C27.4784 6.72746 28.0461 8.07288 28.0615 9.48066C28.0769 10.8884 27.5387 12.2459 26.5629 13.2608L15.8632 23.9142C15.5482 24.2236 15.1244 24.3969 14.6829 24.3969C14.2414 24.3969 13.8176 24.2236 13.5026 23.9142C13.1986 23.6058 13.0281 23.1901 13.0281 22.7571C13.0281 22.324 13.1986 21.9083 13.5026 21.5999L23.4257 11.6922C23.8144 11.3019 24.0326 10.7735 24.0326 10.2226C24.0326 9.67181 23.8144 9.14341 23.4257 8.75306C23.2335 8.55761 23.0041 8.40256 22.7511 8.29702C22.4981 8.19148 22.2265 8.13758 21.9523 8.13849C21.6802 8.13726 21.4105 8.19004 21.1589 8.29376C20.9073 8.39749 20.6788 8.55011 20.4866 8.74278L10.5737 18.6273C10.0335 19.1676 9.60487 19.8091 9.31246 20.515C9.02005 21.2209 8.86955 21.9775 8.86955 22.7416C8.86955 23.5057 9.02005 24.2623 9.31246 24.9683C9.60487 25.6742 10.0335 26.3156 10.5737 26.8559C11.114 27.3962 11.7555 27.8248 12.4614 28.1172C13.1673 28.4096 13.9239 28.5601 14.688 28.5601C15.4521 28.5601 16.2087 28.4096 16.9147 28.1172C17.6206 27.8248 18.262 27.3962 18.8023 26.8559L29.4249 16.2822C30.3135 15.3981 31.0187 14.3471 31.4999 13.1896C31.9811 12.0321 32.2288 10.7909 32.2288 9.53735C32.2288 8.28381 31.9811 7.04262 31.4999 5.88511C31.0187 4.72761 30.3135 3.6766 29.4249 2.79249C27.6286 1.00882 25.1999 0.0078125 22.6685 0.0078125C20.137 0.0078125 17.7083 1.00882 15.912 2.79249L5.28175 13.3713C3.42759 15.2274 2.16575 17.5918 1.65594 20.1652C1.14613 22.7387 1.41128 25.4056 2.41781 27.8283C3.42434 30.2511 5.12702 32.3207 7.31032 33.7753C9.49362 35.23 12.0594 36.0042 14.6829 35.9999C16.4281 36.0039 18.157 35.6637 19.7706 34.9988C21.3842 34.3338 22.8509 33.3572 24.0866 32.1248L34.0123 22.2376C34.404 21.8464 34.6242 21.3157 34.6247 20.7622C34.6252 20.2086 34.4059 19.6775 34.0149 19.2856Z" fill="#E4B5FB"/>
</g>
<defs>
<clipPath id="clip0_731_23014">
<rect width="36" height="36" fill="white"/>
</clipPath>
</defs>
</svg>
