<svg width="32" height="32" viewBox="0 0 32 32" fill="none" xmlns="http://www.w3.org/2000/svg">
<path fill-rule="evenodd" clip-rule="evenodd" d="M21.5476 5.97876L16.0018 11.5205L10.456 5.97438C10.1638 5.67007 9.81382 5.42715 9.42655 5.25986C9.03927 5.09257 8.62251 5.00428 8.20067 5.00015C7.77883 4.99602 7.36042 5.07615 6.96995 5.23583C6.57948 5.39551 6.22481 5.63154 5.92673 5.93007C5.62865 6.2286 5.39316 6.58363 5.23406 6.97436C5.07496 7.36508 4.99545 7.78364 5.0002 8.20549C5.00495 8.62734 5.09385 9.044 5.2617 9.43105C5.42955 9.81809 5.67296 10.1677 5.97768 10.4595L11.5213 16.0056L5.98207 21.5451C5.40295 22.1435 5.08216 22.9455 5.08886 23.7782C5.09555 24.6109 5.4292 25.4077 6.01786 25.9967C6.60653 26.5856 7.40306 26.9197 8.23573 26.9268C9.0684 26.9339 9.87051 26.6135 10.4691 26.0346L16.0018 20.4841L21.5432 26.0281C21.8356 26.3318 22.1857 26.5741 22.5728 26.741C22.96 26.9079 23.3765 26.9959 23.7981 26.9999C24.2197 27.0039 24.6378 26.9238 25.0281 26.7643C25.4183 26.6048 25.7729 26.3691 26.071 26.0709C26.3691 25.7728 26.6048 25.4182 26.7643 25.028C26.9238 24.6377 27.0038 24.2195 26.9999 23.7979C26.9959 23.3763 26.9079 22.9598 26.741 22.5726C26.5742 22.1854 26.3318 21.8354 26.0281 21.5429L20.4954 16.0078L26.0347 10.4683C26.6138 9.86989 26.9346 9.06789 26.9279 8.23517C26.9212 7.40245 26.5875 6.60572 25.9989 6.01673C25.4102 5.42775 24.6137 5.0937 23.781 5.0866C22.9484 5.07949 22.1462 5.39991 21.5476 5.97876Z" fill="#FFEF79"/>
<path fill-rule="evenodd" clip-rule="evenodd" d="M21.5476 5.97876L16.0018 11.5205L10.456 5.97438C10.1638 5.67007 9.81382 5.42715 9.42655 5.25986C9.03927 5.09257 8.62251 5.00428 8.20067 5.00015C7.77883 4.99602 7.36042 5.07615 6.96995 5.23583C6.57948 5.39551 6.22481 5.63154 5.92673 5.93007C5.62865 6.2286 5.39316 6.58363 5.23406 6.97436C5.07496 7.36508 4.99545 7.78364 5.0002 8.20549C5.00495 8.62734 5.09385 9.044 5.2617 9.43105C5.42955 9.81809 5.67296 10.1677 5.97768 10.4595C9.82963 14.3132 15.3125 21.5 26.9279 8.23517C26.9212 7.40245 26.5876 6.60572 25.9989 6.01673C25.4102 5.42775 24.6137 5.0937 23.781 5.0866C22.9484 5.07949 22.1462 5.39991 21.5476 5.97876Z" fill="#FFDC65"/>
</svg>
