<svg width="32" height="32" viewBox="0 0 32 32" fill="none" xmlns="http://www.w3.org/2000/svg">
<path d="M31.9927 16.1417C31.9927 16.5562 31.8255 16.9415 31.5201 17.2251L28.0809 20.5335C27.7828 20.8243 27.3756 20.9843 26.9539 20.9843C26.0741 20.9843 25.3615 20.2935 25.3615 19.4501C25.3615 19.0429 25.5287 18.6575 25.8268 18.3667L26.5467 17.6759H20.6716C20.5408 17.6759 20.4099 17.6614 20.279 17.6323C20.0754 17.5814 19.8864 17.4942 19.7191 17.3778C19.6537 17.3342 19.5955 17.2833 19.5374 17.2251C19.5301 17.2178 19.5228 17.2106 19.5155 17.2033C19.2029 16.8834 19.0575 16.4689 19.0793 16.0617C19.1011 15.6982 19.2538 15.3346 19.5446 15.0583C19.8427 14.7675 20.2499 14.6075 20.6716 14.6075H26.5467L26.1831 14.2585L25.8268 13.9168C25.5215 13.6259 25.3615 13.2406 25.3615 12.8334C25.3615 11.9899 26.0741 11.2992 26.9539 11.2992C27.3829 11.2992 27.7828 11.4592 28.0809 11.75L30.553 14.1276L31.5201 15.0583C31.7455 15.2692 31.8909 15.5382 31.9564 15.8363C31.9709 15.8945 31.9782 15.9454 31.9854 16.0036C31.9854 16.0254 31.9927 16.0472 31.9927 16.0763C31.9927 16.0908 31.9927 16.1199 31.9927 16.1417Z" fill="#FFEF79"/>
<path d="M20.9843 5.03158C20.9843 5.91138 20.2935 6.62395 19.4501 6.62395C19.0429 6.62395 18.6575 6.45671 18.3667 6.1586L17.6759 5.43876V11.3138C17.6759 11.4447 17.6614 11.5755 17.6323 11.7064C17.5814 11.91 17.4942 12.0991 17.3778 12.2663C17.3342 12.3317 17.2833 12.3899 17.2251 12.4481C17.2178 12.4553 17.2106 12.4626 17.2033 12.4699C17.1742 12.4917 17.1524 12.5208 17.1233 12.5426C16.5198 13.0661 15.6255 13.0298 15.0583 12.4481C14.7675 12.15 14.6075 11.7428 14.6075 11.3211V5.43876L13.9168 6.1586C13.6259 6.46398 13.2406 6.62395 12.8334 6.62395C11.9899 6.62395 11.2992 5.91138 11.2992 5.03158C11.2992 4.60259 11.4592 4.20268 11.75 3.90457L15.0583 0.465349C15.2692 0.239945 15.5382 0.094524 15.8363 0.0290843C15.8872 0.0218132 15.9309 0.0145421 15.9818 0.00727107C15.989 0.00727107 15.9963 0.00727107 16.0036 0.00727107C16.0254 0.00727107 16.0545 0 16.0763 0C16.0981 0 16.1272 0 16.149 0C16.5635 0 16.9488 0.167235 17.2324 0.47262L18.4685 1.7596L20.5335 3.90457C20.8243 4.20995 20.9843 4.60986 20.9843 5.03158Z" fill="#FFEF79"/>
<path d="M12.4481 16.9343C12.15 17.2252 11.7428 17.3852 11.3211 17.3852H5.43876L6.1586 18.0759C6.46398 18.3668 6.62395 18.7521 6.62395 19.1593C6.62395 20.0027 5.91138 20.6935 5.03158 20.6935C4.60259 20.6935 4.20268 20.5335 3.90457 20.2427L0.785276 17.2397L0.47262 16.9343C0.247217 16.7235 0.101795 16.4545 0.0363554 16.1563C0.0218132 16.0982 0.0145421 16.0473 0.00727107 15.9891C0.00727107 15.9673 0 15.9382 0 15.9164C0 15.8946 0 15.8655 0 15.8437C0 15.4292 0.167235 15.0439 0.47262 14.7603L1.17791 14.0841L3.90457 11.4592C4.20268 11.1684 4.60986 11.0084 5.03158 11.0084C5.91138 11.0084 6.62395 11.6992 6.62395 12.5426C6.62395 12.8625 6.52215 13.1607 6.34038 13.4224C6.28948 13.4951 6.22404 13.5678 6.1586 13.6333L5.43876 14.324H11.3138C11.4447 14.324 11.5756 14.3386 11.7064 14.3677C11.91 14.4186 12.0991 14.5058 12.2663 14.6221C12.3317 14.6658 12.3899 14.7167 12.4481 14.7748C12.4554 14.7821 12.4626 14.7894 12.4699 14.7967C12.5644 14.8912 12.6444 15.0002 12.7098 15.1166C13.0516 15.691 12.9571 16.4399 12.4481 16.9343Z" fill="#FFEF79"/>
<path d="M20.6934 26.9611C20.6934 27.3901 20.5335 27.79 20.2426 28.0881L18.3958 30.0077L16.9343 31.5274C16.6435 31.8327 16.2581 32 15.8509 32C15.8291 32 15.8 32 15.7782 32C15.7564 32 15.7273 32 15.7055 31.9927C15.6473 31.9854 15.5964 31.9782 15.5382 31.9636C15.2474 31.8982 14.9711 31.7528 14.7602 31.5274L11.4519 28.0881C11.1611 27.79 11.0011 27.3828 11.0011 26.9611C11.0011 26.0813 11.6918 25.3688 12.5353 25.3688C12.9425 25.3688 13.3278 25.536 13.6187 25.8341L14.3094 26.5539V20.6789C14.3094 20.2499 14.4694 19.85 14.7602 19.5519C14.8475 19.4574 14.942 19.3847 15.0438 19.3192C15.371 19.1156 15.7564 19.0429 16.1199 19.1156C16.4035 19.1738 16.6798 19.3047 16.8979 19.5301C16.9052 19.5374 16.9125 19.5446 16.9198 19.5519C16.9779 19.6101 17.0215 19.6682 17.0724 19.7337C17.1888 19.9009 17.276 20.09 17.3269 20.2935C17.356 20.4172 17.3706 20.548 17.3706 20.6862V26.5612L17.8723 26.045L18.0613 25.8414C18.3522 25.5433 18.7375 25.376 19.1447 25.376C20.0027 25.3615 20.6934 26.0813 20.6934 26.9611Z" fill="#FFEF79"/>
<path d="M20.6935 26.9611C20.6935 27.3901 20.5335 27.79 20.2427 28.0881L18.3958 30.0077L16.9344 31.5274C14.6658 31.1347 14.6949 28.9316 16.1418 24.7362C17.0507 22.0895 15.9746 20.2863 15.0511 19.3192C15.3783 19.1156 15.7637 19.0429 16.1273 19.1156C16.4108 19.1738 16.6871 19.3047 16.9053 19.5301C16.9125 19.5374 16.9198 19.5446 16.9271 19.5519C16.9853 19.6101 17.0289 19.6682 17.0798 19.7337C17.1961 19.9009 17.2834 20.09 17.3343 20.2935C17.3633 20.4172 17.3779 20.548 17.3779 20.6862V26.5612L17.8796 26.045L18.0686 25.8414C18.3595 25.5433 18.7449 25.376 19.152 25.376C20.0027 25.3615 20.6935 26.0813 20.6935 26.9611Z" fill="#FFDC65"/>
<path d="M6.63121 12.5426C6.63121 12.8625 6.52942 13.1607 6.34764 13.4224C5.98409 13.1825 5.51147 12.9934 4.8498 12.9134C3.22108 12.7171 1.9341 13.4806 1.18518 14.0841L3.91183 11.4592C4.20995 11.1684 4.61713 11.0084 5.03885 11.0084C5.91138 11.0084 6.63121 11.6992 6.63121 12.5426Z" fill="#FFDC65"/>
<path d="M12.7099 15.1093C11.5611 15.4365 10.0996 15.7346 9.038 15.5383C8.10004 15.3638 7.69286 14.8476 7.25659 14.3168H11.3139C11.4447 14.3168 11.5756 14.3313 11.7065 14.3604C11.9101 14.4113 12.0991 14.4985 12.2664 14.6149C12.3318 14.6585 12.39 14.7094 12.4481 14.7676C12.4554 14.7749 12.4627 14.7821 12.47 14.7894C12.5645 14.8912 12.6517 14.993 12.7099 15.1093Z" fill="#FFDC65"/>
<path d="M20.6716 14.6075H25.8923C25.376 15.2183 24.7144 15.9163 22.7803 15.5964C21.137 15.3274 19.9155 15.6473 19.0865 16.0545C19.1084 15.6909 19.2611 15.3274 19.5519 15.0511C19.85 14.7675 20.2499 14.6075 20.6716 14.6075Z" fill="#FFDC65"/>
<path d="M31.5201 17.2251C31.6219 15.0365 29.2661 14.2585 27.441 13.8513C26.823 13.7132 26.4958 13.9313 26.1904 14.2585L25.8341 13.9168C25.5287 13.6259 25.3688 13.2406 25.3688 12.8334C25.3688 11.9899 26.0813 11.2992 26.9611 11.2992C27.3901 11.2992 27.79 11.4592 28.0882 11.75L30.5603 14.1276L31.5274 15.0583C31.7528 15.2692 31.8982 15.5382 31.9636 15.8363C31.9782 15.8945 31.9855 15.9454 31.9927 16.0036C31.9927 16.0254 32 16.0472 32 16.0763C32 16.0981 32 16.1272 32 16.149C31.9927 16.5562 31.8255 16.9415 31.5201 17.2251Z" fill="#FFDC65"/>
<path d="M20.9843 5.03162C20.9843 5.91142 20.2935 6.62399 19.4501 6.62399C19.0429 6.62399 18.6575 6.45675 18.3667 6.15864L17.6759 5.4388V11.3138C17.6759 11.4447 17.6614 11.5756 17.6323 11.7065C17.5814 11.9101 17.4942 12.0991 17.3778 12.2663C17.3342 12.3318 17.2833 12.3899 17.2251 12.4481C17.2179 12.4554 17.2106 12.4627 17.2033 12.4699C17.1742 12.4917 17.1524 12.5208 17.1233 12.5426C16.5198 13.0662 15.6255 13.0298 15.0584 12.4481C14.7675 12.15 14.6075 11.7428 14.6075 11.3211C14.6075 11.3211 17.1379 13.0443 17.0143 10.3686C16.8907 7.69283 15.4364 7.02389 17.0215 5.49697C18.5994 3.97731 18.9629 3.23566 17.2324 0.472656L18.4685 1.75964L20.5335 3.9046C20.8243 4.20999 20.9843 4.6099 20.9843 5.03162Z" fill="#FFDC65"/>
</svg>
