<svg width="32" height="32" viewBox="0 0 32 32" fill="none" xmlns="http://www.w3.org/2000/svg">
<path d="M6.45451 10.3686C6.45451 5.1478 10.8053 0.924847 16.1425 1.00102C21.295 1.07489 25.4898 5.20945 25.5449 10.2665C25.5681 12.4312 24.8441 14.4285 23.6093 16.025C21.8677 18.2789 20.7951 20.9518 20.574 23.7534C20.5452 24.1114 20.5313 24.4716 20.5313 24.8335L20.5313 27.0493L11.468 27.0493L11.468 24.9637C11.468 24.5593 11.4517 24.1556 11.4184 23.7534C11.191 20.9777 10.1812 18.3025 8.43974 16.0882C7.19494 14.5062 6.45451 12.5219 6.45451 10.3686Z" fill="#FFEF79"/>
<path d="M11.4184 23.7534L20.574 23.7534C20.5452 24.1113 20.5313 24.4716 20.5313 24.8334L20.5313 27.0493L11.4681 27.0493L11.4681 24.9637C11.4681 24.5593 11.4518 24.1555 11.4184 23.7534Z" fill="#FFDC65"/>
<path d="M6.45459 10.3686C6.45459 6.38483 8.98775 2.98221 12.5601 1.62719C9.61406 3.22142 7.61873 6.29951 7.61873 9.83542C7.61873 11.9888 8.35916 13.9731 9.60396 15.5551C11.5978 18.0901 12.6323 21.2276 12.6323 24.4306L12.6323 27.0493L11.4682 27.0493L11.4682 24.9637C11.4682 21.7607 10.4337 18.6232 8.43982 16.0883C7.19502 14.5062 6.45459 12.5219 6.45459 10.3686Z" fill="#FFDC65"/>
<path d="M18.2264 15.3986C18.5557 15.3986 18.8225 15.6605 18.8225 15.9836L18.8225 27.0493C18.8225 27.3724 18.5557 27.6344 18.2264 27.6344C17.8972 27.6344 17.6303 27.3725 17.6303 27.0493L17.6303 15.9836C17.6303 15.6606 17.8972 15.3986 18.2264 15.3986Z" fill="#FFDC65"/>
<path d="M13.8028 15.3986C14.1321 15.3986 14.3989 15.6605 14.3989 15.9836L14.3989 27.0493C14.3989 27.3724 14.1321 27.6344 13.8028 27.6344C13.4736 27.6344 13.2067 27.3725 13.2067 27.0493L13.2067 15.9836C13.2068 15.6606 13.4736 15.3986 13.8028 15.3986Z" fill="#FFDC65"/>
<path d="M13.803 17.5779C13.9555 17.5779 14.1081 17.635 14.2246 17.7492C14.7868 18.3013 15.5519 17.762 15.6374 17.6986C15.8746 17.5225 16.2111 17.5427 16.4216 17.7493C16.9549 18.2728 17.8584 17.7003 17.8967 17.6757C18.1707 17.499 18.5404 17.5719 18.7218 17.8401C18.9034 18.1083 18.8313 18.4691 18.5591 18.6487C18.0328 18.9956 16.8977 19.4182 15.9643 18.873C15.2911 19.2121 14.2361 19.4154 13.3816 18.5768C13.1488 18.3483 13.1488 17.9778 13.3816 17.7493C13.4979 17.635 13.6505 17.5779 13.803 17.5779Z" fill="#FFDC65"/>
<path d="M11.2486 24.8959L20.7806 24.8959C21.2361 24.8959 21.5691 25.3179 21.455 25.7506L21.2183 26.6478L19.8136 29.248L19.4868 30.4873C19.4076 30.789 19.1305 31 18.8131 31L13.2167 31C12.8992 31 12.6221 30.789 12.5423 30.4874L12.2155 29.248L10.8116 26.6479L10.5749 25.7506C10.4608 25.3179 10.7938 24.8959 11.2486 24.8959Z" fill="#DEADFF"/>
<path d="M18.2262 3.89217C18.2806 3.89217 18.3357 3.89948 18.3906 3.91493C22.23 4.99369 22.9442 8.78641 22.9726 8.94737C23.0291 9.26575 22.8118 9.56861 22.4875 9.62403C22.1638 9.67992 21.8554 9.46684 21.7983 9.14922C21.7734 9.01363 21.17 5.91302 18.0624 5.03988C17.7459 4.95095 17.5627 4.62703 17.6534 4.31641C17.7283 4.05959 17.967 3.89217 18.2262 3.89217Z" fill="white"/>
</svg>
