<svg width="22" height="22" viewBox="0 0 22 22" fill="none" xmlns="http://www.w3.org/2000/svg">
<g clip-path="url(#clip0_1218_7582)">
<path d="M19.6352 11.5619C19.6352 11.3068 19.5892 11.0778 19.5038 10.8815C19.2805 10.3581 18.7879 10.0572 18.1113 10.0506C17.9865 10.0506 17.8683 10.0506 17.7172 10.0506C17.7172 9.95248 17.7172 9.87397 17.7172 9.79546C17.7107 8.75521 17.7238 7.71495 17.6844 6.68123C17.6253 5.2746 17.0933 4.03806 16.1868 2.96509C15.3658 1.99026 14.3674 1.24441 13.1392 0.845322C13.1063 0.832237 13.0801 0.825695 13.0472 0.81261C11.8058 0.426602 10.5513 0.400432 9.28362 0.721015C9.19166 0.747185 9.09971 0.766812 9.00775 0.799525C7.68097 1.19862 6.61035 2.00335 5.7302 3.07632C4.72526 4.30631 4.28519 5.73911 4.28519 7.31586C4.29176 8.21872 4.28519 9.12159 4.28519 10.0572C4.10128 10.0572 3.92394 10.0506 3.7466 10.0572C3.08977 10.0899 2.57088 10.5021 2.41324 11.1367C2.37384 11.3068 2.36727 11.49 2.36727 11.6666C2.36727 13.878 2.37384 16.0894 2.36727 18.3007C2.36727 18.425 2.36727 18.5428 2.36727 18.6671C2.36727 19.04 2.3607 19.4129 2.3607 19.7859C2.35413 20.4336 2.54461 20.9373 2.99782 21.2514C3.15546 21.3626 3.3525 21.4477 3.57582 21.5H18.4069C18.8667 21.3822 19.2542 21.1598 19.4513 20.7149C19.5498 20.4925 19.6089 20.2308 19.6089 19.9887C19.6417 17.1819 19.6417 14.3752 19.6352 11.5619ZM7.18835 7.00182C7.19492 6.69432 7.2409 6.39336 7.32629 6.10549C7.73352 4.7054 8.97491 3.59972 10.4528 3.40998C12.3444 3.16791 14.0456 4.19508 14.6433 5.97464C14.7615 6.33448 14.8206 6.72049 14.8338 7.09995C14.8601 8.03553 14.8469 8.97111 14.8469 9.90669C14.8469 9.94594 14.8403 9.9852 14.8338 10.0441H7.19492C7.18835 9.99174 7.18178 9.95248 7.18178 9.91977C7.18178 8.9384 7.16865 7.97011 7.18835 7.00182Z" fill="#FFEF79"/>
<path d="M14.6498 5.97474C14.0521 4.19518 12.351 3.16801 10.4593 3.41008C8.98145 3.59981 7.73349 4.71204 7.33282 6.10559C7.34596 5.93548 7.74006 2.33057 11.0176 2.33057C14.3608 2.33057 14.6498 5.97474 14.6498 5.97474Z" fill="#FFDC65"/>
<path d="M19.6351 11.562C19.6417 14.3687 19.6417 17.182 19.6286 19.9888C19.6286 20.2308 19.5695 20.4925 19.4709 20.715C19.2739 21.1599 18.8864 21.3823 18.4266 21.5001H3.60207C3.37218 21.4412 3.18171 21.3561 3.02407 21.2515C2.56429 20.9374 2.38038 20.4336 2.38695 19.7859C2.38695 19.413 2.39352 19.0401 2.39352 18.6672C3.36562 18.098 4.90915 17.7447 7.33283 18.2877C12.8633 19.5308 12.2065 14.9314 16.8962 13.178C18.2558 12.6677 19.0571 11.8303 19.5103 10.8816C19.5892 11.0779 19.6351 11.3069 19.6351 11.562Z" fill="#FFDC65"/>
<path d="M11.7795 13.7798L12.0751 15.7098H9.92729L10.2229 13.7798C9.947 13.5573 9.76965 13.2171 9.76965 12.8311C9.76965 12.1572 10.3214 11.6077 10.9979 11.6077C11.6744 11.6077 12.2262 12.1572 12.2262 12.8311C12.2327 13.2106 12.0554 13.5508 11.7795 13.7798Z" fill="#FFDC65"/>
</g>
<defs>
<clipPath id="clip0_1218_7582">
<rect width="21" height="21" fill="white" transform="translate(0.5 0.5)"/>
</clipPath>
</defs>
</svg>
