<svg width="32" height="32" viewBox="0 0 32 32" fill="none" xmlns="http://www.w3.org/2000/svg">
<path d="M20.0988 26.5444C20.0988 24.3204 18.2638 22.5175 16 22.5175C13.7362 22.5175 11.9012 24.3204 11.9012 26.5444C11.9012 28.7684 13.7362 30.5713 16 30.5713C18.2638 30.5713 20.0988 28.7684 20.0988 26.5444Z" fill="#FFDC65"/>
<path d="M15.9998 22.5175C15.5854 22.5175 15.1854 22.5785 14.8085 22.6909C16.491 23.1922 17.716 24.7274 17.716 26.5444C17.716 28.3612 16.491 29.8966 14.8085 30.3979C15.1854 30.5103 15.5854 30.5713 15.9998 30.5713C18.2635 30.5713 20.0986 28.7684 20.0986 26.5444C20.0986 24.3204 18.2635 22.5175 15.9998 22.5175Z" fill="#F2B51D"/>
<path d="M26.1519 25.8705H5.84803C4.03118 25.8705 2.55847 24.4236 2.55847 22.6389C2.55847 21.6508 3.01369 20.7157 3.7965 20.0954L4.44875 19.5784C5.9575 18.3829 6.83482 16.5809 6.83482 14.6766V11.2803C6.83482 6.26918 10.9694 2.20709 16.0699 2.20709C21.1702 2.20709 25.3051 6.26918 25.3051 11.2803V14.7394C25.3051 16.6077 26.1495 18.3798 27.6102 19.5763L28.2454 20.0965C29.0034 20.7173 29.4415 21.6369 29.4415 22.6063V22.6389C29.4415 24.4236 27.9688 25.8705 26.1519 25.8705Z" fill="#FFEF79"/>
<path d="M28.2454 20.0964L27.6102 19.5762C26.1495 18.3795 25.305 16.6076 25.305 14.7391V11.2799C25.305 6.26914 21.1702 2.20679 16.0699 2.20679C15.1661 2.20679 14.2931 2.335 13.4678 2.57277C17.3013 3.67651 20.1009 7.15691 20.1009 11.2799V14.7391C20.1009 16.6076 20.9454 18.3795 22.4061 19.5762L23.0415 20.0964C23.7992 20.7173 24.2376 21.6368 24.2376 22.6063V22.6389C24.2376 24.4236 22.7649 25.8705 20.948 25.8705H26.1522C27.9688 25.8705 29.4415 24.4236 29.4415 22.6389V22.6063C29.4415 21.6368 29.0033 20.7173 28.2454 20.0964Z" fill="#FFDC65"/>
<path d="M28.0974 5.03246C28.0974 2.80536 26.2921 1 24.065 1C21.8378 1 20.0325 2.80536 20.0325 5.03246C20.0325 7.25957 21.8378 9.06493 24.065 9.06493C26.2921 9.06493 28.0974 7.25957 28.0974 5.03246Z" fill="#FF6565"/>
<path fill-rule="evenodd" clip-rule="evenodd" d="M28.0975 5.03255C28.0975 7.25971 26.2921 9.06502 24.065 9.06502C22.4908 9.06502 21.1272 8.16297 20.4631 6.8475C21.088 7.27351 21.8432 7.52255 22.6565 7.52255C24.8097 7.52255 26.5551 5.77717 26.5551 3.62394C26.5551 2.81066 26.3061 2.05557 25.8802 1.43073C27.1955 2.09488 28.0975 3.45834 28.0975 5.03255Z" fill="#F15B5B"/>
</svg>
