<svg width="32" height="32" viewBox="0 0 32 32" fill="none" xmlns="http://www.w3.org/2000/svg">
<path d="M31.8705 14.0486C31.7662 13.2592 31.3071 12.5726 30.6114 12.1636C29.9282 11.7627 29.1032 11.6883 28.3394 11.9659C27.7328 12.1852 27.0539 11.8819 26.7784 11.2833C26.4542 10.5765 26.0535 9.89934 25.5902 9.27103C25.1881 8.72664 25.2633 8.01163 25.7627 7.61076C26.3818 7.11646 26.7269 6.38519 26.7115 5.60517C26.6948 4.81297 26.3122 4.0817 25.6583 3.60098C24.5954 2.8169 23.435 2.16416 22.2093 1.66179C21.451 1.3517 20.6052 1.39233 19.8914 1.77555C19.1902 2.15064 18.7116 2.80744 18.5808 3.57661C18.4737 4.20225 17.8699 4.60717 17.1826 4.55163C16.4049 4.47171 15.5937 4.47171 14.8146 4.55163C14.1176 4.60717 13.5235 4.20358 13.4177 3.57794C13.287 2.80738 12.8097 2.15064 12.1085 1.77548C11.3919 1.39227 10.5488 1.35024 9.78917 1.6604C8.56204 2.16416 7.4017 2.8169 6.34016 3.59959C5.68766 4.0817 5.30366 4.81157 5.28833 5.60378C5.27164 6.3838 5.61807 7.1164 6.23718 7.61343C6.73805 8.01429 6.81181 8.72658 6.40968 9.2723C5.94501 9.90334 5.54431 10.5791 5.22149 11.2833C4.94464 11.8845 4.25868 12.1852 3.64656 11.9604C2.89806 11.6882 2.0758 11.7627 1.38984 12.1635C0.694172 12.5711 0.233673 13.2577 0.129326 14.0472C0.0431086 14.6959 0 15.3527 0 16C0 16.6473 0.0431086 17.3041 0.129391 17.9514C0.233738 18.7409 0.692868 19.4288 1.38854 19.8364C2.07443 20.2386 2.89812 20.3158 3.66195 20.0342C4.25744 19.8189 4.9447 20.1154 5.22162 20.7167C5.54438 21.4209 5.94507 22.098 6.40981 22.729C6.81187 23.2734 6.73674 23.9871 6.23587 24.3893C5.61814 24.8836 5.27307 25.6148 5.2884 26.3949C5.30509 27.1871 5.68772 27.9183 6.34022 28.4004C7.40039 29.1818 8.56074 29.8345 9.78923 30.3396C10.126 30.4778 10.4793 30.5455 10.8313 30.5455C11.2724 30.5455 11.7107 30.4385 12.1072 30.2246C12.8084 29.8495 13.287 29.1913 13.4178 28.4235C13.5249 27.7979 14.1357 27.3821 14.816 27.4498C15.5938 27.5297 16.4049 27.5297 17.184 27.4498C17.8755 27.3835 18.4738 27.7979 18.5809 28.4235C18.7131 29.1927 19.1903 29.8495 19.8915 30.2246C20.6081 30.6092 21.4512 30.6484 22.2094 30.3396C23.4365 29.8359 24.5969 29.1831 25.6584 28.4004C26.3109 27.9183 26.6935 27.1871 26.7102 26.3949C26.7256 25.6148 26.3791 24.8836 25.7586 24.3879C25.2591 23.9871 25.1854 23.2748 25.5875 22.7291C26.0521 22.1007 26.4514 21.4222 26.7756 20.7181C27.0539 20.1155 27.744 19.8203 28.3367 20.0342L28.352 20.0396C29.1033 20.3159 29.9269 20.2387 30.6101 19.8378C31.3071 19.4288 31.7649 18.7423 31.8692 17.9541C31.9569 17.3095 32 16.6528 32 16C32 15.3473 31.9568 14.6905 31.8705 14.0486ZM15.9999 22.0939C12.5481 22.0939 9.73908 19.3598 9.73908 16C9.73908 12.6403 12.5481 9.90613 15.9999 9.90613C19.4517 9.90613 22.2608 12.6403 22.2608 16C22.2608 19.3598 19.4517 22.0939 15.9999 22.0939Z" fill="#FFEF79"/>
<path d="M25.59 9.27103C25.188 8.72664 25.2631 8.01163 25.7625 7.61076C26.3816 7.11646 26.7267 6.38519 26.7114 5.60518C26.6947 4.81297 26.3121 4.0817 25.6582 3.60098C24.5952 2.8169 23.4349 2.16416 22.2092 1.66179C21.4509 1.3517 20.605 1.39233 19.8913 1.77555C19.1901 2.15064 18.7114 2.80744 18.5807 3.57661C18.4735 4.20225 17.8698 4.60717 17.1824 4.55163C16.4047 4.47171 15.5935 4.47171 14.8145 4.55163C14.1174 4.60717 13.5233 4.20358 13.4176 3.57794C13.2868 2.80738 12.8095 2.15064 12.1083 1.77548C11.3918 1.39227 10.5487 1.35024 9.78901 1.6604C8.56188 2.16416 7.40154 2.8169 6.34 3.59959C5.6875 4.0817 5.3035 4.81157 5.28817 5.60378C5.27148 6.3838 5.61791 7.1164 6.23702 7.61343C6.73789 8.01429 6.81165 8.72658 6.40952 9.2723C13.4176 7.61076 12.1083 10.4382 25.59 9.27103ZM15.9998 9.90613C-4.48679 9.90613 36.4863 9.90613 15.9998 9.90613V9.90613Z" fill="#FFDC65"/>
</svg>
