<svg width="8" height="8" viewBox="0 0 8 8" fill="none" xmlns="http://www.w3.org/2000/svg">
<g clip-path="url(#clip0_1218_14133)">
<path d="M4.81495 0.131555C4.88621 0.154708 4.95544 0.180925 5.02271 0.210047C5.30045 0.330293 5.35083 0.680721 5.17185 0.924787C4.99475 1.16629 4.65542 1.20967 4.36449 1.13861C4.18392 1.09451 3.99051 1.08311 3.79156 1.10857C3.22857 1.18085 2.75565 1.60206 2.60052 2.13543C2.56799 2.2451 2.55047 2.35974 2.54797 2.47688C2.54262 2.74008 2.54363 3.00327 2.54465 3.26827L2.54466 3.27035C2.54506 3.37607 2.54547 3.48207 2.54547 3.58849C2.54547 3.60095 2.54797 3.6159 2.55047 3.63584H6.55897L6.7091 3.63833C6.96683 3.64083 7.1545 3.75547 7.23957 3.95487C7.2721 4.02963 7.28961 4.11687 7.28961 4.21408C7.29212 5.2858 7.29212 6.35503 7.2796 7.42427C7.2796 7.51648 7.25709 7.61618 7.21955 7.70091C7.14449 7.8704 6.99686 7.95514 6.8217 8H1.17177C1.08669 7.98007 1.01163 7.94766 0.951578 7.90529C0.778924 7.78565 0.706361 7.59374 0.708864 7.34699C0.708864 7.27597 0.709489 7.20494 0.710115 7.13391C0.710741 7.06288 0.711366 6.99184 0.711366 6.9208V6.78123C0.713033 6.21961 0.71248 5.65799 0.711923 5.09638C0.711645 4.81557 0.711366 4.53476 0.711366 4.25395C0.711366 4.18666 0.713869 4.11687 0.728883 4.05207C0.788934 3.8103 0.986608 3.65329 1.23683 3.64083C1.28166 3.63917 1.32649 3.63971 1.37206 3.64026L1.37214 3.64026C1.39521 3.64054 1.41847 3.64083 1.44201 3.64083C1.44201 3.52108 1.44229 3.40275 1.44257 3.28535L1.44257 3.28501C1.44312 3.05309 1.44367 2.8248 1.44201 2.59652C1.44201 1.99585 1.60965 1.45002 1.99249 0.981454C2.32778 0.572702 2.73564 0.266137 3.24108 0.114107C3.26446 0.10579 3.28783 0.0996946 3.31121 0.0935987L3.31213 0.0933584C3.32348 0.0903946 3.33482 0.0874307 3.34617 0.0841993C3.82909 -0.0379321 4.30701 -0.0279605 4.77992 0.119089C4.79243 0.124078 4.80244 0.126565 4.81495 0.131555Z" fill="#FFEF79"/>
<path d="M7.28962 4.21404C7.29212 5.28327 7.29212 6.355 7.28711 7.42423C7.28711 7.51645 7.26459 7.61614 7.22706 7.70088C7.152 7.87036 7.00437 7.95511 6.82921 7.99997H1.18178C1.0942 7.97754 1.02164 7.94514 0.961588 7.90526C0.786435 7.78562 0.716373 7.59371 0.718876 7.34696C0.718876 7.2049 0.721378 7.06283 0.721378 6.92077C1.0917 6.70393 1.67971 6.56934 2.60302 6.77621C4.70986 7.24976 4.45964 5.49762 6.2462 4.82966C6.76416 4.63525 7.06942 4.31623 7.24207 3.95483C7.2721 4.02961 7.28962 4.11684 7.28962 4.21404Z" fill="#FFDC65"/>
<path d="M4.29698 5.05892L4.40958 5.79417H3.59136L3.70396 5.05892C3.59887 4.97417 3.53131 4.84457 3.53131 4.69752C3.53131 4.44081 3.74149 4.23145 3.99922 4.23145C4.25694 4.23145 4.46713 4.44081 4.46713 4.69752C4.46963 4.84208 4.40207 4.97168 4.29698 5.05892Z" fill="#FFDC65"/>
<path d="M5.01081 1.14434C4.92359 1.26329 4.7579 1.28792 4.62356 1.22701C4.3756 1.1146 4.091 1.07051 3.79407 1.10851C3.23108 1.18079 2.75566 1.60449 2.60303 2.13537C2.60803 2.07056 2.75816 0.697266 4.00675 0.697266C4.48945 0.697266 4.80502 0.896675 5.01081 1.14434Z" fill="#FFDC65"/>
</g>
<defs>
<clipPath id="clip0_1218_14133">
<rect width="8" height="8" fill="white"/>
</clipPath>
</defs>
</svg>
