<svg width="24" height="24" viewBox="0 0 24 24" fill="none" xmlns="http://www.w3.org/2000/svg">
<g clip-path="url(#clip0_462_19066)">
<path d="M20.1839 9.65175L12.3771 1.78967H11.4259L3.62693 9.64348C3.32378 9.79335 3.06849 10.0249 2.88983 10.312C2.71118 10.5992 2.61624 10.9305 2.61572 11.2687V20.1771C2.61627 20.658 2.80758 21.119 3.14766 21.459C3.48774 21.799 3.94881 21.9902 4.42969 21.9906H19.3645C19.8455 21.9906 20.3069 21.7995 20.647 21.4594C20.9872 21.1194 21.1784 20.6581 21.1785 20.1771V11.2687C21.1786 10.9335 21.0857 10.6049 20.9101 10.3194C20.7345 10.0339 20.4831 9.80277 20.1839 9.65175Z" fill="#9EEC9E" stroke="#C4B1EB" stroke-width="0.472759" stroke-miterlimit="10"/>
<path d="M9.09568 15.7232L3.25912 21.5618C3.05758 21.392 2.89565 21.1801 2.78467 20.9411C2.67369 20.7021 2.61636 20.4417 2.6167 20.1782V11.2687C2.61644 11.0052 2.6738 10.7449 2.78478 10.506C2.89575 10.2671 3.05765 10.0553 3.25912 9.88556L9.09568 15.7232Z" fill="#A3FFA3" stroke="#C4B1EB" stroke-width="0.472759" stroke-miterlimit="10"/>
<path d="M14.6985 15.7232L20.535 21.5618C20.7366 21.392 20.8985 21.1801 21.0095 20.9411C21.1205 20.7021 21.1778 20.4417 21.1775 20.1782V11.2687C21.1777 11.0052 21.1204 10.7449 21.0094 10.506C20.8984 10.2671 20.7365 10.0553 20.535 9.88556L14.6985 15.7232Z" fill="#A3FFA3" stroke="#C4B1EB" stroke-width="0.472759" stroke-miterlimit="10"/>
<path d="M9.09521 15.7231H14.6985" stroke="#9869F7" stroke-width="0.472759" stroke-miterlimit="10"/>
<path d="M18.5381 3.09625V11.8842L14.6991 15.7232H9.09584L5.25635 11.8837V3.09625C5.25635 2.74904 5.39427 2.41606 5.63979 2.17055C5.8853 1.92504 6.21828 1.78711 6.56549 1.78711H17.229C17.5762 1.78711 17.9091 1.92504 18.1547 2.17055C18.4002 2.41606 18.5381 2.74904 18.5381 3.09625Z" fill="#CAACFE" stroke="#C4B1EB" stroke-width="0.472759" stroke-miterlimit="10"/>
<path d="M14.1592 4.77264C14.8456 5.1754 15.4159 5.74924 15.8144 6.43816C16.2195 7.12671 16.431 7.91202 16.4263 8.71092C16.4266 9.17791 16.3436 9.64121 16.1811 10.079C16.0339 10.4982 15.7832 10.8734 15.4523 11.1699C15.131 11.4529 14.715 11.6049 14.2869 11.5956C13.9176 11.5956 13.6161 11.498 13.3823 11.3028C13.1485 11.1076 12.9852 10.8363 12.8925 10.4887C12.6128 10.7669 12.246 10.9404 11.8535 10.9801C11.4611 11.0199 11.0669 10.9234 10.7371 10.707C10.445 10.5137 10.2098 10.2458 10.0559 9.93109C9.89148 9.58342 9.8062 9.20361 9.8062 8.81902C9.8062 8.43443 9.89148 8.05462 10.0559 7.70695C10.2103 7.39063 10.4452 7.12054 10.7371 6.92385C11.0148 6.73505 11.3432 6.63479 11.679 6.63626C11.8944 6.63537 12.1077 6.67703 12.3069 6.75885C12.5069 6.84123 12.6907 6.95819 12.85 7.10437C12.8896 6.98761 12.966 6.88687 13.0678 6.8173C13.1733 6.7454 13.2971 6.70487 13.4247 6.7004C13.5064 6.69932 13.5873 6.71532 13.6624 6.74739C13.7375 6.77946 13.8051 6.82688 13.8607 6.88661C13.9182 6.94268 13.9638 7.0097 13.9949 7.0837C14.026 7.15771 14.0419 7.2372 14.0418 7.31747V9.78678C14.0418 10.2482 14.1588 10.4787 14.393 10.4783C14.528 10.4783 14.6573 10.392 14.7814 10.2197C14.9196 10.0149 15.0204 9.78723 15.0794 9.5473C15.1541 9.27516 15.1919 8.99418 15.1916 8.71195C15.1938 8.11237 15.0358 7.52308 14.7338 7.00505C14.4391 6.48521 14.018 6.04811 13.5095 5.73419C13.026 5.42658 12.4652 5.26247 11.8921 5.26091C11.3028 5.25497 10.7243 5.41931 10.2261 5.73419C9.72532 6.05082 9.31623 6.49308 9.03952 7.01695C8.74836 7.55616 8.5982 8.16021 8.60297 8.77299C8.59872 9.33633 8.72831 9.89263 8.98108 10.3961C9.22372 10.8862 9.57935 11.3117 10.0187 11.6375C10.4495 11.9601 10.9547 12.1687 11.4876 12.2442C11.6193 12.264 11.7389 12.3322 11.8228 12.4356C11.9093 12.5363 11.9565 12.6649 11.9557 12.7976C11.9576 12.8776 11.9414 12.957 11.9082 13.0298C11.8751 13.1026 11.8259 13.167 11.7644 13.2182C11.704 13.2715 11.6328 13.3111 11.5556 13.334C11.4784 13.357 11.3971 13.3628 11.3175 13.3511C10.5909 13.2562 9.89941 12.982 9.30539 12.553C8.70847 12.1272 8.22158 11.5653 7.88504 10.9139C7.52996 10.2216 7.35278 9.45183 7.36949 8.67399C7.38619 7.89615 7.59626 7.13471 7.98073 6.45833C8.37632 5.76479 8.94455 5.18534 9.63022 4.77626C10.3125 4.36467 11.0953 4.14985 11.8921 4.15557C12.6899 4.15079 13.4739 4.36417 14.1592 4.77264ZM12.5894 9.57264C12.7618 9.37402 12.848 9.12213 12.848 8.81695C12.848 8.51178 12.7618 8.25816 12.5894 8.05609C12.512 7.95996 12.4139 7.88262 12.3023 7.82985C12.1908 7.77708 12.0688 7.75027 11.9454 7.75143C11.6964 7.74419 11.4835 7.8435 11.3066 8.04937C11.1264 8.26313 11.0317 8.53599 11.0407 8.8154C11.0407 9.12782 11.1269 9.38333 11.2994 9.58195C11.3776 9.67654 11.4761 9.75239 11.5876 9.80394C11.699 9.85549 11.8206 9.88144 11.9433 9.87989C12.0668 9.87833 12.1885 9.85007 12.3 9.79703C12.4115 9.744 12.5102 9.66745 12.5894 9.57264Z" fill="white" stroke="#C4B1EB" stroke-width="0.472759" stroke-miterlimit="10"/>
</g>
<defs>
<clipPath id="clip0_462_19066">
<rect width="19.035" height="20.6747" fill="white" transform="translate(2.37939 1.55176)"/>
</clipPath>
</defs>
</svg>
