<svg width="19" height="17" viewBox="0 0 19 17" fill="none" xmlns="http://www.w3.org/2000/svg">
    <mask id="mask0_33_114" style="mask-type:luminance" maskUnits="userSpaceOnUse" x="0" y="0" width="19" height="17">
        <path d="M18.8011 0H0V16.5788H18.8011V0Z" fill="white"/>
    </mask>
    <g mask="url(#mask0_33_114)">
        <path d="M15.502 7.86347L14.604 6.96714L14.0189 6.38156L8.38395 0.74707L1.84326 7.28816C1.7411 7.39037 1.66004 7.51165 1.60475 7.64512C1.54946 7.7786 1.521 7.92165 1.521 8.06621C1.521 8.21069 1.54946 8.35374 1.60475 8.48722C1.66004 8.62069 1.7411 8.74206 1.84326 8.84418L6.50646 13.5078C6.71286 13.714 6.99269 13.8299 7.28448 13.8299C7.57626 13.8299 7.8561 13.714 8.06246 13.5078L13.5147 8.05592L15.502 7.86347Z" fill="#FFDC65" stroke="#DEADFF" stroke-width="0.472759" stroke-linejoin="round"/>
        <path d="M4.83838 4.20454V1.63912C4.83838 1.25441 4.9911 0.885434 5.26297 0.613251C5.53485 0.341061 5.90365 0.187936 6.28836 0.187501C6.47915 0.187287 6.66811 0.22467 6.84444 0.297519C7.02077 0.370368 7.18102 0.477251 7.31602 0.612064C7.45102 0.746877 7.55813 0.906968 7.63123 1.0832C7.70432 1.25943 7.74197 1.44833 7.74203 1.63912V6.46079" stroke="#DEADFF" stroke-width="0.472759" stroke-miterlimit="10" stroke-linecap="round"/>
        <path d="M7.74188 6.9154C7.96418 6.9154 8.14444 6.73521 8.14444 6.51287C8.14444 6.29057 7.96418 6.11035 7.74188 6.11035C7.51957 6.11035 7.33936 6.29057 7.33936 6.51287C7.33936 6.73521 7.51957 6.9154 7.74188 6.9154Z" fill="#FFDC65" stroke="#DEADFF" stroke-width="0.472759" stroke-miterlimit="10"/>
        <path d="M17.2515 10.0098C18.0073 11.1526 18.4177 11.8487 18.6138 12.8352" stroke="#DEADFF" stroke-width="0.472759" stroke-miterlimit="10" stroke-linecap="round"/>
        <path d="M18.0251 15.125C17.7405 15.5046 17.3742 15.8153 16.9532 16.0343C16.5324 16.2533 16.0676 16.3748 15.5934 16.3899C15.1192 16.405 14.6477 16.3134 14.2136 16.1218C13.7796 15.9301 13.3942 15.6434 13.0859 15.2827" stroke="#DEADFF" stroke-width="0.472759" stroke-miterlimit="10" stroke-linecap="round"/>
        <path d="M17.4016 13.1304C17.3872 13.615 17.1846 14.0749 16.8367 14.4126C16.489 14.7502 16.0232 14.9391 15.5384 14.9391C15.0537 14.9391 14.5879 14.7502 14.2401 14.4126C13.8922 14.0749 13.6896 13.615 13.6753 13.1304C13.6753 12.101 15.5393 9.7002 15.5393 9.7002C15.5393 9.7002 17.4016 12.101 17.4016 13.1304Z" fill="#FDFFA2" stroke="#DEADFF" stroke-width="0.472759" stroke-linejoin="round"/>
        <path d="M1.30158 6.18359L0.74345 6.74176C0.56704 6.91806 0.427102 7.12746 0.331627 7.35791C0.236152 7.58837 0.187012 7.83537 0.187012 8.08482C0.187012 8.33428 0.236152 8.58128 0.331627 8.81173C0.427102 9.04218 0.56704 9.25158 0.74345 9.42796L1.40722 10.0917" stroke="#DEADFF" stroke-width="0.472759" stroke-miterlimit="10" stroke-linecap="round"/>
    </g>
</svg>
