<svg width="24" height="24" viewBox="0 0 24 24" fill="none" xmlns="http://www.w3.org/2000/svg">
<g clip-path="url(#clip0_462_19057)">
<path d="M19.6331 11.432L18.4988 10.2998L17.7597 9.56012L10.6419 2.44287L2.37997 10.7053C2.25092 10.8344 2.14854 10.9876 2.0787 11.1562C2.00885 11.3248 1.9729 11.5055 1.9729 11.6881C1.9729 11.8706 2.00885 12.0513 2.0787 12.2199C2.14854 12.3885 2.25092 12.5418 2.37997 12.6708L8.27033 18.5617C8.53104 18.8222 8.88452 18.9685 9.25309 18.9685C9.62165 18.9685 9.97514 18.8222 10.2358 18.5617L17.1229 11.6751L19.6331 11.432Z" fill="#FFAEFC" stroke="#DF75C1" stroke-width="0.472759" stroke-linejoin="round"/>
<path d="M6.16357 6.81048V3.56995C6.16357 3.084 6.35648 2.61793 6.6999 2.27412C7.04332 1.9303 7.50918 1.73688 7.99513 1.73633V1.73633C8.23612 1.73606 8.47481 1.78328 8.69754 1.8753C8.92027 1.96732 9.12269 2.10233 9.29322 2.27262C9.46375 2.44291 9.59904 2.64513 9.69138 2.86774C9.78371 3.09034 9.83127 3.32896 9.83134 3.56995V9.66048" stroke="#DF75C1" stroke-width="0.472759" stroke-miterlimit="10" stroke-linecap="round"/>
<path d="M9.8312 10.2351C10.112 10.2351 10.3397 10.0075 10.3397 9.72665C10.3397 9.44584 10.112 9.2182 9.8312 9.2182C9.55039 9.2182 9.32275 9.44584 9.32275 9.72665C9.32275 10.0075 9.55039 10.2351 9.8312 10.2351Z" fill="#FFAEFC" stroke="#DF75C1" stroke-width="0.472759" stroke-miterlimit="10"/>
<path d="M21.8433 14.1429C22.7981 15.5865 23.3164 16.4658 23.5641 17.7119" stroke="#DF75C1" stroke-width="0.472759" stroke-miterlimit="10" stroke-linecap="round"/>
<path d="M22.8203 20.6042C22.4607 21.0837 21.998 21.4762 21.4663 21.7528C20.9347 22.0294 20.3476 22.1829 19.7486 22.202C19.1496 22.2211 18.554 22.1054 18.0057 21.8633C17.4575 21.6212 16.9707 21.259 16.5813 20.8034" stroke="#DF75C1" stroke-width="0.472759" stroke-miterlimit="10" stroke-linecap="round"/>
<path d="M22.0331 18.0858C22.0149 18.6979 21.759 19.2788 21.3196 19.7054C20.8803 20.1319 20.292 20.3705 19.6796 20.3705C19.0673 20.3705 18.479 20.1319 18.0396 19.7054C17.6002 19.2788 17.3443 18.6979 17.3262 18.0858C17.3262 16.7855 19.6807 13.7529 19.6807 13.7529C19.6807 13.7529 22.0331 16.7855 22.0331 18.0858Z" fill="#FDFFA2" stroke="#DF75C1" stroke-width="0.472759" stroke-linejoin="round"/>
<path d="M1.69596 9.30975L0.990955 10.0148C0.768122 10.2375 0.591358 10.502 0.470758 10.7931C0.350158 11.0842 0.288086 11.3962 0.288086 11.7113C0.288086 12.0264 0.350158 12.3384 0.470758 12.6295C0.591358 12.9206 0.768122 13.1851 0.990955 13.4079L1.8294 14.2463" stroke="#DF75C1" stroke-width="0.472759" stroke-miterlimit="10" stroke-linecap="round"/>
</g>
<defs>
<clipPath id="clip0_462_19057">
<rect width="23.7487" height="20.9416" fill="white" transform="translate(0.0517578 1.49994)"/>
</clipPath>
</defs>
</svg>
