<svg width="24" height="25" viewBox="0 0 24 25" fill="none" xmlns="http://www.w3.org/2000/svg">
<g clip-path="url(#clip0_462_19087)">
<path d="M15.7557 4.75838L17.4108 4.71803C17.8704 4.70693 18.3176 4.86724 18.6654 5.16775C19.0133 5.46825 19.2368 5.88745 19.2926 6.34372L19.4933 7.987C19.5518 8.46793 19.7967 8.90665 20.1755 9.20873L21.4686 10.2432C21.8277 10.53 22.0671 10.9402 22.1404 11.3939C22.2136 11.8476 22.1154 12.3123 21.8648 12.6975L20.9622 14.0858C20.698 14.4918 20.6037 14.9853 20.6995 15.4601L21.0284 17.0822C21.1192 17.5327 21.0391 18.001 20.8036 18.3957C20.5681 18.7904 20.1941 19.0833 19.7545 19.2174L18.1707 19.7005C17.7067 19.8413 17.3166 20.1588 17.0845 20.5844L16.2915 22.0384C16.0714 22.442 15.7088 22.7493 15.2745 22.9003C14.8402 23.0512 14.3653 23.0352 13.9422 22.8551L12.4184 22.207C11.9734 22.0182 11.4722 22.0109 11.0219 22.1869L9.47997 22.791C9.05201 22.9586 8.57696 22.961 8.14736 22.7976C7.71776 22.6342 7.36437 22.3167 7.156 21.907L6.40548 20.4313C6.18594 19.9996 5.80577 19.6712 5.34669 19.5168L3.77686 18.9882C3.34089 18.8416 2.97516 18.5379 2.75101 18.1362C2.52685 17.7346 2.46034 17.2638 2.56444 16.8158L2.93789 15.203C3.04755 14.7311 2.96749 14.235 2.71496 13.8215L1.8522 12.4099C1.61256 12.0177 1.52748 11.5504 1.61353 11.0989C1.69959 10.6474 1.95061 10.2441 2.31772 9.96752L3.64082 8.97183C4.02769 8.68045 4.28504 8.24912 4.35772 7.77028L4.60496 6.13321C4.67371 5.67867 4.90921 5.26601 5.26558 4.97561C5.62195 4.68522 6.07367 4.5379 6.53272 4.56234L8.1879 4.65027C8.67144 4.67572 9.1457 4.51064 9.50894 4.19045L10.7503 3.09544C11.0952 2.79156 11.5408 2.62689 12.0004 2.63349C12.46 2.64009 12.9007 2.81748 13.2367 3.13113L14.4465 4.26131C14.801 4.59202 15.271 4.77049 15.7557 4.75838Z" fill="#FFAEFC" stroke="#DF75C1" stroke-width="0.472759" stroke-miterlimit="10"/>
<path d="M9.11203 14.8938C9.11148 15.0061 9.07842 15.1158 9.01686 15.2098C8.95648 15.306 8.86801 15.3813 8.76341 15.4255C8.69852 15.4549 8.62774 15.4691 8.55652 15.4669C8.44287 15.4676 8.33158 15.4345 8.23686 15.3717C8.14238 15.3105 8.06863 15.2221 8.02531 15.1182L7.72634 14.3791H5.54979L5.25237 15.1182C5.21452 15.2261 5.1417 15.3182 5.04548 15.38C4.95328 15.4373 4.84679 15.4674 4.73823 15.4669C4.66322 15.4687 4.58865 15.4549 4.51928 15.4263C4.4499 15.3977 4.38724 15.355 4.3353 15.3008C4.28295 15.2487 4.24163 15.1866 4.21381 15.1182C4.186 15.0497 4.17226 14.9764 4.17341 14.9026C4.17559 14.8287 4.18956 14.7558 4.21479 14.6864L6.10013 10.1444C6.14409 10.0383 6.21932 9.94812 6.31582 9.88583C6.41331 9.82622 6.52535 9.79468 6.63962 9.79468C6.75388 9.79468 6.86593 9.82622 6.96341 9.88583C7.05995 9.94822 7.13533 10.0384 7.17962 10.1444L9.07272 14.6864C9.10154 14.7516 9.11499 14.8225 9.11203 14.8938ZM7.30996 13.3493L6.63755 11.6972L5.96513 13.3493H7.30996Z" fill="white" stroke="#DF75C1" stroke-width="0.472759" stroke-miterlimit="10"/>
<path d="M13.2102 10.1801C13.629 10.4137 13.9752 10.7584 14.2105 11.1763C14.4503 11.6232 14.5757 12.1224 14.5757 12.6295C14.5757 13.1366 14.4503 13.6358 14.2105 14.0827C13.9754 14.5008 13.6292 14.8458 13.2102 15.0794C12.7772 15.3196 12.2891 15.4426 11.794 15.4363H10.4905C10.3411 15.4352 10.198 15.3754 10.0923 15.2697C9.98663 15.164 9.92678 15.021 9.92569 14.8715V10.387C9.92389 10.312 9.93772 10.2374 9.9663 10.1681C9.99489 10.0987 10.0376 10.036 10.0917 9.98407C10.144 9.93177 10.2062 9.89049 10.2747 9.86268C10.3432 9.83487 10.4166 9.82109 10.4905 9.82217H11.794C12.2891 9.81618 12.7773 9.93956 13.2102 10.1801ZM12.6454 14.1825C12.8971 14.0333 13.1015 13.816 13.235 13.5556C13.3743 13.2668 13.4466 12.9504 13.4466 12.6298C13.4466 12.3092 13.3743 11.9927 13.235 11.7039C13.1015 11.4435 12.8971 11.2262 12.6454 11.077C12.3874 10.9258 12.0929 10.8482 11.794 10.8525H11.0554V14.4065H11.794C12.0931 14.4102 12.3876 14.3319 12.6454 14.1799V14.1825Z" fill="white" stroke="#DF75C1" stroke-width="0.472759" stroke-miterlimit="10"/>
<path d="M16.4111 15.3422C16.0904 15.2487 15.8412 15.1353 15.6636 15.0018C15.4912 14.8801 15.405 14.7334 15.405 14.5617C15.4032 14.4893 15.4163 14.4174 15.4434 14.3503C15.4706 14.2832 15.5112 14.2224 15.5628 14.1717C15.6097 14.1219 15.6663 14.0822 15.7291 14.055C15.7919 14.0279 15.8596 14.0139 15.928 14.0139C16.0209 14.0123 16.1125 14.0351 16.1938 14.0801C16.3937 14.1878 16.6011 14.2809 16.8145 14.3584C17.0235 14.4261 17.2424 14.4585 17.4621 14.4541C17.738 14.4541 17.9568 14.4023 18.1185 14.2989C18.2802 14.1954 18.3604 14.0667 18.359 13.9125C18.3597 13.854 18.3474 13.7961 18.323 13.743C18.2985 13.6899 18.2626 13.6428 18.2178 13.6053C18.1136 13.5166 17.994 13.4477 17.865 13.402C17.7237 13.3492 17.523 13.2842 17.263 13.207C16.9321 13.1179 16.6076 13.0068 16.2916 12.8744C16.0337 12.7615 15.8071 12.5877 15.6311 12.368C15.4459 12.1408 15.3531 11.8418 15.3528 11.4711C15.3524 11.1004 15.4466 10.7877 15.6352 10.5329C15.8258 10.2766 16.0848 10.0793 16.3826 9.96389C16.7053 9.83718 17.0493 9.77379 17.3959 9.77717C17.7183 9.78119 18.0379 9.83726 18.3424 9.9432C18.6243 10.0299 18.8926 10.1558 19.1395 10.3172C19.2999 10.4385 19.3802 10.5741 19.3806 10.7237C19.3813 10.7877 19.3691 10.8513 19.3449 10.9105C19.3206 10.9698 19.2847 11.0236 19.2393 11.0687C19.1971 11.1147 19.1458 11.1514 19.0886 11.1764C19.0315 11.2014 18.9697 11.2143 18.9073 11.2141C18.8167 11.2153 18.7274 11.1922 18.6487 11.1473C18.4571 11.0375 18.2538 10.9497 18.0424 10.8856C17.8222 10.8335 17.5963 10.8098 17.37 10.8153C17.0942 10.8153 16.8768 10.872 16.7178 10.9854C16.5588 11.0989 16.48 11.2415 16.4814 11.4132C16.4814 11.6015 16.5742 11.7468 16.7597 11.8492C16.9452 11.9517 17.2343 12.0582 17.6271 12.1689C17.9534 12.2615 18.2738 12.3738 18.5866 12.5051C18.8339 12.6141 19.0517 12.7807 19.2218 12.9908C19.3987 13.207 19.4871 13.4894 19.4871 13.838C19.4871 14.2087 19.3861 14.5173 19.184 14.7639C18.9772 15.0135 18.7057 15.2016 18.3993 15.3075C18.0691 15.4253 17.7207 15.4843 17.37 15.4818C17.0454 15.4811 16.7225 15.4341 16.4111 15.3422Z" fill="white" stroke="#DF75C1" stroke-width="0.472759" stroke-miterlimit="10"/>
<path d="M20.5159 20.4316L4.24018 4.15595C3.95072 3.86649 3.48149 3.86641 3.19213 4.15577C2.90278 4.44512 2.90286 4.91435 3.19232 5.20381L19.468 21.4795C19.7574 21.7689 20.2267 21.769 20.516 21.4797C20.8054 21.1903 20.8053 20.7211 20.5159 20.4316Z" fill="#FDFFA2" stroke="#DF75C1" stroke-width="0.472759" stroke-miterlimit="10"/>
</g>
<defs>
<clipPath id="clip0_462_19087">
<rect width="21.0569" height="20.8423" fill="white" transform="translate(1.34473 2.39667)"/>
</clipPath>
</defs>
</svg>
