<svg width="24" height="25" viewBox="0 0 24 25" fill="none" xmlns="http://www.w3.org/2000/svg">
<g clip-path="url(#clip0_462_19074)">
<path d="M14.4351 16.5821C14.1821 16.5821 13.9348 16.6571 13.7244 16.7977C13.5141 16.9383 13.3501 17.1381 13.2533 17.3718C13.1565 17.6056 13.1312 17.8628 13.1806 18.111C13.23 18.3591 13.3519 18.587 13.5308 18.7659C13.7098 18.9448 13.9378 19.0666 14.1859 19.1159C14.4341 19.1652 14.6913 19.1397 14.925 19.0429C15.1587 18.946 15.3585 18.7819 15.499 18.5715C15.6395 18.3611 15.7144 18.1137 15.7143 17.8607C15.7019 17.1599 15.1386 16.5821 14.4351 16.5821Z" fill="#9EEC9E" stroke="#C4B1EB" stroke-width="0.472759" stroke-miterlimit="10"/>
<path d="M16.6857 10.4823C16.6613 10.4823 16.6241 10.4699 16.5874 10.4699H8.83961L8.71702 9.6459C8.67955 9.38251 8.54804 9.14157 8.34677 8.96758C8.14549 8.7936 7.88806 8.69832 7.62202 8.69935H6.62633C6.49991 8.70515 6.38058 8.75946 6.29317 8.85097C6.20576 8.94249 6.15698 9.06417 6.15698 9.19073C6.15698 9.31728 6.20576 9.43897 6.29317 9.53049C6.38058 9.622 6.49991 9.67631 6.62633 9.68211H7.62202C7.65215 9.68354 7.68087 9.69534 7.7033 9.71551C7.72573 9.73568 7.74051 9.76299 7.74512 9.7928L8.50754 14.9823C8.55645 15.2999 8.71712 15.5896 8.96063 15.7992C9.20414 16.0089 9.51449 16.1247 9.83582 16.1259H14.9519C15.2634 16.1238 15.5649 16.0154 15.8064 15.8186C16.048 15.6219 16.2151 15.3485 16.2801 15.0438L17.0793 11.0471C17.0906 10.9842 17.0894 10.9196 17.0757 10.8571C17.0621 10.7947 17.0362 10.7355 16.9996 10.683C16.9631 10.6306 16.9165 10.5858 16.8626 10.5514C16.8088 10.5169 16.7486 10.4935 16.6857 10.4823Z" fill="#A3FFA3" stroke="#C4B1EB" stroke-width="0.472759" stroke-miterlimit="10"/>
<path d="M11.2992 17.7997C11.2855 17.4727 11.1462 17.1637 10.9103 16.9369C10.6745 16.7101 10.3602 16.583 10.033 16.5821C9.69427 16.5966 9.37499 16.7443 9.14464 16.9931C8.91428 17.2419 8.79149 17.5715 8.80299 17.9104C8.81421 18.236 8.95111 18.5447 9.18497 18.7716C9.41882 18.9985 9.73146 19.126 10.0573 19.1274H10.0821C10.783 19.0907 11.3364 18.4995 11.2992 17.7997Z" fill="#9EEC9E" stroke="#C4B1EB" stroke-width="0.472759" stroke-miterlimit="10"/>
<path d="M20.2646 18.1437C21.0693 16.8023 21.5415 15.2878 21.6416 13.7267C21.7418 12.1656 21.467 10.6033 20.8403 9.17002C20.7973 9.06006 20.7325 8.95993 20.6498 8.87564C20.5671 8.79135 20.4683 8.72463 20.3592 8.6795C20.2501 8.63436 20.133 8.61174 20.015 8.61298C19.8969 8.61423 19.7803 8.63933 19.6722 8.68676C19.5641 8.73419 19.4667 8.80298 19.3858 8.889C19.305 8.97502 19.2423 9.0765 19.2016 9.18733C19.161 9.29817 19.1431 9.41608 19.1492 9.53399C19.1552 9.6519 19.185 9.76737 19.2368 9.87347C19.7514 11.0501 19.9771 12.3327 19.895 13.6143C19.8128 14.8959 19.4252 16.1393 18.7646 17.2405C16.4804 21.034 11.5361 22.2666 7.74213 19.9845C3.94816 17.7024 2.71505 12.7581 4.99764 8.9626C6.92385 5.75984 10.8316 4.33018 14.3287 5.45105L14.2185 5.46449C13.9919 5.49804 13.7874 5.61894 13.6488 5.80133C13.5103 5.98372 13.4485 6.21311 13.4769 6.44042C13.5053 6.66772 13.6215 6.87489 13.8007 7.01759C13.9799 7.1603 14.2079 7.2272 14.4358 7.20398L17.0737 6.87398C17.2506 6.8562 17.4202 6.79394 17.5666 6.693C17.713 6.59206 17.8315 6.45572 17.9111 6.29667C17.9906 6.13762 18.0287 5.96102 18.0216 5.78333C18.0146 5.60563 17.9627 5.4326 17.8708 5.28036L16.5533 2.97139C16.4385 2.76932 16.248 2.62117 16.0239 2.55952C15.7998 2.49788 15.5603 2.52779 15.3583 2.64268C15.1562 2.75757 15.008 2.94802 14.9464 3.17215C14.8848 3.39627 14.9147 3.6357 15.0296 3.83777C12.9139 3.11888 10.6159 3.14568 8.5175 3.9137C6.41914 4.68171 4.6468 6.1447 3.49505 8.0595C0.715393 12.6831 2.21488 18.7064 6.83799 21.4861C11.4611 24.2657 17.4844 22.7673 20.2646 18.1437Z" fill="#CAACFE" stroke="#C4B1EB" stroke-width="0.472759" stroke-miterlimit="10"/>
</g>
<defs>
<clipPath id="clip0_462_19074">
<rect width="20.0359" height="20.8268" fill="white" transform="translate(1.86206 2.29327)"/>
</clipPath>
</defs>
</svg>
