<svg width="24" height="24" viewBox="0 0 24 24" fill="none" xmlns="http://www.w3.org/2000/svg">
<g clip-path="url(#clip0_462_19044)">
<path d="M17.74 3.87778V20.0675C17.7401 20.3351 17.6875 20.6001 17.5851 20.8473C17.4827 21.0946 17.3327 21.3192 17.1435 21.5085C16.9543 21.6977 16.7296 21.8478 16.4824 21.9503C16.2352 22.0527 15.9702 22.1054 15.7026 22.1054H8.13071C7.86306 22.1055 7.59803 22.0528 7.35074 21.9504C7.10346 21.848 6.87877 21.6979 6.68952 21.5086C6.50027 21.3194 6.35015 21.0947 6.24776 20.8474C6.14537 20.6001 6.09271 20.3351 6.09277 20.0675V3.87778C6.09277 3.33728 6.30748 2.81893 6.68967 2.43674C7.07186 2.05455 7.59021 1.83984 8.13071 1.83984H15.7026C15.9702 1.83984 16.2352 1.89256 16.4824 1.99498C16.7296 2.0974 16.9543 2.24753 17.1435 2.43677C17.3327 2.62602 17.4827 2.85068 17.5851 3.09793C17.6875 3.34518 17.7401 3.61018 17.74 3.87778Z" fill="white" stroke="#C4B1EB" stroke-width="0.472759" stroke-miterlimit="10"/>
<path d="M17.74 3.87778V4.58692H6.09277V3.87778C6.09277 3.33728 6.30748 2.81893 6.68967 2.43674C7.07186 2.05455 7.59021 1.83984 8.13071 1.83984H15.7026C15.9702 1.83984 16.2352 1.89256 16.4824 1.99498C16.7296 2.0974 16.9543 2.24753 17.1435 2.43677C17.3327 2.62602 17.4827 2.85068 17.5851 3.09793C17.6875 3.34518 17.7401 3.61018 17.74 3.87778Z" fill="#D7C1FF" stroke="#C4B1EB" stroke-width="0.472759" stroke-miterlimit="10"/>
<path d="M13.7664 3.21313H10.0656C10.0424 3.21313 10.0237 3.23189 10.0237 3.25503V3.42676C10.0237 3.44989 10.0424 3.46865 10.0656 3.46865H13.7664C13.7896 3.46865 13.8083 3.44989 13.8083 3.42676V3.25503C13.8083 3.23189 13.7896 3.21313 13.7664 3.21313Z" fill="#D7C1FF" stroke="#C4B1EB" stroke-width="0.472759" stroke-miterlimit="10"/>
<path d="M15.1599 3.21313H14.9882C14.965 3.21313 14.9463 3.23189 14.9463 3.25503V3.42676C14.9463 3.44989 14.965 3.46865 14.9882 3.46865H15.1599C15.183 3.46865 15.2018 3.44989 15.2018 3.42676V3.25503C15.2018 3.23189 15.183 3.21313 15.1599 3.21313Z" fill="#D7C1FF" stroke="#C4B1EB" stroke-width="0.472759" stroke-miterlimit="10"/>
<path d="M2.25366 17.7688L4.75556 14.8707L2.25366 11.9726L4.75556 9.07398L2.25366 6.17535" stroke="#C4B1EB" stroke-width="0.472759" stroke-linecap="round" stroke-linejoin="round"/>
<path d="M21.5788 6.17535L19.0769 9.07346L21.5788 11.9716L19.0769 14.8702L21.5788 17.7688" stroke="#C4B1EB" stroke-width="0.472759" stroke-linecap="round" stroke-linejoin="round"/>
<path d="M17.2347 16.8952C17.4069 16.9462 17.5756 17.008 17.74 17.0804V20.0664C17.7401 20.334 17.6876 20.599 17.5853 20.8462C17.4829 21.0935 17.3329 21.3182 17.1438 21.5074C16.9546 21.6967 16.73 21.8468 16.4828 21.9492C16.2356 22.0517 15.9707 22.1044 15.7031 22.1044H8.13068C7.86308 22.1044 7.5981 22.0517 7.35087 21.9492C7.10365 21.8468 6.87902 21.6967 6.68982 21.5074C6.50063 21.3182 6.35056 21.0935 6.2482 20.8463C6.14584 20.599 6.09319 20.334 6.09326 20.0664V17.3768C6.6508 17.4332 7.21344 17.3446 7.72671 17.1197C7.74171 17.1135 7.7562 17.1078 7.77171 17.1001C8.34993 16.8413 8.97626 16.7076 9.60973 16.7076C10.2432 16.7076 10.8695 16.8413 11.4478 17.1001C11.8585 17.2858 12.3035 17.3835 12.7543 17.3868C13.205 17.3902 13.6515 17.2992 14.065 17.1197C14.08 17.1135 14.0945 17.1078 14.1095 17.1001C15.0928 16.6591 16.2018 16.5857 17.2347 16.8932V16.8952Z" fill="#9EEC9E"/>
<path d="M17.74 16.7747V20.0664C17.7401 20.334 17.6876 20.599 17.5853 20.8462C17.4829 21.0935 17.3329 21.3182 17.1438 21.5074C16.9546 21.6967 16.73 21.8468 16.4828 21.9492C16.2356 22.0517 15.9707 22.1044 15.7031 22.1044H8.13068C7.86308 22.1044 7.5981 22.0517 7.35087 21.9492C7.10365 21.8468 6.87902 21.6967 6.68982 21.5074C6.50063 21.3182 6.35056 21.0935 6.2482 20.8463C6.14584 20.599 6.09319 20.334 6.09326 20.0664V16.7142C6.64198 16.744 7.18049 16.8748 7.68171 17.1001C7.69723 17.1078 7.7112 17.1135 7.72671 17.1197C8.14001 17.2992 8.58631 17.3902 9.0369 17.3869C9.48749 17.3835 9.93237 17.2858 10.3429 17.1001C10.9213 16.8412 11.5478 16.7073 12.1815 16.7073C12.8151 16.7073 13.4416 16.8412 14.02 17.1001C14.0355 17.1078 14.0495 17.1135 14.065 17.1197C14.4783 17.2992 14.9246 17.3902 15.3752 17.3869C15.8258 17.3835 16.2707 17.2858 16.6812 17.1001C16.861 17.0191 17.0458 16.9499 17.2347 16.8932C17.4006 16.8436 17.5693 16.804 17.74 16.7747Z" fill="#A3FFA3"/>
<path d="M17.74 20.0664V19.3573H6.09277V20.0664C6.09277 20.6069 6.30748 21.1253 6.68967 21.5075C7.07186 21.8897 7.59021 22.1044 8.13071 22.1044H15.7026C15.9702 22.1044 16.2352 22.0517 16.4824 21.9492C16.7296 21.8468 16.9543 21.6967 17.1435 21.5074C17.3327 21.3182 17.4827 21.0935 17.5851 20.8463C17.6875 20.599 17.7401 20.334 17.74 20.0664Z" fill="#D7C1FF" stroke="#C4B1EB" stroke-width="0.472759" stroke-miterlimit="10"/>
<path d="M17.74 3.87778V20.0675C17.7401 20.335 17.6876 20.6 17.5853 20.8473C17.4829 21.0945 17.3329 21.3192 17.1438 21.5084C16.9546 21.6977 16.73 21.8478 16.4828 21.9502C16.2356 22.0527 15.9707 22.1054 15.7031 22.1054H8.13068C7.86308 22.1054 7.5981 22.0527 7.35087 21.9503C7.10365 21.8478 6.87902 21.6977 6.68982 21.5085C6.50063 21.3192 6.35056 21.0946 6.2482 20.8473C6.14584 20.6001 6.09319 20.3351 6.09326 20.0675V3.87778C6.09326 3.33737 6.3079 2.8191 6.68998 2.43692C7.07205 2.05475 7.59027 1.83998 8.13068 1.83984H15.7031C15.9707 1.83991 16.2356 1.89268 16.4828 1.99513C16.7299 2.09758 16.9545 2.24772 17.1436 2.43696C17.3328 2.62619 17.4828 2.85084 17.5851 3.09805C17.6874 3.34527 17.7401 3.61022 17.74 3.87778Z" stroke="#C4B1EB" stroke-width="0.472759" stroke-miterlimit="10"/>
<path d="M13.004 20.22H10.8285C10.5914 20.22 10.3992 20.4122 10.3992 20.6493V20.8128C10.3992 21.0499 10.5914 21.2421 10.8285 21.2421H13.004C13.2411 21.2421 13.4333 21.0499 13.4333 20.8128V20.6493C13.4333 20.4122 13.2411 20.22 13.004 20.22Z" fill="#D7C1FF" stroke="#C4B1EB" stroke-width="0.472759" stroke-miterlimit="10"/>
</g>
<defs>
<clipPath id="clip0_462_19044">
<rect width="19.7974" height="20.7373" fill="white" transform="translate(2.01733 1.60345)"/>
</clipPath>
</defs>
</svg>
